<?xml version="1.0" encoding="UTF-8"?>
<svg width="501px" height="591px" viewBox="0 0 501 591" version="1.1" xmlns="http://www.w3.org/2000/svg" xmlns:xlink="http://www.w3.org/1999/xlink">
    <!-- Generator: Sketch 52.2 (67145) - http://www.bohemiancoding.com/sketch -->
    <title>about-blocks-01</title>
    <desc>Created with Sketch.</desc>
    <g id="Sitemap" stroke="none" stroke-width="1" fill="none" fill-rule="evenodd">
        <g id="Page"></g>
        <g id="about-blocks-01" transform="translate(2.000000, 1.000000)">
            <g id="Group-23-Copy-4" opacity="0.2" transform="translate(0.000000, 164.000000)" stroke="#979797" stroke-width="2">
                <polygon id="Fill-1" points="0.67024 63.1258438 108.38704 125.375375 108.43504 125.375375 216.14224 63.1258438 108.38704 0.871507813"></polygon>
                <polygon id="Fill-2" points="108.43264 125.377297 108.38464 125.377297 108.38464 249.93882 216.14464 187.636438 216.14464 63.1277656"></polygon>
                <polygon id="Fill-3" points="0.67024 187.637398 108.38704 249.939781 108.38704 125.378258 0.67024 63.1239219"></polygon>
            </g>
            <g id="Group-4" opacity="0.2" transform="translate(140.000000, 82.000000)" stroke="#979797" stroke-width="2">
                <g id="Group-23-Copy-5" transform="translate(140.000000, 82.000000)">
                    <polygon id="Fill-1" points="0.67024 63.1258438 108.38704 125.375375 108.43504 125.375375 216.14224 63.1258438 108.38704 0.871507813"></polygon>
                    <polygon id="Fill-2" points="108.43264 125.377297 108.38464 125.377297 108.38464 249.93882 216.14464 187.636438 216.14464 63.1277656"></polygon>
                    <polygon id="Fill-3" points="0.67024 187.637398 108.38704 249.939781 108.38704 125.378258 0.67024 63.1239219"></polygon>
                </g>
                <g id="Group-23-Copy-6">
                    <polygon id="Fill-1" points="0.67024 63.1258438 108.38704 125.375375 108.43504 125.375375 216.14224 63.1258438 108.38704 0.871507813"></polygon>
                    <polygon id="Fill-2" points="108.43264 125.377297 108.38464 125.377297 108.38464 249.93882 216.14464 187.636438 216.14464 63.1277656"></polygon>
                    <polygon id="Fill-3" points="0.67024 187.637398 108.38704 249.939781 108.38704 125.378258 0.67024 63.1239219"></polygon>
                </g>
            </g>
            <g id="Group-23-Copy-6" opacity="0.2" transform="translate(280.000000, 0.000000)" stroke="#979797" stroke-width="2">
                <polygon id="Fill-1" points="0.67024 63.1258438 108.38704 125.375375 108.43504 125.375375 216.14224 63.1258438 108.38704 0.871507813"></polygon>
                <polygon id="Fill-2" points="108.43264 125.377297 108.38464 125.377297 108.38464 249.93882 216.14464 187.636438 216.14464 63.1277656"></polygon>
                <polygon id="Fill-3" points="0.67024 187.637398 108.38704 249.939781 108.38704 125.378258 0.67024 63.1239219"></polygon>
            </g>
            <g id="Group-23-Copy-7" opacity="0.2" transform="translate(140.000000, 246.000000)" stroke="#979797" stroke-width="2">
                <polygon id="Fill-1" points="0.67024 63.1258438 108.38704 125.375375 108.43504 125.375375 216.14224 63.1258438 108.38704 0.871507813"></polygon>
                <polygon id="Fill-2" points="108.43264 125.377297 108.38464 125.377297 108.38464 249.93882 216.14464 187.636438 216.14464 63.1277656"></polygon>
                <polygon id="Fill-3" points="0.67024 187.637398 108.38704 249.939781 108.38704 125.378258 0.67024 63.1239219"></polygon>
            </g>
            <g id="Group-28" transform="translate(2.000000, 338.000000)">
                <polygon id="Fill-4" fill="#EDF0F0" points="107.830903 0.000484615293 0.245346125 63.1846385 108.28252 125.583715 108.330564 125.583715 215.911317 62.3947154"></polygon>
                <polygon id="Fill-5" fill="#006699" points="108.332486 125.582262 108.284441 125.582262 108.740862 251.213954 216.369659 187.976492 215.913238 62.3932615"></polygon>
                <polygon id="Fill-6" fill="#00A7E2" points="108.283961 125.582262 108.740382 251.2188 0.69840369 188.771262 0.246787454 63.1880308"></polygon>
                <polygon id="Fill-7" fill="#006699" points="108.396865 125.731523 108.622673 188.547369 54.6064886 157.328446 54.375876 94.5319846"></polygon>
                <polygon id="Fill-8" fill="#97DAF8" points="108.307503 125.549308 108.081694 188.365154 162.097879 157.146231 162.328492 93.87"></polygon>
                <polygon id="Fill-9" fill="#EDF0F0" points="162.418334 156.907315 108.627958 188.504238 108.599131 188.504238 54.5829469 157.3047 108.373323 125.712623"></polygon>
                <polyline id="Fill-10" fill="#006699" points="108.598651 125.930215 54.5824664 94.7306769 108.372843 63.1386"></polyline>
                <polyline id="Fill-11" fill="#97DAF8" points="108.373323 63.1386 162.418334 94.3332923 108.627958 125.930215 108.599131 125.930215"></polyline>
            </g>
            <g id="Group-26" transform="translate(283.000000, 433.000000)">
                <polygon id="Fill-12" fill="#EDF0F0" points="0.801470588 31.7129077 54.8718824 62.9076 54.8959265 62.9076 108.735515 31.3106769 54.6410588 0.111138462"></polygon>
                <polygon id="Fill-13" fill="#006699" points="108.735515 31.3135846 108.966338 94.1052 55.0978971 125.721508 54.8718824 62.9105077 54.8959265 62.9105077"></polygon>
                <polygon id="Fill-14" fill="#97DAF8" points="1.03085147 94.5016154 55.0964544 125.720538 54.8704397 62.9046923 0.800027941 31.7148462"></polygon>
            </g>
        </g>
    </g>
</svg>