<?xml version="1.0" encoding="UTF-8"?>
<svg width="439px" height="331px" viewBox="0 0 439 331" version="1.1" xmlns="http://www.w3.org/2000/svg" xmlns:xlink="http://www.w3.org/1999/xlink">
    <!-- Generator: Sketch 52.1 (67048) - http://www.bohemiancoding.com/sketch -->
    <title>Group 5</title>
    <desc>Created with Sketch.</desc>
    <g id="Sitemap" stroke="none" stroke-width="1" fill="none" fill-rule="evenodd">
        <g id="Topaz-ContentMockup-Rough-Desktop-v1.1-Copy-3" transform="translate(-109.000000, -2848.000000)">
            <g id="Group-5" transform="translate(109.000000, 2848.000000)">
                <g id="Group-23-Copy-2">
                    <polygon id="Fill-1" fill="#EDF0F0" points="0.67024 63.1258438 108.38704 125.375375 108.43504 125.375375 216.14224 63.1258438 108.38704 0.871507813"></polygon>
                    <polygon id="Fill-2" fill="#023552" points="108.43264 125.377297 108.38464 125.377297 108.38464 249.93882 216.14464 187.636438 216.14464 63.1277656"></polygon>
                    <polygon id="Fill-3" fill="#00A6E2" points="0.67024 187.637398 108.38704 249.939781 108.38704 125.378258 0.67024 63.1239219"></polygon>
                </g>
                <g id="Group-21-Copy" transform="translate(330.000000, 130.336000)">
                    <polygon id="Fill-12" fill="#EDF0F0" points="0.8 31.5118672 54.7712 62.4396406 54.7952 62.4396406 108.536 31.1130781 54.5408 0.1805"></polygon>
                    <polygon id="Fill-13" fill="#023552" points="108.536 31.1159609 108.7664 93.3702969 54.9968 124.716078 54.7712 62.4425234 54.7952 62.4425234"></polygon>
                    <polygon id="Fill-14" fill="#00A6E2" points="1.02896 93.7633203 54.99536 124.715117 54.76976 62.4367578 0.79856 31.5137891"></polygon>
                </g>
                <g id="Group-23-Copy-3" transform="translate(140.000000, 81.000000)">
                    <polygon id="Fill-1" fill="#EDF0F0" points="0.67024 63.1258438 108.38704 125.375375 108.43504 125.375375 216.14224 63.1258438 108.38704 0.871507813"></polygon>
                    <polygon id="Fill-2" fill="#023552" points="108.43264 125.377297 108.38464 125.377297 108.38464 249.93882 216.14464 187.636438 216.14464 63.1277656"></polygon>
                    <polygon id="Fill-3" fill="#00A6E2" points="0.67024 187.637398 108.38704 249.939781 108.38704 125.378258 0.67024 63.1239219"></polygon>
                </g>
            </g>
        </g>
        <g id="Page"></g>
    </g>
</svg>