<?xml version="1.0" encoding="UTF-8"?>
<svg width="335px" height="392px" viewBox="0 0 335 392" version="1.1" xmlns="http://www.w3.org/2000/svg" xmlns:xlink="http://www.w3.org/1999/xlink">
    <!-- Generator: Sketch 52.1 (67048) - http://www.bohemiancoding.com/sketch -->
    <title>features-multi-graphic</title>
    <desc>Created with Sketch.</desc>
    <g id="Sitemap" stroke="none" stroke-width="1" fill="none" fill-rule="evenodd">
        <g id="Page"></g>
        <g id="features-multi-graphic">
            <g id="006-cube">
                <polygon id="Path" fill="#EDF0F0" points="153.790036 157.432126 192.528344 180.096346 231.281139 157.432126 192.528344 134.774086"></polygon>
                <polygon id="Path" fill="#FFFFFF" points="190.747331 181.285946 190.747331 226.611296 152.597865 203.943986 152.597865 158.627907"></polygon>
                <polygon id="Path" fill="#00A6E2" points="231.281139 158.627907 231.281139 203.943986 193.131673 226.611296 193.131673 181.285946"></polygon>
                <g id="Group" transform="translate(56.032028, 4.770764)">
                    <rect id="Rectangle" fill="#FFFFFF" x="109.352946" y="0.41613147" width="51.6554082" height="51.9229382"></rect>
                    <rect id="Rectangle" fill="#EDF0F0" x="109.352946" y="296.814392" width="51.6554082" height="51.9168074"></rect>
                    <rect id="Rectangle" fill="#EDF0F0" x="218.3072" y="56.2298606" width="51.6432111" height="51.9129756"></rect>
                    <rect id="Rectangle" fill="#FFFFFF" x="218.3072" y="241.018289" width="51.6432111" height="51.9152747"></rect>
                    <rect id="Rectangle" fill="#FFFFFF" x="0.416225452" y="56.2298606" width="51.6416865" height="51.9129756"></rect>
                    <rect id="Rectangle" fill="#EDF0F0" x="0.416225452" y="241.018289" width="51.6416865" height="51.9152747"></rect>
                </g>
                <g id="Group" transform="translate(53.647687, 4.770764)" fill="#232E38">
                    <path d="M137.556883,177.536584 C137.250807,177.536584 136.943965,177.458567 136.670874,177.299472 L97.6956954,154.855659 C97.1456796,154.540529 96.8096867,153.959222 96.8096867,153.326668 C96.8096867,152.694114 97.1472138,152.110512 97.6956954,151.795382 L136.670874,129.363807 C137.217055,129.046382 137.892109,129.046382 138.442125,129.363807 L177.429577,151.797677 C177.977292,152.112806 178.315586,152.696408 178.315586,153.328962 C178.315586,153.959222 177.979593,154.545118 177.429577,154.860248 L138.442125,177.301767 C138.169802,177.458567 137.861425,177.536584 137.556883,177.536584 Z M102.12804,153.328962 L137.556883,173.730552 L172.997232,153.328962 L137.556883,132.935787 L102.12804,153.328962 Z" id="Shape" fill-rule="nonzero"></path>
                    <path d="M137.556883,222.411973 C137.250807,222.411973 136.943965,222.331661 136.670874,222.174861 L97.6972297,199.733342 C97.1472138,199.418212 96.8112209,198.836905 96.8112209,198.202057 L96.8112209,153.334316 C96.8112209,152.705587 97.1472138,152.120455 97.6972297,151.803031 C98.2434099,151.489431 98.9246011,151.489431 99.46848,151.803031 L138.442125,174.238431 C138.989839,174.555855 139.328134,175.139457 139.328134,175.769716 L139.328134,220.6474 C139.328134,221.276129 138.990606,221.861261 138.442125,222.178685 C138.169802,222.331661 137.861425,222.411973 137.556883,222.411973 Z M100.355256,197.184004 L135.7864,217.585593 L135.7864,176.790828 L100.355256,156.397653 L100.355256,197.184004 Z" id="Shape" fill-rule="nonzero"></path>
                    <path d="M137.556883,222.411973 C137.250807,222.411973 136.943965,222.331661 136.670874,222.177156 C136.120859,221.859731 135.784866,221.2746 135.784866,220.64587 L135.784866,175.768951 C135.784866,175.140222 136.122393,174.55509 136.670874,174.237666 L175.658327,151.802266 C176.208343,151.488666 176.885699,151.487136 177.429577,151.80456 C177.979593,152.11969 178.315586,152.703292 178.315586,153.333551 L178.315586,198.202821 C178.315586,198.836905 177.978059,199.418977 177.429577,199.734107 L138.442125,222.177921 C138.169802,222.331661 137.861425,222.411973 137.556883,222.411973 Z M139.328134,176.790828 L139.328134,217.585593 L174.770784,197.184004 L174.770784,156.396888 L139.328134,176.790828 Z" id="Shape" fill-rule="nonzero"></path>
                    <path d="M27.9242337,132.197679 C26.9446379,132.197679 26.1529833,131.404501 26.1529833,130.429281 L26.1529833,109.467801 C26.1529833,108.492582 26.9446379,107.701698 27.9242337,107.701698 C28.9038295,107.701698 29.695484,108.494877 29.695484,109.467801 L29.695484,130.429281 C29.695484,131.404501 28.9045966,132.197679 27.9242337,132.197679 Z" id="Path"></path>
                    <path d="M61.4859377,136.101616 L31.8602604,136.101616 C30.8806646,136.101616 30.08901,135.310733 30.08901,134.335513 C30.08901,133.360294 30.8821988,132.56941 31.8602604,132.56941 L61.488239,132.56941 C62.4678348,132.56941 63.2594893,133.362588 63.2594893,134.335513 C63.2587222,135.310733 62.4655335,136.101616 61.4859377,136.101616 Z" id="Path"></path>
                    <path d="M98.5916766,155.102714 C98.2909706,155.102714 97.9871961,155.028521 97.7079692,154.865602 L68.4497362,138.039817 C67.603617,137.55259 67.3105821,136.473347 67.7999964,135.627392 C68.2871095,134.781437 69.3687305,134.490018 70.2209865,134.977246 L99.4776853,151.803031 C100.323804,152.290258 100.616839,153.373325 100.127425,154.21928 C99.8014045,154.786055 99.2045952,155.102714 98.5916766,155.102714 Z" id="Path"></path>
                    <path d="M31.8556577,140.020086 L24.0043163,140.020086 C23.0247205,140.020086 22.2330659,139.229202 22.2330659,138.251688 L22.2330659,130.423162 C22.2330659,129.446413 23.0247205,128.654765 24.0043163,128.654765 L31.8556577,128.654765 C32.8352535,128.654765 33.6269081,129.445648 33.6269081,130.423162 L33.6269081,138.251688 C33.6269081,139.229202 32.8360206,140.020086 31.8556577,140.020086 Z M25.7763337,136.48329 L30.0828731,136.48329 L30.0828731,132.190795 L25.7763337,132.190795 L25.7763337,136.48329 Z" id="Shape" fill-rule="nonzero"></path>
                    <path d="M69.3372791,140.020086 L61.488239,140.020086 C60.5086432,140.020086 59.7169886,139.229202 59.7169886,138.251688 L59.7169886,130.423162 C59.7169886,129.446413 60.5086432,128.654765 61.488239,128.654765 L69.3372791,128.654765 C70.3168749,128.654765 71.1085295,129.445648 71.1085295,130.423162 L71.1085295,138.251688 C71.1085295,139.229202 70.3168749,140.020086 69.3372791,140.020086 Z M63.2587222,136.48329 L67.5637274,136.48329 L67.5637274,132.190795 L63.2587222,132.190795 L63.2587222,136.48329 Z" id="Shape" fill-rule="nonzero"></path>
                    <path d="M53.9214943,111.232375 L1.95305475,111.232375 C0.973458946,111.232375 0.181804389,110.439196 0.181804389,109.466272 L0.181804389,57.6488506 C0.181804389,56.6721014 0.973458946,55.8804528 1.95305475,55.8804528 L53.9191929,55.8804528 C54.8987887,55.8804528 55.6904433,56.6713366 55.6904433,57.6488506 L55.6904433,109.463977 C55.6927446,110.439196 54.9010901,111.232375 53.9214943,111.232375 Z M3.72660643,107.697874 L52.1494768,107.697874 L52.1494768,59.4172484 L3.72660643,59.4172484 L3.72660643,107.697874 Z" id="Shape" fill-rule="nonzero"></path>
                    <path d="M27.9242337,243.840029 C26.9446379,243.840029 26.1529833,243.049145 26.1529833,242.073926 L26.1529833,221.110916 C26.1529833,220.135696 26.9446379,219.344813 27.9242337,219.344813 C28.9038295,219.344813 29.695484,220.135696 29.695484,221.110916 L29.695484,242.073926 C29.695484,243.04838 28.9045966,243.840029 27.9242337,243.840029 Z" id="Path"></path>
                    <path d="M61.4859377,218.973847 L31.8602604,218.973847 C30.8806646,218.973847 30.08901,218.182963 30.08901,217.205449 C30.08901,216.2287 30.8821988,215.437051 31.8602604,215.437051 L61.488239,215.437051 C62.4678348,215.437051 63.2594893,216.227935 63.2594893,217.205449 C63.2587222,218.182963 62.4655335,218.973847 61.4859377,218.973847 Z" id="Path"></path>
                    <path d="M69.3372791,216.798534 C68.7243605,216.798534 68.1275512,216.48111 67.7999964,215.9151 C67.3113492,215.067615 67.6013157,213.986078 68.4497362,213.49885 L97.7064349,196.673066 C98.558691,196.185838 99.6387778,196.477257 100.127425,197.320917 C100.616072,198.166872 100.326106,199.246115 99.4776853,199.733342 L70.2209865,216.559892 C69.9440609,216.722046 69.637218,216.798534 69.3372791,216.798534 Z" id="Path"></path>
                    <path d="M31.8556577,222.886197 L24.0043163,222.886197 C23.0247205,222.886197 22.2330659,222.095314 22.2330659,221.1178 L22.2330659,213.291569 C22.2330659,212.314819 23.0247205,211.523171 24.0043163,211.523171 L31.8556577,211.523171 C32.8352535,211.523171 33.6269081,212.314055 33.6269081,213.291569 L33.6269081,221.1178 C33.6269081,222.093019 32.8360206,222.886197 31.8556577,222.886197 Z M25.7763337,219.350167 L30.0828731,219.350167 L30.0828731,215.057672 L25.7763337,215.057672 L25.7763337,219.350167 Z" id="Shape" fill-rule="nonzero"></path>
                    <path d="M69.3372791,222.886197 L61.488239,222.886197 C60.5086432,222.886197 59.7169886,222.095314 59.7169886,221.1178 L59.7169886,213.291569 C59.7169886,212.314819 60.5086432,211.523171 61.488239,211.523171 L69.3372791,211.523171 C70.3168749,211.523171 71.1085295,212.314055 71.1085295,213.291569 L71.1085295,221.1178 C71.1085295,222.093019 70.3168749,222.886197 69.3372791,222.886197 Z M63.2587222,219.350167 L67.5637274,219.350167 L67.5637274,215.057672 L63.2587222,215.057672 L63.2587222,219.350167 Z" id="Shape" fill-rule="nonzero"></path>
                    <path d="M53.9214943,295.658215 L1.95305475,295.658215 C0.973458946,295.658215 0.181804389,294.867331 0.181804389,293.892112 L0.181804389,242.076985 C0.181804389,241.100236 0.973458946,240.308587 1.95305475,240.308587 L53.9191929,240.308587 C54.8987887,240.308587 55.6904433,241.099471 55.6904433,242.076985 L55.6904433,293.892112 C55.6927446,294.865801 54.9010901,295.658215 53.9214943,295.658215 Z M3.72660643,292.124479 L52.1494768,292.124479 L52.1494768,243.846148 L3.72660643,243.846148 L3.72660643,292.124479 Z" id="Shape" fill-rule="nonzero"></path>
                    <path d="M247.217148,132.197679 C246.237553,132.197679 245.445898,131.404501 245.445898,130.429281 L245.445898,109.467801 C245.445898,108.492582 246.237553,107.701698 247.217148,107.701698 C248.196744,107.701698 248.988399,108.494877 248.988399,109.467801 L248.988399,130.429281 C248.988399,131.404501 248.197511,132.197679 247.217148,132.197679 Z" id="Path"></path>
                    <path d="M243.280355,136.101616 L213.652376,136.101616 C212.67278,136.101616 211.881126,135.310733 211.881126,134.335513 C211.881126,133.360294 212.67278,132.56941 213.652376,132.56941 L243.280355,132.56941 C244.25995,132.56941 245.051605,133.362588 245.051605,134.335513 C245.053139,135.310733 244.25995,136.101616 243.280355,136.101616 Z" id="Path"></path>
                    <path d="M176.546637,155.102714 C175.933719,155.102714 175.339211,154.78529 175.010889,154.21928 C174.522241,153.373325 174.812208,152.290258 175.659094,151.803031 L204.913492,134.977246 C205.763446,134.490018 206.848136,134.781437 207.334482,135.627392 C207.823129,136.473347 207.533163,137.551825 206.684742,138.039817 L177.430345,154.865602 C177.151118,155.028521 176.845042,155.102714 176.546637,155.102714 Z" id="Path"></path>
                    <path d="M251.13323,140.020086 L243.281889,140.020086 C242.302293,140.020086 241.510639,139.229202 241.510639,138.251688 L241.510639,130.423162 C241.510639,129.446413 242.302293,128.654765 243.281889,128.654765 L251.13323,128.654765 C252.112826,128.654765 252.904481,129.445648 252.904481,130.423162 L252.904481,138.251688 C252.906782,139.229202 252.112826,140.020086 251.13323,140.020086 Z M245.055441,136.48329 L249.36198,136.48329 L249.36198,132.190795 L245.055441,132.190795 L245.055441,136.48329 Z" id="Shape" fill-rule="nonzero"></path>
                    <path d="M213.650075,140.020086 L205.798733,140.020086 C204.819137,140.020086 204.027483,139.229202 204.027483,138.251688 L204.027483,130.423162 C204.027483,129.446413 204.819137,128.654765 205.798733,128.654765 L213.650075,128.654765 C214.629671,128.654765 215.421325,129.445648 215.421325,130.423162 L215.421325,138.251688 C215.423626,139.229202 214.630438,140.020086 213.650075,140.020086 Z M207.572285,136.48329 L211.878824,136.48329 L211.878824,132.190795 L207.572285,132.190795 L207.572285,136.48329 Z" id="Shape" fill-rule="nonzero"></path>
                    <path d="M273.184492,111.232375 L221.216819,111.232375 C220.237224,111.232375 219.445569,110.439196 219.445569,109.466272 L219.445569,57.6488506 C219.445569,56.6721014 220.237224,55.8804528 221.216819,55.8804528 L273.184492,55.8804528 C274.162553,55.8804528 274.954208,56.6713366 274.954208,57.6488506 L274.954208,109.463977 C274.954208,110.439196 274.162553,111.232375 273.184492,111.232375 Z M222.98807,107.697874 L271.411707,107.697874 L271.411707,59.4172484 L222.98807,59.4172484 L222.98807,107.697874 Z" id="Shape" fill-rule="nonzero"></path>
                    <path d="M247.217148,243.840029 C246.237553,243.840029 245.445898,243.049145 245.445898,242.073926 L245.445898,221.110916 C245.445898,220.135696 246.237553,219.344813 247.217148,219.344813 C248.196744,219.344813 248.988399,220.135696 248.988399,221.110916 L248.988399,242.073926 C248.988399,243.04838 248.197511,243.840029 247.217148,243.840029 Z" id="Path"></path>
                    <path d="M243.280355,218.973847 L213.652376,218.973847 C212.67278,218.973847 211.881126,218.182963 211.881126,217.205449 C211.881126,216.2287 212.67278,215.437051 213.652376,215.437051 L243.280355,215.437051 C244.25995,215.437051 245.051605,216.227935 245.051605,217.205449 C245.051605,218.182963 244.25995,218.973847 243.280355,218.973847 Z" id="Path"></path>
                    <path d="M205.797199,216.798534 C205.498794,216.798534 205.192719,216.722046 204.913492,216.559892 L175.659094,199.734107 C174.812975,199.24688 174.522241,198.165342 175.010889,197.321682 C175.498002,196.478022 176.579623,196.185838 177.430345,196.67383 L206.684742,213.499615 C207.533163,213.986843 207.823896,215.06991 207.334482,215.915865 C207.006927,216.48111 206.411652,216.798534 205.797199,216.798534 Z" id="Path"></path>
                    <path d="M251.13323,222.886197 L243.281889,222.886197 C242.302293,222.886197 241.510639,222.095314 241.510639,221.1178 L241.510639,213.291569 C241.510639,212.314819 242.302293,211.523171 243.281889,211.523171 L251.13323,211.523171 C252.112826,211.523171 252.904481,212.314055 252.904481,213.291569 L252.904481,221.1178 C252.906782,222.093019 252.112826,222.886197 251.13323,222.886197 Z M245.055441,219.350167 L249.36198,219.350167 L249.36198,215.057672 L245.055441,215.057672 L245.055441,219.350167 Z" id="Shape" fill-rule="nonzero"></path>
                    <path d="M213.650075,222.886197 L205.798733,222.886197 C204.819137,222.886197 204.027483,222.095314 204.027483,221.1178 L204.027483,213.291569 C204.027483,212.314819 204.819137,211.523171 205.798733,211.523171 L213.650075,211.523171 C214.629671,211.523171 215.421325,212.314055 215.421325,213.291569 L215.421325,221.1178 C215.423626,222.093019 214.630438,222.886197 213.650075,222.886197 Z M207.572285,219.350167 L211.878824,219.350167 L211.878824,215.057672 L207.572285,215.057672 L207.572285,219.350167 Z" id="Shape" fill-rule="nonzero"></path>
                    <path d="M273.184492,295.658215 L221.216819,295.658215 C220.237224,295.658215 219.445569,294.867331 219.445569,293.892112 L219.445569,242.076985 C219.445569,241.100236 220.237224,240.308587 221.216819,240.308587 L273.184492,240.308587 C274.162553,240.308587 274.954208,241.099471 274.954208,242.076985 L274.954208,293.892112 C274.954208,294.865801 274.162553,295.658215 273.184492,295.658215 Z M222.98807,292.124479 L271.411707,292.124479 L271.411707,243.846148 L222.98807,243.846148 L222.98807,292.124479 Z" id="Shape" fill-rule="nonzero"></path>
                    <path d="M137.565321,132.661195 C136.585726,132.661195 135.794071,131.870312 135.794071,130.895092 L135.794071,53.7678599 C135.794071,52.7926405 136.585726,52.0017567 137.565321,52.0017567 C138.544917,52.0017567 139.336572,52.7926405 139.336572,53.7678599 L139.336572,130.895092 C139.336572,131.870312 138.544917,132.661195 137.565321,132.661195 Z" id="Path"></path>
                    <path d="M163.554144,55.5423767 L111.576499,55.5423767 C110.596903,55.5423767 109.805249,54.7514929 109.805249,53.7739789 L109.805249,1.94508461 C109.805249,0.969865232 110.596903,0.178981439 111.576499,0.178981439 L163.554144,0.178981439 C164.53374,0.178981439 165.325394,0.969865232 165.325394,1.94508461 L165.325394,53.7739789 C165.325394,54.750728 164.53374,55.5423767 163.554144,55.5423767 Z M113.347749,52.0055811 L161.780592,52.0055811 L161.780592,3.71118778 L113.347749,3.71118778 L113.347749,52.0055811 Z" id="Shape" fill-rule="nonzero"></path>
                    <path d="M137.565321,299.537676 C136.585726,299.537676 135.794071,298.746792 135.794071,297.771573 L135.794071,220.64587 C135.794071,219.669121 136.585726,218.877472 137.565321,218.877472 C138.544917,218.877472 139.336572,219.668356 139.336572,220.64587 L139.336572,297.770808 C139.336572,298.746027 138.544917,299.537676 137.565321,299.537676 Z" id="Path"></path>
                    <path d="M163.554144,351.365805 L111.576499,351.365805 C110.596903,351.365805 109.805249,350.574921 109.805249,349.601232 L109.805249,297.770808 C109.805249,296.795588 110.596903,296.004704 111.576499,296.004704 L163.554144,296.004704 C164.53374,296.004704 165.325394,296.795588 165.325394,297.770808 L165.325394,349.601232 C165.325394,350.574921 164.53374,351.365805 163.554144,351.365805 Z M113.347749,347.833599 L161.780592,347.833599 L161.780592,299.537676 L113.347749,299.537676 L113.347749,347.833599 Z" id="Shape" fill-rule="nonzero"></path>
                </g>
                <rect id="Rectangle" fill="#EDF0F0" x="67.9537367" y="9.54152824" width="19.0747331" height="19.0830565"></rect>
                <rect id="Rectangle" fill="#00A6E2" x="224.128114" y="101.378738" width="14.3060498" height="14.3122924"></rect>
                <g id="Group" transform="translate(52.455516, 2.385382)" fill="#FFFFFF">
                    <rect id="Rectangle" x="227.616493" y="0.711059076" width="22.1864452" height="22.2757379"></rect>
                    <rect id="Rectangle" x="0.474601009" y="196.907837" width="7.57672096" height="7.60879484"></rect>
                </g>
                <g id="Group" transform="translate(2.384342, 150.279070)" fill="#00A6E2">
                    <rect id="Rectangle" x="115.776463" y="12.8007827" width="11.7099242" height="11.7528597"></rect>
                    <rect id="Rectangle" x="0.236401841" y="0.241828388" width="18.3727839" height="18.4365357"></rect>
                </g>
                <rect id="Rectangle" fill="#FFFFFF" x="311.156584" y="164.591362" width="21.4590747" height="21.4684385"></rect>
                <rect id="Rectangle" fill="#00A6E2" x="152.597865" y="250.465116" width="15.4982206" height="15.5049834"></rect>
                <g id="Group" transform="translate(96.565836, 262.392027)" fill="#FFFFFF">
                    <rect id="Rectangle" x="0.321312349" y="70.2895145" width="24.2873884" height="24.4263123"></rect>
                    <rect id="Rectangle" x="134.13949" y="0.45783946" width="8.2898586" height="8.33806452"></rect>
                </g>
                <rect id="Rectangle" fill="#00A6E2" x="319.501779" y="332.760797" width="11.9217082" height="11.9269103"></rect>
                <g id="Group" fill="#232E38" fill-rule="nonzero">
                    <path d="M87.9777265,29.0368098 L68.7487819,29.0368098 C67.7705196,29.0368098 66.9799427,28.2436346 66.9799427,27.2632885 L66.9799427,8.00692735 C66.9799427,7.02734829 67.7705196,6.23340598 68.7487819,6.23340598 L87.9777265,6.23340598 C88.9559888,6.23340598 89.7465657,7.0265812 89.7465657,8.00692735 L89.7465657,27.2632885 C89.7465657,28.2436346 88.9567548,29.0368098 87.9777265,29.0368098 Z M70.5176211,25.4897671 L86.2065891,25.4897671 L86.2065891,9.77968162 L70.5176211,9.77968162 L70.5176211,25.4897671 Z" id="Shape"></path>
                    <path d="M238.378087,118.230667 L223.704919,118.230667 C222.728189,118.230667 221.93608,117.437491 221.93608,116.457145 L221.93608,101.768062 C221.93608,100.788483 222.728189,99.9945406 223.704919,99.9945406 L238.378087,99.9945406 C239.35635,99.9945406 240.146927,100.790017 240.146927,101.768062 L240.146927,116.457145 C240.146927,117.437491 239.357116,118.230667 238.378087,118.230667 Z M225.473758,114.685925 L236.609248,114.685925 L236.609248,103.541583 L225.473758,103.541583 L225.473758,114.685925 Z" id="Shape"></path>
                    <path d="M301.271085,26.1717137 L279.139528,26.1717137 C278.161265,26.1717137 277.370688,25.3762372 277.370688,24.3981923 L277.370688,2.24144872 C277.370688,1.26340385 278.161265,0.470228632 279.139528,0.470228632 L301.271085,0.470228632 C302.249347,0.470228632 303.039924,1.26340385 303.039924,2.24144872 L303.039924,24.3981923 C303.039924,25.3785385 302.250113,26.1717137 301.271085,26.1717137 Z M280.909133,22.6269722 L299.500713,22.6269722 L299.500713,4.0126688 L280.909133,4.0126688 L280.909133,22.6269722 Z" id="Shape"></path>
                    <path d="M60.1221477,206.731838 L52.5641712,206.731838 C51.5859089,206.731838 50.795332,205.938662 50.795332,204.960618 L50.795332,197.392468 C50.795332,196.412889 51.5859089,195.618947 52.5641712,195.618947 L60.1221477,195.618947 C61.10041,195.618947 61.8909869,196.412122 61.8909869,197.392468 L61.8909869,204.960618 C61.8932851,205.937895 61.10041,206.731838 60.1221477,206.731838 Z M54.3345425,203.187096 L58.3525424,203.187096 L58.3525424,199.165222 L54.3345425,199.165222 L54.3345425,203.187096 Z" id="Shape"></path>
                    <path d="M129.188846,177.418107 L117.463487,177.418107 C116.485225,177.418107 115.694648,176.624932 115.694648,175.646887 L115.694648,163.903444 C115.694648,162.9254 116.485225,162.132224 117.463487,162.132224 L129.188846,162.132224 C130.167108,162.132224 130.957685,162.927701 130.957685,163.903444 L130.957685,175.646887 C130.957685,176.624932 130.167108,177.418107 129.188846,177.418107 Z M119.230028,173.875667 L127.417708,173.875667 L127.417708,165.679267 L119.230028,165.679267 L119.230028,173.875667 Z" id="Shape"></path>
                    <path d="M20.1658395,171.549071 L1.76883921,171.549071 C0.790576902,171.549071 0,170.755128 0,169.777083 L0,151.355321 C0,150.377276 0.790576902,149.5841 1.76883921,149.5841 L20.1658395,149.5841 C21.1441018,149.5841 21.9346787,150.377276 21.9346787,151.355321 L21.9346787,169.777083 C21.9369769,170.755128 21.1448679,171.549071 20.1658395,171.549071 Z M3.53997661,168.004329 L18.3992985,168.004329 L18.3992985,153.126541 L3.53997661,153.126541 L3.53997661,168.004329 Z" id="Shape"></path>
                    <path d="M332.568584,187.955677 L311.525602,187.955677 C310.54734,187.955677 309.756763,187.162502 309.756763,186.182156 L309.756763,165.11085 C309.756763,164.131271 310.54734,163.337329 311.525602,163.337329 L332.568584,163.337329 C333.546846,163.337329 334.337423,164.130504 334.337423,165.11085 L334.337423,186.179855 C334.337423,187.160968 333.547612,187.955677 332.568584,187.955677 Z M313.295208,184.4071 L330.800511,184.4071 L330.800511,166.886673 L313.295208,166.886673 L313.295208,184.4071 Z" id="Shape"></path>
                    <path d="M169.062419,268.73528 L152.849464,268.73528 C151.871202,268.73528 151.080625,267.942105 151.080625,266.96406 L151.080625,250.731583 C151.080625,249.752004 151.871202,248.958062 152.849464,248.958062 L169.062419,248.958062 C170.040681,248.958062 170.831258,249.751237 170.831258,250.731583 L170.831258,266.96406 C170.831258,267.942105 170.040681,268.73528 169.062419,268.73528 Z M154.619069,265.190538 L167.29358,265.190538 L167.29358,252.506639 L154.619069,252.506639 L154.619069,265.190538 Z" id="Shape"></path>
                    <path d="M120.39904,358.530538 L96.0796076,358.530538 C95.1013453,358.530538 94.3107684,357.737363 94.3107684,356.760853 L94.3107684,332.41022 C94.3107684,331.430641 95.1013453,330.636699 96.0796076,330.636699 L120.399806,330.636699 C121.378068,330.636699 122.168645,331.429874 122.168645,332.41022 L122.168645,356.760853 C122.167879,357.736596 121.378068,358.530538 120.39904,358.530538 Z M97.8484468,354.987331 L118.628669,354.987331 L118.628669,334.18144 L97.8484468,334.18144 L97.8484468,354.987331 Z" id="Shape"></path>
                    <path d="M238.378087,272.894464 L230.07703,272.894464 C229.1003,272.894464 228.309723,272.098987 228.309723,271.120942 L228.309723,262.808712 C228.309723,261.830667 229.1003,261.037491 230.07703,261.037491 L238.378087,261.037491 C239.35635,261.037491 240.146927,261.830667 240.146927,262.808712 L240.146927,271.120942 C240.146927,272.097453 239.357116,272.894464 238.378087,272.894464 Z M231.845869,269.348188 L236.609248,269.348188 L236.609248,264.579932 L231.845869,264.579932 L231.845869,269.348188 Z" id="Shape"></path>
                    <path d="M330.540815,346.356756 L318.381865,346.356756 C317.403603,346.356756 316.613026,345.563581 316.613026,344.583235 L316.613026,332.41022 C316.613026,331.430641 317.403603,330.636699 318.381865,330.636699 L330.540815,330.636699 C331.519078,330.636699 332.309655,331.429874 332.309655,332.41022 L332.309655,344.583235 C332.309655,345.56128 331.519844,346.356756 330.540815,346.356756 Z M320.150704,342.808179 L328.771976,342.808179 L328.771976,334.18144 L320.150704,334.18144 L320.150704,342.808179 Z" id="Shape"></path>
                </g>
            </g>
            <g id="Group-3" transform="translate(236.000000, 377.000000)">
                <rect id="Rectangle" fill="#00A6E2" x="3.46153846" y="1.15384615" width="10.815904" height="10.8472149"></rect>
                <path d="M12.5421364,14.3087533 L1.71197641,14.3087533 C0.76516226,14.3087533 -1.25055521e-12,13.5414111 -1.25055521e-12,12.5952203 L-1.25055521e-12,1.7566971 C-1.25055521e-12,0.810506274 0.76516226,0.0431640652 1.71197641,0.0431640652 L12.5421364,0.0431640652 C13.4889506,0.0431640652 14.2541128,0.810506274 14.2541128,1.7566971 L14.2541128,12.5952203 C14.2541128,13.540669 13.4889506,14.3087533 12.5421364,14.3087533 Z M3.42395282,10.8794609 L10.8286771,10.8794609 L10.8286771,3.47245647 L3.42395282,3.47245647 L3.42395282,10.8794609 Z" id="Shape" fill="#232E38" fill-rule="nonzero"></path>
            </g>
        </g>
    </g>
</svg>