<?xml version="1.0" encoding="UTF-8"?>
<svg width="369px" height="512px" viewBox="0 0 369 512" version="1.1" xmlns="http://www.w3.org/2000/svg" xmlns:xlink="http://www.w3.org/1999/xlink">
    <!-- Generator: Sketch 52.1 (67048) - http://www.bohemiancoding.com/sketch -->
    <title>Group 15</title>
    <desc>Created with Sketch.</desc>
    <g id="Sitemap" stroke="none" stroke-width="1" fill="none" fill-rule="evenodd">
        <g id="Topaz-ContentMockup-Rough-Desktop-v1.1-Copy-3" transform="translate(-988.000000, -2245.000000)">
            <g id="Group-15" transform="translate(987.000000, 2245.000000)">
                <polygon id="Fill-1" fill="#EDF0F0" points="99.5878 278.6352 234.2338 356.3712 234.2938 356.3712 368.9278 278.6352 234.2338 200.8932"></polygon>
                <polygon id="Fill-2" fill="#023552" points="234.2908 356.3736 234.2308 356.3736 234.2308 511.9236 368.9308 434.1216 368.9308 278.6376"></polygon>
                <polygon id="Fill-3" fill="#00A6E2" points="99.5878 434.1228 234.2338 511.9248 234.2338 356.3748 99.5878 278.6328"></polygon>
                <polygon id="Fill-4" fill="#EDF0F0" points="233.6644 0.0006 99.3064 78.2286 234.2284 155.4846 234.2884 155.4846 368.6404 77.2506"></polygon>
                <polygon id="Fill-5" fill="#023552" points="234.2908 155.4828 234.2308 155.4828 234.8008 311.0268 369.2128 232.7328 368.6428 77.2488"></polygon>
                <polygon id="Fill-6" fill="#00A6E2" points="234.2302 155.4828 234.8002 311.0328 99.8722 233.7168 99.3082 78.2328"></polygon>
                <polygon id="Fill-7" fill="#023552" points="234.3712 155.6676 234.6532 233.4396 167.1952 194.7876 166.9072 117.0396"></polygon>
                <polygon id="Fill-8" fill="#00A6E2" points="234.2596 155.442 233.9776 233.214 301.4356 194.562 301.7236 116.22"></polygon>
                <polygon id="Fill-9" fill="#EDF0F0" points="301.8358 194.2662 234.6598 233.3862 234.6238 233.3862 167.1658 194.7582 234.3418 155.6442"></polygon>
                <polyline id="Fill-10" fill="#023552" points="234.6232 155.9136 167.1652 117.2856 234.3412 78.1716"></polyline>
                <polyline id="Fill-11" fill="#00A6E2" points="234.3418 78.1716 301.8358 116.7936 234.6598 155.9136 234.6238 155.9136"></polyline>
                <polygon id="Fill-12" fill="#EDF0F0" points="1 385.2636 68.464 423.8856 68.494 423.8856 135.67 384.7656 68.176 346.1376"></polygon>
                <polygon id="Fill-13" fill="#023552" points="135.67 384.7692 135.958 462.5112 68.746 501.6552 68.464 423.8892 68.494 423.8892"></polygon>
                <polygon id="Fill-14" fill="#00A6E2" points="1.2862 463.002 68.7442 501.654 68.4622 423.882 0.9982 385.266"></polygon>
            </g>
        </g>
        <g id="Page"></g>
    </g>
</svg>