<?xml version="1.0" encoding="UTF-8"?>
<svg width="1620px" height="1786px" viewBox="0 0 1620 1786" version="1.1" xmlns="http://www.w3.org/2000/svg" xmlns:xlink="http://www.w3.org/1999/xlink">
    <!-- Generator: Sketch 52.1 (67048) - http://www.bohemiancoding.com/sketch -->
    <title>geo-bg-shape-01</title>
    <desc>Created with Sketch.</desc>
    <defs>
        <polygon id="path-1" points="0 0.935853153 237.630766 0.935853153 237.630766 230.8975 0 230.8975"></polygon>
        <polygon id="path-3" points="0 0.000144752564 238.000282 0.000144752564 238.000282 401 0 401"></polygon>
        <polygon id="path-5" points="-9.82461073e-05 0 379.000576 0 379.000576 574 -9.82461073e-05 574"></polygon>
        <polygon id="path-7" points="0 0.000308184932 149.999922 0.000308184932 149.999922 226 0 226"></polygon>
        <polygon id="path-9" points="0.0536346361 0.171079051 538.167 0.171079051 538.167 553.7412 0.0536346361 553.7412"></polygon>
    </defs>
    <g id="Page-1" stroke="none" stroke-width="1" fill="none" fill-rule="evenodd" opacity="0.118373326">
        <g id="geo-bg-shape-01">
            <path d="M235.5402,874 C235.2162,874 234.8982,873.923 234.6052,873.764 L142.9942,823.033 C142.3422,822.673 141.9622,821.976 142.0032,821.236 C142.0492,820.492 142.5122,819.845 143.2002,819.568 L259.3422,772.137 C260.0092,771.875 260.7852,771.988 261.3342,772.476 C261.8842,772.948 262.1212,773.687 261.9402,774.396 L237.4102,872.547 C237.2662,873.122 236.8602,873.605 236.3052,873.846 C236.0592,873.949 235.8022,874 235.5402,874 Z M148.3772,821.606 L234.2822,869.181 L257.2822,777.142 L148.3772,821.606 Z" id="Fill-1" fill="#595959" fill-rule="nonzero"></path>
            <path d="M143.9377,823 C143.3187,823 142.7197,822.696 142.3437,822.165 C141.8327,821.423 141.8947,820.423 142.5137,819.753 L283.6377,666.627 C284.2317,665.978 285.1967,665.813 285.9657,666.225 C286.7447,666.638 287.1467,667.514 286.9507,668.369 L262.5107,773.879 C262.3717,774.492 261.9427,774.997 261.3597,775.234 L144.6657,822.845 C144.4337,822.954 144.1857,823 143.9377,823 Z M281.5277,674.626 L151.2347,815.996 L258.9707,772.034 L281.5277,674.626 Z" id="Fill-3" fill="#595959" fill-rule="nonzero"></path>
            <path d="M260.9333,776 C260.6753,776 260.4173,775.943 260.1703,775.84 C259.3083,775.47 258.8393,774.544 259.0503,773.628 L283.4743,668.304 C283.5563,667.939 283.7423,667.615 284.0053,667.353 L408.7163,546.547 C409.4233,545.863 410.5423,545.812 411.2953,546.444 C412.0583,547.072 412.2243,548.168 411.6823,548.991 L262.5473,775.13 C262.1813,775.681 261.5673,776 260.9333,776 Z M287.1103,669.724 L265.2503,764.012 L398.7463,561.586 L287.1103,669.724 Z" id="Fill-5" fill="#595959" fill-rule="nonzero"></path>
            <path d="M260.9304,776 C260.3634,776 259.8064,775.753 259.4304,775.29 C258.9054,774.637 258.8534,773.715 259.3174,773.005 L408.3344,546.868 C408.7524,546.24 409.4944,545.916 410.2424,546.019 L717.3634,592.897 C718.2234,593.025 718.8934,593.72 718.9864,594.59 C719.0904,595.454 718.5904,596.277 717.7754,596.602 L261.6414,775.861 C261.4094,775.959 261.1674,776 260.9304,776 Z M410.8804,550.022 L265.8984,770.047 L709.6944,595.629 L410.8804,550.022 Z" id="Fill-7" fill="#595959" fill-rule="nonzero"></path>
            <path d="M716.9699,596 C716.8769,596 716.7749,595.989 716.6819,595.974 L409.6409,548.918 C409.0849,548.835 408.6009,548.515 408.3019,548.045 C408.0029,547.57 407.9209,546.992 408.0799,546.455 L439.3979,440.387 C439.5679,439.824 439.9799,439.364 440.5159,439.142 C441.0669,438.925 441.6759,438.956 442.1849,439.24 L717.6089,592.204 C718.4119,592.441 718.9999,593.18 718.9999,594.063 C718.9999,595.147 718.0729,596.015 717.0219,596 L716.9699,596 Z M412.4129,545.427 L706.5929,590.51 L442.4169,443.8 L412.4129,545.427 Z" id="Fill-9" fill="#595959" fill-rule="nonzero"></path>
            <g id="Group-13" transform="translate(0.000000, 819.000000)">
                <g id="Fill-11-Clipped">
                    <mask id="mask-2" fill="white">
                        <use xlink:href="#path-1"></use>
                    </mask>
                    <g id="path-1"></g>
                    <path d="M1.9338,230.8975 C1.4598,230.8975 0.9918,230.7275 0.6258,230.3925 C-0.0642,229.7585 -0.1982,228.7285 0.2958,227.9455 L142.2318,1.8425 C142.7728,0.9775 143.8998,0.6785 144.8008,1.1775 L236.6378,52.1065 C237.2088,52.4165 237.5798,53.0085 237.6258,53.6635 C237.6728,54.3075 237.3838,54.9455 236.8588,55.3375 L3.0868,230.5215 C2.7418,230.7685 2.3348,230.8975 1.9338,230.8975 Z M144.5278,5.4495 L9.0958,221.1855 L232.1578,54.0395 L144.5278,5.4495 Z" id="Fill-11" fill="#595959" fill-rule="nonzero" mask="url(#mask-2)"></path>
                </g>
            </g>
            <g id="Group-16" transform="translate(0.000000, 871.000000)">
                <g id="Fill-14-Clipped">
                    <mask id="mask-4" fill="white">
                        <use xlink:href="#path-3"></use>
                    </mask>
                    <g id="path-3"></g>
                    <path d="M148.0544,401 C147.4094,401 146.8014,400.676 146.4404,400.135 L0.3194,178.204 C-0.2426,177.354 -0.0466,176.21 0.7784,175.592 L234.9074,0.385 C235.5564,-0.105 236.4384,-0.125 237.1144,0.313 C237.7894,0.75 238.1304,1.565 237.9544,2.354 L149.9414,399.49 C149.7714,400.242 149.1684,400.825 148.4054,400.969 C148.2864,400.995 148.1734,401 148.0544,401 Z M4.5484,177.602 L147.1524,394.188 L233.0504,6.604 L4.5484,177.602 Z" id="Fill-14" fill="#595959" fill-rule="nonzero" mask="url(#mask-4)"></path>
                </g>
            </g>
            <path d="M147.9343,1272 C147.5273,1272 147.1253,1271.871 146.7853,1271.624 C146.1713,1271.176 145.8773,1270.393 146.0483,1269.655 L234.0133,872.52 C234.2143,871.603 234.8903,871.036 235.9673,871 L813.1303,890.36 C813.9903,890.391 814.7323,890.989 814.9443,891.829 C815.1503,892.664 814.7743,893.545 814.0173,893.973 L148.8833,1271.753 C148.5893,1271.912 148.2593,1272 147.9343,1272 Z M237.4413,874.921 L150.7643,1266.238 L806.1563,893.993 L237.4413,874.921 Z" id="Fill-17" fill="#595959" fill-rule="nonzero"></path>
            <path d="M813.0676,894 C813.0676,894 813.0056,893.99 812.9696,894 L812.9026,894 L235.8656,874.602 C235.2786,874.582 234.7426,874.303 234.3916,873.833 C234.0366,873.368 233.9176,872.769 234.0566,872.206 L258.6746,773.471 C258.9216,772.454 259.9366,771.83 260.9466,772.041 L813.1916,890.133 C814.1966,890.195 815.0006,891.036 815.0006,892.064 C815.0006,893.127 814.1336,894 813.0676,894 Z M238.3856,870.817 L791.2326,889.399 L261.9676,776.223 L238.3856,870.817 Z" id="Fill-19" fill="#595959" fill-rule="nonzero"></path>
            <path d="M812.9709,893.9941 C812.8369,893.9941 812.7029,893.9791 812.5699,893.9531 L260.5269,776.1761 C259.6919,775.9901 259.0739,775.2951 259.0069,774.4461 C258.9349,773.6011 259.4289,772.8041 260.2219,772.4901 L715.9809,593.1341 C716.4809,592.9381 717.0319,592.9581 717.5159,593.1851 C717.9989,593.4111 718.3599,593.8281 718.5299,594.3331 L814.6399,890.9411 C814.8669,891.2561 814.9999,891.6411 814.9999,892.0641 C814.9999,893.1451 814.2429,894.0821 813.0179,893.9941 L812.9709,893.9941 Z M267.6019,773.7351 L810.1029,889.4741 L715.4869,597.4781 L267.6019,773.7351 Z" id="Fill-21" fill="#595959" fill-rule="nonzero"></path>
            <path d="M812.9348,894 C812.3108,894 811.7238,893.701 811.3578,893.191 C810.9758,892.65 810.8938,891.96 811.1408,891.347 L939.8348,572.208 C940.1548,571.43 940.9168,570.961 941.7788,571.002 C942.6188,571.064 943.3198,571.672 943.5098,572.491 L1015.9508,881.412 C1016.0798,881.968 1015.9558,882.56 1015.6108,883.014 C1015.2648,883.472 1014.7338,883.75 1014.1618,883.776 L813.0278,893.99 C813.0278,893.99 812.9658,894 812.9348,894 Z M941.1388,579.311 L815.8578,889.987 L1011.6568,880.036 L941.1388,579.311 Z" id="Fill-23" fill="#595959" fill-rule="nonzero"></path>
            <path d="M813.3342,894 L813.2682,894 C812.4522,893.964 811.7462,893.434 811.4932,892.656 L715.0942,595.367 C714.9132,594.811 714.9962,594.203 715.3202,593.713 C715.6352,593.224 716.1662,592.91 716.7492,592.854 L941.8772,571.015 C942.5582,570.927 943.2082,571.236 943.6152,571.777 C944.0182,572.323 944.1152,573.029 943.8572,573.657 L815.1292,892.79 C814.8292,893.516 814.1232,894 813.3342,894 Z M719.5132,596.464 L813.5302,886.408 L939.0832,575.166 L719.5132,596.464 Z" id="Fill-25" fill="#595959" fill-rule="nonzero"></path>
            <path d="M147.9338,1272 C147.1038,1272 146.3558,1271.469 146.0988,1270.675 C145.8088,1269.792 146.1758,1268.844 146.9748,1268.39 L812.3538,890.248 C813.0608,889.856 813.9368,889.933 814.5508,890.449 L1132.3048,1156.037 C1132.9028,1156.532 1133.1398,1157.337 1132.9178,1158.079 C1132.6968,1158.817 1132.0568,1159.358 1131.2898,1159.441 L148.1508,1271.995 C148.0788,1272 148.0058,1272 147.9338,1272 Z M813.1018,894.276 L157.1218,1267.069 L1126.3698,1156.114 L813.1018,894.276 Z" id="Fill-27" fill="#595959" fill-rule="nonzero"></path>
            <path d="M1130.967,1158.9941 C1130.529,1158.9941 1130.089,1158.8451 1129.729,1158.5401 L811.696,892.6741 C811.082,892.1631 810.845,891.3271 811.104,890.5781 C811.356,889.8191 812.042,889.2971 812.837,889.2561 L1014.203,879.0121 C1014.967,878.9131 1015.772,879.4401 1016.086,880.1941 L1132.541,1155.8081 C1132.83,1156.1441 1133,1156.5831 1133,1157.0571 C1133,1158.1471 1132.257,1159.0821 1131.019,1158.9941 L1130.967,1158.9941 Z M817.967,892.8701 L1126.074,1150.4431 L1013.052,882.9521 L817.967,892.8701 Z" id="Fill-29" fill="#595959" fill-rule="nonzero"></path>
            <path d="M1252.0667,1164 L1252.0257,1164 L1130.3447,1159.749 C1129.5977,1159.723 1128.9277,1159.264 1128.6337,1158.567 L1012.1527,882.687 C1011.7817,881.81 1012.1067,880.783 1012.9157,880.288 C1013.7297,879.792 1014.7807,879.947 1015.4047,880.674 L1253.5407,1160.812 C1254.0357,1161.399 1254.1427,1162.22 1253.8027,1162.911 C1253.4837,1163.572 1252.8087,1164 1252.0667,1164 Z M1131.7157,1155.926 L1247.7587,1159.98 L1020.6087,892.768 L1131.7157,1155.926 Z" id="Fill-31" fill="#595959" fill-rule="nonzero"></path>
            <path d="M143.9348,823 C143.5738,823 143.2178,822.902 142.8928,822.701 C142.1028,822.186 141.7878,821.197 142.1488,820.332 L238.9298,586.194 C239.2188,585.509 239.8738,585.046 240.6178,585.004 C241.3658,584.953 242.0628,585.354 242.4188,586.009 L286.7628,667.107 C287.1608,667.833 287.0518,668.735 286.4848,669.343 L145.3588,822.377 C144.9768,822.784 144.4608,823 143.9348,823 Z M240.9628,591.412 L149.8698,811.787 L282.7018,667.741 L240.9628,591.412 Z" id="Fill-33" fill="#595959" fill-rule="nonzero"></path>
            <path d="M285.2795,670 C285.1865,670 285.0835,669.99 284.9905,669.974 C284.3915,669.887 283.8705,669.521 283.5815,668.994 L239.2315,587.771 C238.9475,587.239 238.9225,586.605 239.1705,586.053 C239.4125,585.501 239.8975,585.099 240.4915,584.959 L409.6205,545.052 C410.4625,544.851 411.3445,545.248 411.7625,546.006 C412.1805,546.77 412.0365,547.719 411.4115,548.322 L286.6265,669.453 C286.2655,669.804 285.7795,670 285.2795,670 Z M243.8515,588.142 L285.7595,664.903 L403.6905,550.427 L243.8515,588.142 Z" id="Fill-35" fill="#595959" fill-rule="nonzero"></path>
            <path d="M240.9318,589 C240.1948,589 239.4998,588.571 239.1748,587.873 C238.7938,587.031 239.0518,586.039 239.7928,585.496 L439.9318,439.37 C440.6068,438.884 441.5078,438.874 442.1828,439.354 C442.8578,439.835 443.1568,440.693 442.9198,441.489 L411.6078,547.632 C411.4118,548.299 410.8758,548.811 410.2018,548.966 L241.3748,588.948 C241.2308,588.979 241.0808,589 240.9318,589 Z M437.5978,445.867 L249.8288,582.963 L408.2228,545.457 L437.5978,445.867 Z" id="Fill-37" fill="#595959" fill-rule="nonzero"></path>
            <path d="M717.0646,596 C716.7446,596 716.4186,595.917 716.1256,595.758 L440.0026,443.157 C439.3726,442.802 438.9806,442.138 439.0016,441.423 C439.0166,440.702 439.4346,440.054 440.0796,439.735 L707.0636,308.201 C707.6466,307.908 708.3486,307.938 708.9116,308.273 C709.4736,308.618 709.8296,309.215 709.8556,309.869 L718.9996,594.003 C719.0196,594.703 718.6686,595.352 718.0706,595.712 C717.7656,595.902 717.4106,596 717.0646,596 Z M445.1056,441.562 L715.0206,590.729 L706.0786,312.993 L445.1056,441.562 Z" id="Fill-39" fill="#595959" fill-rule="nonzero"></path>
            <path d="M440.9358,443 C440.5178,443 440.0998,442.861 439.7588,442.598 C439.1748,442.149 438.8958,441.406 439.0358,440.685 L472.0018,275.563 C472.1978,274.553 473.1638,273.852 474.1698,274.027 L708.3338,307.367 C709.1758,307.48 709.8358,308.135 709.9758,308.971 C710.1098,309.806 709.6818,310.636 708.9218,311.013 L441.7928,442.799 C441.5238,442.933 441.2298,443 440.9358,443 Z M475.4398,278.111 L443.6048,437.59 L701.5958,310.312 L475.4398,278.111 Z" id="Fill-41" fill="#595959" fill-rule="nonzero"></path>
            <path d="M717.0646,596 C716.5956,596 716.1476,595.825 715.7876,595.516 C715.3896,595.161 715.1476,594.662 715.1326,594.126 L706.0016,309.991 C705.9756,309.183 706.4606,308.436 707.2116,308.138 C707.9746,307.839 708.8406,308.035 709.3716,308.642 L943.5106,570.959 C943.9906,571.505 944.1346,572.267 943.8666,572.946 C943.5986,573.625 942.9746,574.094 942.2536,574.161 L717.2506,595.99 C717.1886,595.995 717.1266,596 717.0646,596 Z M710.0366,315.184 L718.9306,591.944 L938.0896,570.691 L710.0366,315.184 Z" id="Fill-43" fill="#595959" fill-rule="nonzero"></path>
            <path d="M707.9719,311 C707.8789,311 707.7909,310.995 707.6989,310.979 L473.6629,277.847 C472.6729,277.709 471.9609,276.848 472.0019,275.864 L474.0249,230.837 C474.0559,230.227 474.3599,229.674 474.8659,229.335 C475.3709,228.992 476.0009,228.91 476.5789,229.1 L708.3489,307.177 C709.2879,307.31 709.9999,308.115 709.9999,309.078 C709.9999,310.139 709.1329,311 708.0649,311 C708.0389,310.995 708.0029,310.995 707.9719,311 Z M475.9449,274.291 L687.6359,304.261 L477.7759,233.563 L475.9449,274.291 Z" id="Fill-45" fill="#595959" fill-rule="nonzero"></path>
            <path d="M707.9719,312 C707.7599,312 707.5539,311.964 707.3479,311.892 L475.3149,233.27 C474.5719,233.017 474.0559,232.342 474.0039,231.558 C473.9569,230.774 474.3909,230.037 475.0979,229.702 L653.1709,144.192 C653.6659,143.95 654.2549,143.935 654.7659,144.156 C655.2819,144.373 655.6739,144.801 655.8499,145.327 L709.6339,308.928 C709.8669,309.247 709.9999,309.639 709.9999,310.067 C709.9999,311.144 709.1689,311.99 708.0189,312 L707.9719,312 Z M481.0479,231.13 L704.9219,306.989 L652.8619,148.631 L481.0479,231.13 Z" id="Fill-47" fill="#595959" fill-rule="nonzero"></path>
            <g id="Group-51" transform="translate(706.000000, 0.000000)">
                <g id="Fill-49-Clipped">
                    <mask id="mask-6" fill="white">
                        <use xlink:href="#path-5"></use>
                    </mask>
                    <g id="path-5"></g>
                    <path d="M235.8039,574 C235.2579,574 234.7329,573.773 234.3629,573.356 L0.4909,310.723 C0.1349,310.331 -0.0351,309.811 0.0059,309.29 C0.0469,308.759 0.3049,308.275 0.7059,307.945 L375.8489,0.437 C376.5029,-0.089 377.4039,-0.146 378.1039,0.297 C378.8089,0.746 379.1439,1.591 378.9429,2.395 L237.6769,572.537 C237.5069,573.227 236.9619,573.773 236.2619,573.943 C236.1129,573.984 235.9579,574 235.8039,574 Z M4.7109,309.656 L234.8099,568.053 L373.7999,7.11 L4.7109,309.656 Z" id="Fill-49" fill="#595959" fill-rule="nonzero" mask="url(#mask-6)"></path>
                </g>
            </g>
            <path d="M707.1359,312.0327 C706.9549,312.0327 706.7749,312.0067 706.5949,311.9497 C705.9869,311.7747 705.4969,311.3047 705.3009,310.7007 L651.4219,146.3757 C651.0869,145.3647 651.6389,144.2757 652.6439,143.9347 L1082.0689,0.2757 C1082.9399,-0.0243 1083.9239,0.3577 1084.3719,1.1737 C1084.8209,1.9887 1084.6239,3.0157 1083.9089,3.6097 L708.3629,311.5947 C708.0119,311.8777 707.5729,312.0327 707.1359,312.0327 Z M655.6939,146.9947 L708.0939,306.8097 L1073.3289,7.2837 L655.6939,146.9947 Z" id="Fill-52" fill="#595959" fill-rule="nonzero"></path>
            <path d="M1127.8596,1708 C1127.5906,1708 1127.3176,1707.943 1127.0646,1707.83 L147.1426,1271.119 C146.3486,1270.773 145.8896,1269.929 146.0236,1269.063 C146.1576,1268.203 146.8486,1267.538 147.7146,1267.44 L1130.8496,1155.013 C1131.3906,1154.95 1131.9486,1155.121 1132.3606,1155.491 C1132.7676,1155.857 1133.0056,1156.389 1133.0006,1156.944 L1129.7936,1706.078 C1129.7876,1706.732 1129.4526,1707.335 1128.9066,1707.686 C1128.5866,1707.896 1128.2196,1708 1127.8596,1708 Z M155.1866,1270.475 L1125.9416,1703.095 L1129.1226,1159.099 L155.1866,1270.475 Z" id="Fill-54" fill="#595959" fill-rule="nonzero"></path>
            <g id="Group-58" transform="translate(0.000000, 1046.000000)">
                <g id="Fill-56-Clipped">
                    <mask id="mask-8" fill="white">
                        <use xlink:href="#path-7"></use>
                    </mask>
                    <g id="path-7"></g>
                    <path d="M148.0642,226 C147.9142,226 147.7652,225.979 147.6152,225.948 L88.0802,211.584 C87.4762,211.439 86.9812,211.021 86.7442,210.449 L0.1472,2.684 C-0.2338,1.76 0.1472,0.697 1.0292,0.229 C1.9112,-0.246 3.0052,0.043 3.5512,0.873 L149.6832,223.003 C150.1162,223.663 150.1062,224.53 149.6472,225.18 C149.2812,225.701 148.6882,226 148.0642,226 Z M89.9362,208.056 L143.7572,221.038 L11.6592,20.23 L89.9362,208.056 Z" id="Fill-56" fill="#595959" fill-rule="nonzero" mask="url(#mask-8)"></path>
                </g>
            </g>
            <g id="Group-61" transform="translate(1081.000000, 0.000000)">
                <g id="Fill-59-Clipped">
                    <mask id="mask-10" fill="white">
                        <use xlink:href="#path-9"></use>
                    </mask>
                    <g id="path-9"></g>
                    <path d="M408.3303,553.7412 C407.7233,553.7412 407.1453,553.4522 406.7853,552.9572 L0.4333,3.2552 C-0.1127,2.5172 -0.0667,1.4912 0.5513,0.8102 C1.1693,0.1242 2.1793,-0.0258 2.9723,0.4392 L537.2233,317.5832 C538.1193,318.1192 538.4283,319.2702 537.9283,320.1822 L410.0303,552.7412 C409.7113,553.3182 409.1183,553.6952 408.4653,553.7362 C408.4183,553.7362 408.3773,553.7412 408.3303,553.7412 Z M9.2303,8.6552 L408.0993,548.2332 L533.6433,319.9562 L9.2303,8.6552 Z" id="Fill-59" fill="#595959" fill-rule="nonzero" mask="url(#mask-10)"></path>
                </g>
            </g>
            <path d="M941.9328,574 C941.3558,574 940.7978,573.742 940.4328,573.294 C940.0508,572.82 939.9068,572.196 940.0618,571.609 L1081.5318,1.464 C1081.7118,0.738 1082.2948,0.181 1083.0318,0.037 C1083.7588,-0.107 1084.5168,0.176 1084.9598,0.779 L1491.6228,550.047 C1492.0508,550.625 1492.1178,551.393 1491.8088,552.037 C1491.4988,552.681 1490.8548,553.103 1490.1378,553.129 L942.0048,574 L941.9328,574 Z M1084.2948,6.381 L944.4278,570.042 L1486.3338,549.408 L1084.2948,6.381 Z" id="Fill-62" fill="#595959" fill-rule="nonzero"></path>
            <path d="M1182.5061,1786 C1181.8871,1786 1181.2951,1785.712 1180.9241,1785.186 L1126.3561,1708.046 C1125.8761,1707.376 1125.8811,1706.465 1126.3761,1705.79 C1126.8651,1705.12 1127.7261,1704.837 1128.5251,1705.094 L1184.6591,1723.094 C1185.4791,1723.347 1186.0201,1724.119 1185.9991,1724.979 L1184.4381,1784.125 C1184.4121,1784.949 1183.8561,1785.681 1183.0631,1785.918 C1182.8771,1785.979 1182.6921,1786 1182.5061,1786 Z M1132.8541,1710.534 L1180.7231,1778.211 L1182.0991,1726.324 L1132.8541,1710.534 Z" id="Fill-64" fill="#595959" fill-rule="nonzero"></path>
            <path d="M1183.7717,1727 C1183.5717,1727 1183.3767,1726.969 1183.1817,1726.902 L1127.3327,1708.891 C1126.4157,1708.602 1125.8617,1707.663 1126.0307,1706.709 L1202.1887,1278.598 C1202.3627,1277.592 1203.3007,1276.891 1204.2907,1277.014 C1205.2947,1277.133 1206.0487,1278.01 1205.9987,1279.025 L1185.6897,1725.154 C1185.6637,1725.758 1185.3557,1726.309 1184.8697,1726.654 C1184.5417,1726.876 1184.1567,1727 1183.7717,1727 Z M1130.1117,1705.729 L1181.9617,1722.447 L1200.8197,1308.237 L1130.1117,1705.729 Z" id="Fill-66" fill="#595959" fill-rule="nonzero"></path>
            <path d="M1127.9231,1708 C1127.8611,1708 1127.8051,1707.99 1127.7481,1707.99 C1126.7491,1707.902 1125.9951,1707.063 1126.0001,1706.058 L1129.1901,1156.921 C1129.1941,1156.056 1129.7691,1155.298 1130.6001,1155.071 C1131.4251,1154.84 1132.3121,1155.185 1132.7581,1155.932 L1205.7241,1277.279 C1205.9651,1277.687 1206.0521,1278.16 1205.9701,1278.624 L1129.8151,1706.402 C1129.6511,1707.335 1128.8411,1708 1127.9231,1708 Z M1132.9941,1163.795 L1129.9741,1683.557 L1202.0581,1278.665 L1132.9941,1163.795 Z" id="Fill-68" fill="#595959" fill-rule="nonzero"></path>
            <path d="M1204.55,1280 C1203.873,1280 1203.241,1279.65 1202.885,1279.063 L1129.279,1157.927 C1128.912,1157.325 1128.907,1156.559 1129.264,1155.951 C1129.621,1155.34 1130.324,1155.025 1131.007,1155 L1253.125,1159.238 C1253.762,1159.259 1254.346,1159.583 1254.693,1160.123 C1255.034,1160.652 1255.096,1161.316 1254.854,1161.897 L1206.34,1278.802 C1206.061,1279.48 1205.424,1279.943 1204.696,1279.995 C1204.644,1279.995 1204.597,1280 1204.55,1280 Z M1134.452,1158.98 L1204.219,1273.803 L1250.203,1162.987 L1134.452,1158.98 Z" id="Fill-70" fill="#595959" fill-rule="nonzero"></path>
            <path d="M1251.8167,1164 C1251.2547,1164 1250.7147,1163.758 1250.3387,1163.313 L1012.4597,883.164 C1012.0587,882.689 1011.9097,882.065 1012.0537,881.461 C1012.1877,880.863 1012.6047,880.373 1013.1607,880.13 L1331.3047,742.158 C1331.9627,741.875 1332.7197,741.978 1333.2817,742.427 C1333.8377,742.875 1334.0997,743.603 1333.9657,744.299 L1253.7107,1162.432 C1253.5667,1163.159 1253.0207,1163.742 1252.3047,1163.938 C1252.1407,1163.979 1251.9757,1164 1251.8167,1164 Z M1017.0927,882.643 L1250.6787,1157.741 L1329.4827,747.168 L1017.0927,882.643 Z" id="Fill-72" fill="#595959" fill-rule="nonzero"></path>
            <path d="M1014.3908,884 C1014.0918,884 1013.7878,883.923 1013.5198,883.789 C1013.0098,883.536 1012.6378,883.062 1012.5038,882.5 L940.0528,573.372 C939.8818,572.66 940.1348,571.913 940.7028,571.444 C941.2588,570.98 942.0428,570.867 942.7078,571.166 L1333.8448,742.476 C1334.5458,742.78 1335.0048,743.481 1334.9998,744.249 C1334.9998,745.017 1334.5408,745.713 1333.8398,746.017 L1015.1548,883.835 C1014.9118,883.943 1014.6488,884 1014.3908,884 Z M944.6988,576.253 L1015.7428,879.366 L1328.2248,744.233 L944.6988,576.253 Z" id="Fill-74" fill="#595959" fill-rule="nonzero"></path>
            <path d="M1332.9846,746 C1332.7206,746 1332.4586,745.954 1332.2116,745.84 L941.1576,574.573 C940.3326,574.212 939.8686,573.331 940.0336,572.445 C940.2036,571.559 940.9616,570.904 941.8636,570.874 L1489.9966,550.004 C1490.8156,549.953 1491.4606,550.391 1491.8006,551.076 C1492.1356,551.756 1492.0436,552.57 1491.5686,553.158 L1334.4846,745.299 C1334.1076,745.753 1333.5506,746 1332.9846,746 Z M950.4306,574.414 L1332.4176,741.708 L1485.8566,554.028 L950.4306,574.414 Z" id="Fill-76" fill="#595959" fill-rule="nonzero"></path>
        </g>
    </g>
</svg>