<?xml version="1.0" encoding="UTF-8"?>
<svg width="648px" height="648px" viewBox="0 0 648 648" version="1.1" xmlns="http://www.w3.org/2000/svg" xmlns:xlink="http://www.w3.org/1999/xlink">
    <!-- Generator: Sketch 52.1 (67048) - http://www.bohemiancoding.com/sketch -->
    <title>Fill 1 Copy</title>
    <desc>Created with Sketch.</desc>
    <defs>
        <linearGradient x1="37.5924116%" y1="14.0048607%" x2="13.7771055%" y2="85.8872193%" id="linearGradient-1">
            <stop stop-color="#00EAFF" offset="0%"></stop>
            <stop stop-color="#0064ED" offset="100%"></stop>
        </linearGradient>
    </defs>
    <g id="Sitemap" stroke="none" stroke-width="1" fill="none" fill-rule="evenodd">
        <g id="Page"></g>
        <path d="M568.77043,525 L555,417.992738 L641,352 L568.77043,525 Z M7,352 L93,417.992738 L79.2295697,525 L7,352 Z M79.2295697,123 L93,230.002563 L7,296 L79.2295697,123 Z M641,296 L555,230.002563 L568.77043,123 L641,296 Z M544.233988,342.851092 C543.407216,336.318335 543.02468,329.748249 543,323.178162 C543.02468,322.717759 543.02468,322.269798 543,321.796951 C543.02468,315.239308 543.407216,308.669221 544.233988,302.148908 L551.218357,247 L648,322.493778 L551.218357,398 L544.233988,342.851092 Z M494,444 L526.741916,361 L533,412.333383 L494,444 Z M417.992738,555 L525,568.768442 L352,641 L417.992738,555 Z M229.994945,555 L296,641 L123,568.768442 L229.994945,555 Z M121.246187,361 L154,444 L115,412.338147 L121.246187,361 Z M103.753673,302.053898 C104.580444,308.612082 104.97532,315.207598 105,321.81556 C104.97532,322.276001 104.97532,322.711554 105,323.171996 C104.97532,329.779957 104.580444,336.387918 103.753673,342.946102 L96.781643,398 L0,322.5 L96.781643,247 L103.753673,302.053898 Z M154,204 L121.248093,287 L115,235.663657 L154,204 Z M229.994945,93 L123,79.2191425 L296,7 L229.994945,93 Z M417.992738,93 L352,7 L525,79.2191425 L417.992738,93 Z M287,121.248093 L204,154 L235.663657,115 L287,121.248093 Z M412.336343,115 L444,154 L361,121.238095 L412.336343,115 Z M345.456194,103.778639 C339.096596,104.580543 332.699662,104.962989 326.302728,104.987663 C325.755131,104.950652 325.232424,104.950652 324.697272,105 C318.287893,104.962989 311.890959,104.580543 305.531361,103.778639 L250,96.7465633 L325.493777,0 L401,96.7465633 L345.456194,103.778639 Z M464.308642,462.294488 L325,520 L185.703704,462.294488 L128,322.993827 L185.703704,183.693166 L325,126 L464.308642,183.693166 L522,322.993827 L464.308642,462.294488 Z M361,526.753813 L444,494 L412.333383,533 L361,526.753813 Z M235.661853,533 L204,494 L287,526.755718 L235.661853,533 Z M305.439674,544.209024 C311.860969,543.40712 318.319598,543.024674 324.765782,543 C325.01467,543.012337 325.251113,543.148044 325.5,543.148044 C325.761332,543.148044 325.997775,543.012337 326.259107,543 C332.717735,543.024674 339.16392,543.40712 345.560326,544.209024 L401,551.228763 L325.5,648 L250,551.228763 L305.439674,544.209024 Z M526.751907,287 L494,204 L533,235.651166 L526.751907,287 Z M539.293615,216 L494.750508,181.548495 C489.68595,177.634404 484.896503,173.370171 480.344652,168.868341 C479.9695,168.418158 479.581842,168.0305 479.144164,167.667853 C474.642334,163.116002 470.378101,158.326556 466.451505,153.249492 L432,108.706385 L555,93 L539.293615,216 Z M93,93 L216,108.706385 L181.62702,153.149451 C177.663312,158.26403 173.362001,163.103497 168.810613,167.705368 C168.397987,168.043005 168.04788,168.405653 167.697774,168.805815 C163.108875,173.370171 158.257396,177.671919 153.130833,181.636031 L108.704788,216 L93,93 Z M108.706385,432 L152.799309,466.1104 C158.076454,470.186642 163.065982,474.612992 167.792904,479.301921 C168.080521,479.62702 168.368137,479.927112 168.705775,480.2147 C173.382676,484.941141 177.809475,489.917658 181.886133,495.194267 L216,539.295212 L93,555 L108.706385,432 Z M555,555 L432,539.295212 L466.363969,494.856664 C470.328081,489.730101 474.642334,484.891125 479.194185,480.289722 C479.606852,479.95212 479.956995,479.589509 480.307137,479.189387 C484.896503,474.637999 489.748475,470.336688 494.875559,466.37298 L539.293615,432 L555,555 Z" id="Fill-1-Copy" fill="url(#linearGradient-1)" opacity="0.332333519"></path>
    </g>
</svg>