<?xml version="1.0" encoding="UTF-8"?>
<svg width="352px" height="276px" viewBox="0 0 352 276" version="1.1" xmlns="http://www.w3.org/2000/svg" xmlns:xlink="http://www.w3.org/1999/xlink">
    <!-- Generator: Sketch 52.2 (67145) - http://www.bohemiancoding.com/sketch -->
    <title>Group</title>
    <desc>Created with Sketch.</desc>
    <defs>
        <linearGradient x1="47.9061022%" y1="68.1497856%" x2="67.7767649%" y2="24.5895735%" id="linearGradient-1">
            <stop stop-color="#00A6E2" offset="0%"></stop>
            <stop stop-color="#EDF0F0" offset="100%"></stop>
        </linearGradient>
    </defs>
    <g id="Page-1" stroke="none" stroke-width="1" fill="none" fill-rule="evenodd" opacity="0.5">
        <g id="Group" fill="url(#linearGradient-1)" fill-rule="nonzero">
            <g id="Shape">
                <path d="M48.52,78 C48.52,79.0162039 47.6962039,79.84 46.68,79.84 C45.6637961,79.84 44.84,79.0162039 44.84,78 C44.84,76.9837961 45.6637961,76.16 46.68,76.16 C47.6962039,76.16 48.52,76.9837961 48.52,78 Z M46.68,93.15 C45.9348818,93.150011 45.2633271,93.5994023 44.9791259,94.2881917 C44.6949248,94.9769811 44.8541889,95.7691763 45.3825007,96.2946168 C45.9108125,96.8200573 46.7038638,96.975002 47.3910942,96.6870515 C48.0783246,96.3991009 48.5240496,95.7251072 48.52,94.98 C48.5173551,94.4946516 48.3220108,94.0302332 47.9769423,93.6889155 C47.6318738,93.3475977 47.1653484,93.1573406 46.68,93.16 L46.68,93.15 Z M46.68,147.82 C45.6637961,147.82 44.84,148.643796 44.84,149.66 C44.84,150.676204 45.6637961,151.5 46.68,151.5 C47.6962039,151.5 48.52,150.676204 48.52,149.66 C48.5144983,148.647703 47.6923115,147.829985 46.68,147.83 L46.68,147.82 Z M15.34,89.15 C14.5948818,89.150011 13.9233271,89.5994023 13.6391259,90.2881917 C13.3549248,90.9769811 13.5141889,91.7691763 14.0425007,92.2946168 C14.5708125,92.8200573 15.3638638,92.975002 16.0510942,92.6870515 C16.7383246,92.3991009 17.1840496,91.7251072 17.18,90.98 C17.1690386,89.9716152 16.3484444,89.1599404 15.34,89.16 L15.34,89.15 Z M2.34,120.48 C1.32379606,120.48 0.5,121.303796 0.5,122.32 C0.5,123.336204 1.32379606,124.16 2.34,124.16 C3.35620394,124.16 4.18,123.336204 4.18,122.32 C4.16929424,121.317668 3.36225803,120.506198 2.36,120.49 L2.34,120.48 Z M15.34,151.82 C14.3237961,151.82 13.5,152.643796 13.5,153.66 C13.5,154.676204 14.3237961,155.5 15.34,155.5 C16.3562039,155.5 17.18,154.676204 17.18,153.66 C17.1744983,152.647703 16.3523115,151.829985 15.34,151.83 L15.34,151.82 Z M27.34,139.82 C26.3237961,139.82 25.5,140.643796 25.5,141.66 C25.5,142.676204 26.3237961,143.5 27.34,143.5 C28.3562039,143.5 29.18,142.676204 29.18,141.66 C29.174599,140.649932 28.3600239,139.830905 27.35,139.82 L27.34,139.82 Z M19.34,120.49 C18.3237961,120.49 17.5,121.313796 17.5,122.33 C17.5,123.346204 18.3237961,124.17 19.34,124.17 C20.3562039,124.17 21.18,123.346204 21.18,122.33 C21.1745339,121.316069 20.3539312,120.495466 19.34,120.49 Z M74.01,120.49 C72.9937961,120.49 72.17,121.313796 72.17,122.33 C72.17,123.346204 72.9937961,124.17 74.01,124.17 C75.0262039,124.17 75.85,123.346204 75.85,122.33 C75.8500072,121.840264 75.6547785,121.370731 75.3075458,121.025375 C74.960313,120.680019 74.4897287,120.487338 74,120.49 L74.01,120.49 Z M27.35,101.16 C26.3337961,101.16 25.51,101.983796 25.51,103 C25.51,104.016204 26.3337961,104.84 27.35,104.84 C28.3662039,104.84 29.19,104.016204 29.19,103 C29.1845339,101.986069 28.3639312,101.165466 27.35,101.16 Z M46.68,164.81 C45.6637961,164.81 44.84,165.633796 44.84,166.65 C44.84,167.666204 45.6637961,168.49 46.68,168.49 C47.6962039,168.49 48.52,167.666204 48.52,166.65 C48.52,165.633796 47.6962039,164.81 46.68,164.81 Z M78.01,151.81 C76.9937961,151.81 76.17,152.633796 76.17,153.65 C76.17,154.666204 76.9937961,155.49 78.01,155.49 C79.0262039,155.49 79.85,154.666204 79.85,153.65 C79.8473674,153.162904 79.6506491,152.696958 79.3034116,152.355351 C78.956174,152.013744 78.4870735,151.824669 78,151.83 L78.01,151.81 Z M66.01,139.81 C65.2648928,139.80595 64.5908991,140.251675 64.3029485,140.938906 C64.014998,141.626136 64.1699427,142.419188 64.6953832,142.947499 C65.2208237,143.475811 66.0130189,143.635075 66.7018083,143.350874 C67.3905977,143.066673 67.839989,142.395118 67.84,141.65 C67.8344983,140.637703 67.0123115,139.819985 66,139.82 L66.01,139.81 Z M91.01,120.48 C90.2648928,120.47595 89.5908991,120.921675 89.3029485,121.608906 C89.014998,122.296136 89.1699427,123.089188 89.6953832,123.617499 C90.2208237,124.145811 91.0130189,124.305075 91.7018083,124.020874 C92.3905977,123.736673 92.839989,123.065118 92.84,122.32 C92.8344983,121.307703 92.0123115,120.489985 91,120.49 L91.01,120.48 Z M78.01,89.15 C77.2648818,89.150011 76.5933271,89.5994023 76.3091259,90.2881917 C76.0249248,90.9769811 76.1841889,91.7691763 76.7125007,92.2946168 C77.2408125,92.8200573 78.0338638,92.975002 78.7210942,92.6870515 C79.4083246,92.3991009 79.8540496,91.7251072 79.85,90.98 C79.8473674,90.4929044 79.6506491,90.0269576 79.3034116,89.6853509 C78.956174,89.3437442 78.4870735,89.1546694 78,89.16 L78.01,89.15 Z M66.01,101.15 C65.2648928,101.14595 64.5908991,101.591675 64.3029485,102.278906 C64.014998,102.966136 64.1699427,103.759188 64.6953832,104.287499 C65.2208237,104.815811 66.0130189,104.975075 66.7018083,104.690874 C67.3905977,104.406673 67.839989,103.735118 67.84,102.99 C67.8344983,101.977703 67.0123115,101.159985 66,101.16 L66.01,101.15 Z M58.63,92.24 C57.9562126,92.24 57.41,92.7862126 57.41,93.46 C57.41,94.1337874 57.9562126,94.68 58.63,94.68 C59.3037874,94.68 59.85,94.1337874 59.85,93.46 C59.844509,92.7901211 59.2999014,92.2499775 58.63,92.25 L58.63,92.24 Z M34.72,92.24 C34.0462126,92.24 33.5,92.7862126 33.5,93.46 C33.5,94.1337874 34.0462126,94.68 34.72,94.68 C35.3937874,94.68 35.94,94.1337874 35.94,93.46 C35.934509,92.7901211 35.3899014,92.2499775 34.72,92.25 L34.72,92.24 Z M19,110.65 C19.004043,110.154759 18.7082917,109.706215 18.2515112,109.514823 C17.7947307,109.32343 17.2675701,109.427171 16.9173704,109.77737 C16.5671707,110.12757 16.4634299,110.654731 16.6548227,111.111511 C16.8462154,111.568292 17.2947593,111.864043 17.79,111.86 C18.4559995,111.854563 18.994563,111.315999 19,110.65 Z M19,134.28 C18.9999834,133.78565 18.7016463,133.340174 18.2445347,133.151942 C17.787423,132.96371 17.261904,133.069934 16.913787,133.420928 C16.5656699,133.771922 16.4637747,134.298298 16.6557624,134.753845 C16.8477501,135.209391 17.2956662,135.504052 17.79,135.5 C18.4598789,135.494509 19.0000225,134.949901 19,134.28 Z M34.72,150 C34.0915547,150.057072 33.6103404,150.583968 33.6103404,151.215 C33.6103404,151.846032 34.0915547,152.372928 34.72,152.43 C35.1803948,152.471811 35.6248737,152.249808 35.8679975,151.856613 C36.1111213,151.463418 36.1111213,150.966582 35.8679975,150.573387 C35.6248737,150.180192 35.1803948,149.958189 34.72,150 Z M57.44,151 C57.3823136,151.316137 57.4583574,151.642039 57.65,151.9 C57.8351908,152.164552 58.1207116,152.341647 58.44,152.39 C59.072395,152.439112 59.6369263,151.995432 59.7386654,151.369346 C59.8404045,150.743259 59.4454066,150.143656 58.83,149.99 L58.63,149.99 C58.3752244,149.991283 58.127134,150.07165 57.92,150.22 C57.6631721,150.406317 57.4905878,150.686766 57.44,151 Z M74.67,134.13 C74.562849,134.789406 75.0103713,135.410879 75.6697293,135.518323 C76.3290874,135.625767 76.9507598,135.178521 77.0584962,134.51921 C77.1662327,133.8599 76.7192624,133.238029 76.06,133.13 L75.86,133.13 C75.6083206,133.131362 75.3634401,133.211823 75.16,133.36 C74.8999989,133.540554 74.7234425,133.818 74.67,134.13 Z M74.34,110.45 C74.2916065,110.770427 74.3705745,111.097067 74.56,111.36 C74.7465746,111.622192 75.0306382,111.798461 75.3484072,111.849229 C75.6661762,111.899997 75.9910207,111.821008 76.25,111.63 C76.5120103,111.442418 76.6883755,111.158074 76.74,110.84 C76.7919389,110.523036 76.7157243,110.198427 76.5281496,109.937698 C76.3405749,109.676969 76.0570328,109.501517 75.74,109.45 L75.54,109.45 C74.9525101,109.453969 74.4498449,109.872857 74.34,110.45 Z M135.34,76.17 C134.323796,76.17 133.5,76.9937961 133.5,78.01 C133.5,79.0262039 134.323796,79.85 135.34,79.85 C136.356204,79.85 137.18,79.0262039 137.18,78.01 C137.18,77.5220017 136.986143,77.0539905 136.641076,76.7089235 C136.29601,76.3638566 135.827998,76.17 135.34,76.17 Z M135.34,93.17 C134.594882,93.170011 133.923327,93.6194023 133.639126,94.3081917 C133.354925,94.9969811 133.514189,95.7891763 134.042501,96.3146168 C134.570812,96.8400573 135.363864,96.995002 136.051094,96.7070515 C136.738325,96.4191009 137.18405,95.7451072 137.18,95 C137.182678,94.5111855 136.989682,94.0416164 136.644033,93.6959671 C136.298384,93.3503178 135.828815,93.1573215 135.34,93.16 L135.34,93.17 Z M135.34,147.84 C134.323796,147.84 133.5,148.663796 133.5,149.68 C133.5,150.696204 134.323796,151.52 135.34,151.52 C136.356204,151.52 137.18,150.696204 137.18,149.68 C137.185369,149.189459 136.993561,148.717302 136.647617,148.369478 C136.301673,148.021654 135.830563,147.82729 135.34,147.83 L135.34,147.84 Z M104,89.16 C103.254882,89.160011 102.583327,89.6094023 102.299126,90.2981917 C102.014925,90.9869811 102.174189,91.7791763 102.702501,92.3046168 C103.230812,92.8300573 104.023864,92.985002 104.711094,92.6970515 C105.398325,92.4091009 105.84405,91.7351072 105.84,90.99 C105.834498,89.9777035 105.012311,89.159985 104,89.16 Z M91,120.49 C90.2548928,120.48595 89.5808991,120.931675 89.2929485,121.618906 C89.004998,122.306136 89.1599427,123.099188 89.6853832,123.627499 C90.2108237,124.155811 91.0030189,124.315075 91.6918083,124.030874 C92.3805977,123.746673 92.829989,123.075118 92.83,122.33 C92.830015,121.317689 92.0122965,120.495502 91,120.49 Z M104,151.83 C102.983796,151.83 102.16,152.653796 102.16,153.67 C102.16,154.686204 102.983796,155.51 104,155.51 C105.016204,155.51 105.84,154.686204 105.84,153.67 C105.84,152.653796 105.016204,151.83 104,151.83 Z M116,139.83 C115.254893,139.82595 114.580899,140.271675 114.292949,140.958906 C114.004998,141.646136 114.159943,142.439188 114.685383,142.967499 C115.210824,143.495811 116.003019,143.655075 116.691808,143.370874 C117.380598,143.086673 117.829989,142.415118 117.83,141.67 C117.832659,141.181999 117.641349,140.712931 117.298156,140.365987 C116.954962,140.019043 116.488001,139.822645 116,139.82 L116,139.83 Z M108,120.5 C106.983796,120.5 106.16,121.323796 106.16,122.34 C106.16,123.356204 106.983796,124.18 108,124.18 C109.016204,124.18 109.84,123.356204 109.84,122.34 C109.840015,121.322166 109.017819,120.495502 108,120.49 L108,120.5 Z M162.67,120.5 C161.653796,120.5 160.83,121.323796 160.83,122.34 C160.83,123.356204 161.653796,124.18 162.67,124.18 C163.686204,124.18 164.51,123.356204 164.51,122.34 C164.510059,121.326033 163.693908,120.500962 162.68,120.49 L162.67,120.5 Z M116,101.16 C115.254893,101.15595 114.580899,101.601675 114.292949,102.288906 C114.004998,102.976136 114.159943,103.769188 114.685383,104.297499 C115.210824,104.825811 116.003019,104.985075 116.691808,104.700874 C117.380598,104.416673 117.829989,103.745118 117.83,103 C117.830015,101.987689 117.012297,101.165502 116,101.16 Z M135.32,164.81 C134.303796,164.81 133.48,165.633796 133.48,166.65 C133.48,167.666204 134.303796,168.49 135.32,168.49 C136.336204,168.49 137.16,167.666204 137.16,166.65 C137.162659,166.164652 136.972402,165.698126 136.631085,165.353058 C136.289767,165.007989 135.825348,164.812645 135.34,164.81 L135.32,164.81 Z M166.66,151.81 C165.643796,151.81 164.82,152.633796 164.82,153.65 C164.82,154.666204 165.643796,155.49 166.66,155.49 C167.676204,155.49 168.5,154.666204 168.5,153.65 C168.489181,152.649357 167.680643,151.840819 166.68,151.83 L166.66,151.81 Z M154.66,139.81 C153.643796,139.81 152.82,140.633796 152.82,141.65 C152.82,142.666204 153.643796,143.49 154.66,143.49 C155.676204,143.49 156.5,142.666204 156.5,141.65 C156.494534,140.641592 155.678408,139.825466 154.67,139.82 L154.66,139.81 Z M179.66,120.48 C178.643796,120.48 177.82,121.303796 177.82,122.32 C177.82,123.336204 178.643796,124.16 179.66,124.16 C180.676204,124.16 181.5,123.336204 181.5,122.32 C181.489095,121.309976 180.670068,120.495401 179.66,120.49 L179.66,120.48 Z M166.66,89.15 C165.914882,89.150011 165.243327,89.5994023 164.959126,90.2881917 C164.674925,90.9769811 164.834189,91.7691763 165.362501,92.2946168 C165.890812,92.8200573 166.683864,92.975002 167.371094,92.6870515 C168.058325,92.3991009 168.50405,91.7251072 168.5,90.98 C168.489181,89.9793573 167.680643,89.1708187 166.68,89.16 L166.66,89.15 Z M154.66,101.15 C153.643796,101.15 152.82,101.973796 152.82,102.99 C152.82,104.006204 153.643796,104.83 154.66,104.83 C155.676204,104.83 156.5,104.006204 156.5,102.99 C156.494534,101.981592 155.678408,101.165466 154.67,101.16 L154.66,101.15 Z M147.29,92.24 C146.795666,92.2359479 146.34775,92.5306085 146.155762,92.9861555 C145.963775,93.4417024 146.06567,93.9680779 146.413787,94.3190719 C146.761904,94.670066 147.287423,94.77629 147.744535,94.5880581 C148.201646,94.3998262 148.499983,93.9543504 148.5,93.46 C148.494661,92.7978418 147.962091,92.2608339 147.3,92.25 L147.29,92.24 Z M123.38,92.24 C122.885666,92.2359479 122.43775,92.5306085 122.245762,92.9861555 C122.053775,93.4417024 122.15567,93.9680779 122.503787,94.3190719 C122.851904,94.670066 123.377423,94.77629 123.834535,94.5880581 C124.291646,94.3998262 124.589983,93.9543504 124.59,93.46 C124.584661,92.7978418 124.052091,92.2608339 123.39,92.25 L123.38,92.24 Z M107.69,110.64 C107.731811,110.179605 107.509808,109.735126 107.116613,109.492002 C106.723418,109.248879 106.226582,109.248879 105.833387,109.492002 C105.440192,109.735126 105.218189,110.179605 105.26,110.64 C105.317072,111.268445 105.843968,111.74966 106.475,111.74966 C107.106032,111.74966 107.632928,111.268445 107.69,110.64 Z M107.69,134.27 C107.69,133.596213 107.143787,133.05 106.47,133.05 C105.796213,133.05 105.25,133.596213 105.25,134.27 C105.25,134.943787 105.796213,135.49 106.47,135.49 C106.793567,135.492663 107.104939,135.366675 107.335611,135.139753 C107.566283,134.912832 107.697359,134.603568 107.7,134.28 L107.69,134.27 Z M123.39,150 C122.894759,149.995957 122.446215,150.291708 122.254823,150.748489 C122.06343,151.205269 122.167171,151.73243 122.51737,152.08263 C122.86757,152.432829 123.394731,152.53657 123.851511,152.345177 C124.308292,152.153785 124.604043,151.705241 124.6,151.21 C124.6,150.541735 124.058265,150 123.39,150 Z M146.1,151 C146.051413,151.315852 146.126643,151.638268 146.31,151.9 C146.496643,152.167773 146.786658,152.345408 147.11,152.39 C147.772742,152.494934 148.395066,152.042742 148.5,151.38 C148.604934,150.717258 148.152742,150.094934 147.49,149.99 L147.3,149.99 C146.711065,149.99 146.206201,150.41072 146.1,150.99 L146.1,151 Z M163.33,134.13 C163.218508,134.576537 163.3678,135.047814 163.716066,135.348707 C164.064331,135.649601 164.552289,135.728894 164.977909,135.553757 C165.403529,135.37862 165.694365,134.978863 165.73,134.52 C165.781939,134.203036 165.705724,133.878427 165.51815,133.617698 C165.330575,133.356969 165.047033,133.181517 164.73,133.13 L164.53,133.13 C164.275224,133.131283 164.027134,133.21165 163.82,133.36 C163.565453,133.545732 163.390443,133.820747 163.33,134.13 Z M163,110.45 C162.947642,110.769145 163.023086,111.096071 163.21,111.36 C163.400547,111.618821 163.683465,111.794302 164,111.85 C164.32018,111.89321 164.644919,111.814701 164.91,111.63 C165.168821,111.439453 165.344302,111.156535 165.4,110.84 C165.50242,110.181271 165.057117,109.5623 164.4,109.45 L164.21,109.45 C163.617299,109.445145 163.106864,109.866993 163,110.45 Z M104.34,0.34 C103.594893,0.335950445 102.920899,0.781675413 102.632949,1.46890578 C102.344998,2.15613615 102.499943,2.94918753 103.025383,3.47749932 C103.550824,4.0058111 104.343019,4.16507524 105.031808,3.88087408 C105.720598,3.59667293 106.169989,2.92511817 106.17,2.18 C106.170015,1.16768853 105.352297,0.345501693 104.34,0.34 Z M104.34,17.34 C103.594893,17.3359504 102.920899,17.7816754 102.632949,18.4689058 C102.344998,19.1561362 102.499943,19.9491875 103.025383,20.4774993 C103.550824,21.0058111 104.343019,21.1650752 105.031808,20.8808741 C105.720598,20.5966729 106.169989,19.9251182 106.17,19.18 C106.17533,18.6902743 105.985202,18.2186303 105.64172,17.8695174 C105.298238,17.5204046 104.829748,17.3226327 104.34,17.32 L104.34,17.34 Z M104.34,72.01 C103.594893,72.0059504 102.920899,72.4516754 102.632949,73.1389058 C102.344998,73.8261362 102.499943,74.6191875 103.025383,75.1474993 C103.550824,75.6758111 104.343019,75.8350752 105.031808,75.5508741 C105.720598,75.2666729 106.169989,74.5951182 106.17,73.85 C106.172659,73.3619995 105.981349,72.8929305 105.638156,72.5459867 C105.294962,72.1990428 104.828001,72.002645 104.34,72 L104.34,72.01 Z M73,13.32 C72.2557895,13.32 71.5848587,13.7683016 71.3000617,14.4558625 C71.0152646,15.1434234 71.1726872,15.9348402 71.6989235,16.4610765 C72.2251598,16.9873128 73.0165766,17.1447354 73.7041375,16.8599383 C74.3916984,16.5751413 74.84,15.9042105 74.84,15.16 C74.8345339,14.1460688 74.0139312,13.3254661 73,13.32 Z M60,44.66 C58.9837961,44.66 58.16,45.4837961 58.16,46.5 C58.16,47.5162039 58.9837961,48.34 60,48.34 C61.0162039,48.34 61.84,47.5162039 61.84,46.5 C61.84,45.4837961 61.0162039,44.66 60,44.66 Z M73,76 C72.2548818,76.000011 71.5833271,76.4494023 71.2991259,77.1381917 C71.0149248,77.8269811 71.1741889,78.6191763 71.7025007,79.1446168 C72.2308125,79.6700573 73.0238638,79.825002 73.7110942,79.5370515 C74.3983246,79.2491009 74.8440496,78.5751072 74.84,77.83 C74.8344983,76.8177035 74.0123115,75.999985 73,76 Z M85,64 C84.2548928,63.9959504 83.5808991,64.4416754 83.2929485,65.1289058 C83.004998,65.8161362 83.1599427,66.6091875 83.6853832,67.1374993 C84.2108237,67.6658111 85.0030189,67.8250752 85.6918083,67.5408741 C86.3805977,67.2566729 86.829989,66.5851182 86.83,65.84 C86.830015,64.8276885 86.0122965,64.0055017 85,64 Z M77,44.67 C76.2557895,44.67 75.5848587,45.1183016 75.3000617,45.8058625 C75.0152646,46.4934234 75.1726872,47.2848402 75.6989235,47.8110765 C76.2251598,48.3373128 77.0165766,48.4947354 77.7041375,48.2099383 C78.3916984,47.9251413 78.84,47.2542105 78.84,46.51 C78.8426616,46.0202713 78.6499807,45.549687 78.3046248,45.2024542 C77.959269,44.8552215 77.4897359,44.6599928 77,44.66 L77,44.67 Z M131.67,44.67 C130.653796,44.67 129.83,45.4937961 129.83,46.51 C129.83,47.5262039 130.653796,48.35 131.67,48.35 C132.686204,48.35 133.51,47.5262039 133.51,46.51 C133.515369,46.0194593 133.323561,45.5473024 132.977617,45.1994782 C132.631673,44.851654 132.160563,44.6572899 131.67,44.66 L131.67,44.67 Z M85,25.33 C84.2548928,25.3259504 83.5808991,25.7716754 83.2929485,26.4589058 C83.004998,27.1461362 83.1599427,27.9391875 83.6853832,28.4674993 C84.2108237,28.9958111 85.0030189,29.1550752 85.6918083,28.8708741 C86.3805977,28.5866729 86.829989,27.9151182 86.83,27.17 C86.830015,26.1576885 86.0122965,25.3355017 85,25.33 Z M104.34,89 C103.593985,88.9959565 102.919362,89.4427692 102.632003,90.1312311 C102.344645,90.8196931 102.50143,91.6135294 103.028951,92.1410494 C103.556471,92.6685695 104.350307,92.8253554 105.038769,92.5379968 C105.727231,92.2506382 106.174044,91.5760151 106.17,90.83 C106.17,89.8193189 105.350681,89 104.34,89 Z M135.67,76 C134.924882,76.000011 134.253327,76.4494023 133.969126,77.1381917 C133.684925,77.8269811 133.844189,78.6191763 134.372501,79.1446168 C134.900812,79.6700573 135.693864,79.825002 136.381094,79.5370515 C137.068325,79.2491009 137.51405,78.5751072 137.51,77.83 C137.510007,77.3429162 137.315832,76.8759267 136.970475,76.5324462 C136.625117,76.1889657 136.157076,75.9973383 135.67,76 Z M123.67,64 C122.924893,63.9959504 122.250899,64.4416754 121.962949,65.1289058 C121.674998,65.8161362 121.829943,66.6091875 122.355383,67.1374993 C122.880824,67.6658111 123.673019,67.8250752 124.361808,67.5408741 C125.050598,67.2566729 125.499989,66.5851182 125.5,65.84 C125.500015,64.8276885 124.682297,64.0055017 123.67,64 Z M148.67,44.67 C147.653796,44.67 146.83,45.4937961 146.83,46.51 C146.83,47.5262039 147.653796,48.35 148.67,48.35 C149.686204,48.35 150.51,47.5262039 150.51,46.51 C150.515467,46.0159524 150.320931,45.5406865 149.970625,45.1922637 C149.620319,44.8438408 149.144011,44.6518701 148.65,44.66 L148.67,44.67 Z M135.67,13.33 C134.925789,13.33 134.254859,13.7783016 133.970062,14.4658625 C133.685265,15.1534234 133.842687,15.9448402 134.368924,16.4710765 C134.89516,16.9973128 135.686577,17.1547354 136.374138,16.8699383 C137.061698,16.5851413 137.51,15.9142105 137.51,15.17 C137.512662,14.6802713 137.319981,14.209687 136.974625,13.8624542 C136.629269,13.5152215 136.159736,13.3199928 135.67,13.32 L135.67,13.33 Z M123.67,25.33 C122.924893,25.3259504 122.250899,25.7716754 121.962949,26.4589058 C121.674998,27.1461362 121.829943,27.9391875 122.355383,28.4674993 C122.880824,28.9958111 123.673019,29.1550752 124.361808,28.8708741 C125.050598,28.5866729 125.499989,27.9151182 125.5,27.17 C125.500015,26.1576885 124.682297,25.3355017 123.67,25.33 Z M116.29,16.42 C115.661555,16.4770723 115.18034,17.0039685 115.18034,17.635 C115.18034,18.2660315 115.661555,18.7929277 116.29,18.85 C116.750395,18.8918108 117.194874,18.6698083 117.437998,18.2766133 C117.681121,17.8834183 117.681121,17.3865817 117.437998,16.9933867 C117.194874,16.6001917 116.750395,16.3781892 116.29,16.42 Z M92.38,16.42 C91.7515547,16.4770723 91.2703404,17.0039685 91.2703404,17.635 C91.2703404,18.2660315 91.7515547,18.7929277 92.38,18.85 C92.8403948,18.8918108 93.2848737,18.6698083 93.5279975,18.2766133 C93.7711213,17.8834183 93.7711213,17.3865817 93.5279975,16.9933867 C93.2848737,16.6001917 92.8403948,16.3781892 92.38,16.42 Z M76.69,34.81 C76.7022002,34.3140081 76.4128166,33.8600277 75.958036,33.6617063 C75.5032553,33.463385 74.9736682,33.5602274 74.6185033,33.9066588 C74.2633383,34.2530902 74.1533432,34.7801026 74.3402825,35.239679 C74.5272219,35.6992554 74.9738581,35.99985 75.47,36 C76.1322434,36.0002003 76.6737154,35.4720432 76.69,34.81 Z M76.69,58.45 C76.69,57.7762126 76.1437874,57.23 75.47,57.23 C74.7962126,57.23 74.25,57.7762126 74.25,58.45 C74.25,59.1237874 74.7962126,59.67 75.47,59.67 C76.1437874,59.67 76.69,59.1237874 76.69,58.45 Z M92.38,74.15 C91.713065,74.155512 91.1763512,74.6996639 91.1800183,75.3666116 C91.1836854,76.0335593 91.7263505,76.5717763 92.3933058,76.5699542 C93.0602611,76.568132 93.5999772,76.0269578 93.6,75.36 C93.600011,75.0373479 93.4711574,74.7280544 93.242071,74.5008458 C93.0129846,74.2736371 92.7026411,74.1473335 92.38,74.15 Z M115.09,75.15 C115.040512,75.4704742 115.119579,75.7975258 115.31,76.06 C115.497582,76.3220103 115.781926,76.4983755 116.1,76.55 C116.758729,76.6524198 117.3777,76.2071171 117.49,75.55 C117.541939,75.2330361 117.465724,74.908427 117.27815,74.6476981 C117.090575,74.3869693 116.807033,74.2115167 116.49,74.16 L116.29,74.16 C116.036211,74.1576967 115.788022,74.2346004 115.58,74.38 C115.32333,74.568145 115.148087,74.8471042 115.09,75.16 L115.09,75.15 Z M132.33,58.3 C132.222849,58.9594057 132.670371,59.5808795 133.329729,59.6883232 C133.989087,59.7957669 134.61076,59.3485206 134.718496,58.6892103 C134.826233,58.0299 134.379262,57.4080291 133.72,57.3 L133.52,57.3 C133.265224,57.3012826 133.017134,57.3816499 132.81,57.53 C132.55539,57.7139525 132.383057,57.9904036 132.33,58.3 Z M132,34.62 C131.951413,34.9358522 132.026643,35.2582681 132.21,35.52 C132.605743,36.0609027 133.361687,36.1854111 133.91,35.8 C134.17201,35.6124182 134.348375,35.3280743 134.4,35.01 C134.454734,34.6926628 134.379628,34.3666428 134.191568,34.1052388 C134.003508,33.8438349 133.718275,33.6689848 133.4,33.62 C133.337043,33.6102381 133.272957,33.6102381 133.21,33.62 C132.617299,33.6151453 132.106864,34.0369925 132,34.62 Z M210.84,45 C210.093985,44.9959565 209.419362,45.4427692 209.132003,46.1312311 C208.844645,46.8196931 209.00143,47.6135294 209.528951,48.1410494 C210.056471,48.6685695 210.850307,48.8253554 211.538769,48.5379968 C212.227231,48.2506382 212.674044,47.5760151 212.67,46.83 C212.67,45.8193189 211.850681,45 210.84,45 Z M212.67,63.81 C212.682182,64.5577284 212.240601,65.2384519 211.552857,65.5321418 C210.865112,65.8258317 210.068027,65.6740602 209.536336,65.1481796 C209.004645,64.6222991 208.844123,63.8269303 209.130238,63.1360001 C209.416353,62.4450699 210.092183,61.996035 210.84,62 C211.842922,61.9999401 212.659039,62.807138 212.67,63.81 Z M212.67,118.49 C212.669989,119.235118 212.220598,119.906673 211.531808,120.190874 C210.843019,120.475075 210.050824,120.315811 209.525383,119.787499 C208.999943,119.259188 208.844998,118.466136 209.132949,117.778906 C209.420899,117.091675 210.094893,116.64595 210.84,116.65 C211.327084,116.649993 211.794073,116.844168 212.137554,117.189525 C212.481034,117.534883 212.672662,118.002924 212.67,118.49 Z M181.34,59.81 C181.352178,60.55682 180.91168,61.2369031 180.225173,61.5311766 C179.538667,61.8254501 178.74238,61.675519 178.209905,61.1517259 C177.677431,60.6279329 177.514431,59.8342185 177.797381,59.1429675 C178.08033,58.4517164 178.753081,58.0000993 179.5,58 C180.504603,57.9998665 181.323621,58.805531 181.34,59.81 Z M193.34,110.48 C193.339989,111.225118 192.890598,111.896673 192.201808,112.180874 C191.513019,112.465075 190.720824,112.305811 190.195383,111.777499 C189.669943,111.249188 189.514998,110.456136 189.802949,109.768906 C190.090899,109.081675 190.764893,108.63595 191.51,108.64 C192.522297,108.645502 193.340015,109.467689 193.34,110.48 Z M185.34,91.15 C185.34,92.1662039 184.516204,92.99 183.5,92.99 C182.483796,92.99 181.66,92.1662039 181.66,91.15 C181.66,90.1337961 182.483796,89.31 183.5,89.31 C184.513931,89.3154661 185.334534,90.1360688 185.34,91.15 Z M240.01,91.15 C240.01,92.1662039 239.186204,92.99 238.17,92.99 C237.153796,92.99 236.33,92.1662039 236.33,91.15 C236.33,90.1337961 237.153796,89.31 238.17,89.31 C239.180024,89.3209054 239.994599,90.1399317 240,91.15 L240.01,91.15 Z M193.34,71.82 C193.348108,72.5668852 192.903899,73.2445646 192.215785,73.5350861 C191.527671,73.8256077 190.732205,73.6713193 190.202601,73.1446096 C189.672998,72.6178999 189.514353,71.8232911 189.8011,71.1335958 C190.087846,70.4439006 190.763082,69.9959846 191.51,70 C192.514546,70.0054004 193.329095,70.8154989 193.34,71.82 Z M212.67,135.47 C212.669989,136.215118 212.220598,136.886673 211.531808,137.170874 C210.843019,137.455075 210.050824,137.295811 209.525383,136.767499 C208.999943,136.239188 208.844998,135.446136 209.132949,134.758906 C209.420899,134.071675 210.094893,133.62595 210.84,133.63 C211.852297,133.635502 212.670015,134.457689 212.67,135.47 Z M244.01,122.47 C244.01,123.486204 243.186204,124.31 242.17,124.31 C241.153796,124.31 240.33,123.486204 240.33,122.47 C240.33,121.453796 241.153796,120.63 242.17,120.63 C242.660589,120.629934 243.130661,120.82685 243.474729,121.176557 C243.818796,121.526265 244.008042,121.999477 244,122.49 L244.01,122.47 Z M232.01,110.47 C232.01,111.486204 231.186204,112.31 230.17,112.31 C229.153796,112.31 228.33,111.486204 228.33,110.47 C228.33,109.453796 229.153796,108.63 230.17,108.63 C230.658001,108.632645 231.124962,108.829043 231.468156,109.175987 C231.811349,109.522931 232.002659,109.991999 232,110.48 L232.01,110.47 Z M257.01,91.14 C257.01,92.1562039 256.186204,92.98 255.17,92.98 C254.153796,92.98 253.33,92.1562039 253.33,91.14 C253.33,90.1237961 254.153796,89.3 255.17,89.3 C255.658001,89.302645 256.124962,89.4990428 256.468156,89.8459867 C256.811349,90.1929305 257.002659,90.6619995 257,91.15 L257.01,91.14 Z M244,59.81 C244.012182,60.5577284 243.570601,61.2384519 242.882857,61.5321418 C242.195112,61.8258317 241.398027,61.6740602 240.866336,61.1481796 C240.334645,60.6222991 240.174123,59.8269303 240.460238,59.1360001 C240.746353,58.4450699 241.422183,57.996035 242.17,58 C243.170708,58.0053059 243.983698,58.8094104 244,59.81 Z M232,71.81 C232.012178,72.55682 231.57168,73.2369031 230.885173,73.5311766 C230.198667,73.8254501 229.40238,73.675519 228.869905,73.1517259 C228.337431,72.6279329 228.174431,71.8342185 228.457381,71.1429675 C228.74033,70.4517164 229.413081,70.0000993 230.16,70 C231.168444,69.9999404 231.989039,70.8116152 232,71.82 L232,71.81 Z M224,62.28 C223.994488,62.946935 223.450336,63.4836488 222.783388,63.4799817 C222.116441,63.4763146 221.578224,62.9336495 221.580046,62.2666942 C221.581868,61.5997389 222.123042,61.0600228 222.79,61.06 C223.114407,61.0599557 223.425246,61.1901792 223.652749,61.4214424 C223.880251,61.6527056 224.005362,61.9656369 224,62.29 L224,62.28 Z M200.09,62.28 C200.084488,62.946935 199.540336,63.4836488 198.873388,63.4799817 C198.206441,63.4763146 197.668224,62.9336495 197.670046,62.2666942 C197.671868,61.5997389 198.213042,61.0600228 198.88,61.06 C199.204407,61.0599557 199.515246,61.1901792 199.742749,61.4214424 C199.970251,61.6527056 200.095362,61.9656369 200.09,62.29 L200.09,62.28 Z M182,80.68 C181.371555,80.6229277 180.89034,80.0960315 180.89034,79.465 C180.89034,78.8339685 181.371555,78.3070723 182,78.25 C182.460395,78.2081892 182.904874,78.4301917 183.147998,78.8233867 C183.391121,79.2165817 183.391121,79.7134183 183.147998,80.1066133 C182.904874,80.4998083 182.460395,80.7218108 182,80.68 Z M182,104.32 C181.371555,104.262928 180.89034,103.736032 180.89034,103.105 C180.89034,102.473968 181.371555,101.947072 182,101.89 C182.460395,101.848189 182.904874,102.070192 183.147998,102.463387 C183.391121,102.856582 183.391121,103.353418 183.147998,103.746613 C182.904874,104.139808 182.460395,104.361811 182,104.32 Z M200.09,120 C200.09,120.668265 199.548265,121.21 198.88,121.21 C198.211735,121.21 197.67,120.668265 197.67,120 C197.67,119.331735 198.211735,118.79 198.88,118.79 C199.545999,118.795437 200.084563,119.334001 200.09,120 Z M222.09,119 C222.297134,118.85165 222.545224,118.771283 222.8,118.77 C222.862957,118.760238 222.927043,118.760238 222.99,118.77 C223.416932,118.83788 223.77522,119.12837 223.9299,119.532045 C224.08458,119.935719 224.012153,120.391251 223.7399,120.727045 C223.467648,121.062839 223.036932,121.22788 222.61,121.16 C222.289443,121.115123 222.00264,120.937233 221.82,120.67 C221.628992,120.411021 221.550003,120.086176 221.600771,119.768407 C221.651539,119.450638 221.827808,119.166575 222.09,118.98 L222.09,119 Z M239.32,102.13 C239.528022,101.9846 239.776211,101.907697 240.03,101.91 L240.23,101.91 C240.547033,101.961517 240.830575,102.136969 241.01815,102.397698 C241.205724,102.658427 241.281939,102.983036 241.23,103.3 C241.16212,103.728719 240.870677,104.088657 240.465455,104.24423 C240.060234,104.399804 239.602796,104.327376 239.265455,104.05423 C238.928114,103.781085 238.76212,103.348719 238.83,102.92 C238.890226,102.615912 239.061297,102.34505 239.31,102.16 L239.32,102.13 Z M239.71,78.22 L239.9,78.22 C240.557117,78.3322999 241.00242,78.9512707 240.9,79.61 C240.844302,79.9265348 240.668821,80.2094531 240.41,80.4 C240.147067,80.5894255 239.820427,80.6683935 239.5,80.62 C239.183465,80.5643022 238.900547,80.3888212 238.71,80.13 C238.443089,79.7570516 238.407883,79.2659209 238.61887,78.8587152 C238.829858,78.4515094 239.25139,78.1970305 239.71,78.2 L239.71,78.22 Z M273.51,107.64 C272.493796,107.64 271.67,108.463796 271.67,109.48 C271.67,110.496204 272.493796,111.32 273.51,111.32 C274.526204,111.32 275.35,110.496204 275.35,109.48 C275.333573,108.471626 274.508492,107.664385 273.5,107.67 L273.51,107.64 Z M275.35,126.46 C275.35405,127.205107 274.908325,127.879101 274.221094,128.167051 C273.533864,128.455002 272.740812,128.300057 272.212501,127.774617 C271.684189,127.249176 271.524925,126.456981 271.809126,125.768192 C272.093327,125.079402 272.764882,124.630011 273.51,124.63 C273.999748,124.632633 274.468238,124.830405 274.81172,125.179517 C275.155202,125.52863 275.34533,126.000274 275.34,126.49 L275.35,126.46 Z M275.35,181.14 C275.35,182.156204 274.526204,182.98 273.51,182.98 C272.493796,182.98 271.67,182.156204 271.67,181.14 C271.67,180.123796 272.493796,179.3 273.51,179.3 C274.002357,179.299882 274.473991,179.498167 274.818355,179.850059 C275.16272,180.201951 275.350762,180.677761 275.34,181.17 L275.35,181.14 Z M244,122.49 C244.004044,123.236015 243.557231,123.910638 242.868769,124.197997 C242.180307,124.485355 241.386471,124.32857 240.858951,123.801049 C240.33143,123.273529 240.174645,122.479693 240.462003,121.791231 C240.749362,121.102769 241.423985,120.655956 242.17,120.66 C243.180681,120.66 244,121.479319 244,122.49 Z M231,153.83 C230.999989,154.575118 230.550598,155.246673 229.861808,155.530874 C229.173019,155.815075 228.380824,155.655811 227.855383,155.127499 C227.329943,154.599188 227.174998,153.806136 227.462949,153.118906 C227.750899,152.431675 228.424893,151.98595 229.17,151.99 C230.182297,151.995502 231.000015,152.817689 231,153.83 Z M244,185.17 C243.999989,185.915118 243.550598,186.586673 242.861808,186.870874 C242.173019,187.155075 241.380824,186.995811 240.855383,186.467499 C240.329943,185.939188 240.174998,185.146136 240.462949,184.458906 C240.750899,183.771675 241.424893,183.32595 242.17,183.33 C242.657084,183.329993 243.124073,183.524168 243.467554,183.869525 C243.811034,184.214883 244.002662,184.682924 244,185.17 Z M256,173.17 C256,174.186204 255.176204,175.01 254.16,175.01 C253.143796,175.01 252.32,174.186204 252.32,173.17 C252.32,172.153796 253.143796,171.33 254.16,171.33 C255.172311,171.329985 255.994498,172.147703 256,173.16 L256,173.17 Z M248,153.84 C248,154.856204 247.176204,155.68 246.16,155.68 C245.143796,155.68 244.32,154.856204 244.32,153.84 C244.32,152.823796 245.143796,152 246.16,152 C247.170068,152.005401 247.989095,152.819976 248,153.83 L248,153.84 Z M302.67,153.84 C302.67,154.856204 301.846204,155.68 300.83,155.68 C299.813796,155.68 298.99,154.856204 298.99,153.84 C298.99,152.823796 299.813796,152 300.83,152 C301.843967,151.999941 302.669038,152.816092 302.68,153.83 L302.67,153.84 Z M256,134.5 C256,135.516204 255.176204,136.34 254.16,136.34 C253.143796,136.34 252.32,135.516204 252.32,134.5 C252.32,133.483796 253.143796,132.66 254.16,132.66 C255.176204,132.66 256,133.483796 256,134.5 Z M275.33,198.15 C275.33,199.166204 274.506204,199.99 273.49,199.99 C272.473796,199.99 271.65,199.166204 271.65,198.15 C271.65,197.133796 272.473796,196.31 273.49,196.31 C273.980541,196.304631 274.452698,196.496439 274.800522,196.842383 C275.148346,197.188327 275.34271,197.659437 275.34,198.15 L275.33,198.15 Z M306.67,185.15 C306.67,186.166204 305.846204,186.99 304.83,186.99 C303.813796,186.99 302.99,186.166204 302.99,185.15 C302.99,184.133796 303.813796,183.31 304.83,183.31 C305.323215,183.30729 305.796868,183.502708 306.144688,183.852407 C306.492507,184.202107 306.685369,184.676807 306.68,185.17 L306.67,185.15 Z M294.67,173.15 C294.67,174.166204 293.846204,174.99 292.83,174.99 C291.813796,174.99 290.99,174.166204 290.99,173.15 C290.99,172.133796 291.813796,171.31 292.83,171.31 C293.319736,171.309993 293.789269,171.505221 294.134625,171.852454 C294.479981,172.199687 294.672662,172.670271 294.67,173.16 L294.67,173.15 Z M319.67,153.82 C319.67,154.836204 318.846204,155.66 317.83,155.66 C316.813796,155.66 315.99,154.836204 315.99,153.82 C315.99,152.803796 316.813796,151.98 317.83,151.98 C318.843908,151.990962 319.660059,152.816033 319.66,153.83 L319.67,153.82 Z M306.67,122.48 C306.67405,123.225107 306.228325,123.899101 305.541094,124.187051 C304.853864,124.475002 304.060812,124.320057 303.532501,123.794617 C303.004189,123.269176 302.844925,122.476981 303.129126,121.788192 C303.413327,121.099402 304.084882,120.650011 304.83,120.65 C305.319729,120.647338 305.790313,120.840019 306.137546,121.185375 C306.484779,121.530731 306.680007,122.000264 306.68,122.49 L306.67,122.48 Z M294.67,134.48 C294.67,135.496204 293.846204,136.32 292.83,136.32 C291.813796,136.32 290.99,135.496204 290.99,134.48 C290.99,133.463796 291.813796,132.64 292.83,132.64 C293.321483,132.639971 293.792551,132.836571 294.138199,133.185975 C294.483847,133.53538 294.675342,134.008546 294.67,134.5 L294.67,134.48 Z M286.67,124.95 C286.664488,125.616935 286.120336,126.153649 285.453388,126.149982 C284.786441,126.146315 284.248224,125.603649 284.250046,124.936694 C284.251868,124.269739 284.793042,123.730023 285.46,123.73 C285.791583,123.729592 286.108806,123.865277 286.337531,124.105344 C286.566257,124.345411 286.686442,124.668824 286.67,125 L286.67,124.95 Z M262.76,124.95 C262.754488,125.616935 262.210336,126.153649 261.543388,126.149982 C260.876441,126.146315 260.338224,125.603649 260.340046,124.936694 C260.341868,124.269739 260.883042,123.730023 261.55,123.73 C261.881583,123.729592 262.198806,123.865277 262.427531,124.105344 C262.656257,124.345411 262.776442,124.668824 262.76,125 L262.76,124.95 Z M244.64,143.34 C244.011555,143.282928 243.53034,142.756032 243.53034,142.125 C243.53034,141.493968 244.011555,140.967072 244.64,140.91 C245.100395,140.868189 245.544874,141.090192 245.787998,141.483387 C246.031121,141.876582 246.031121,142.373418 245.787998,142.766613 C245.544874,143.159808 245.100395,143.381811 244.64,143.34 Z M244.64,166.98 C244.14565,166.979983 243.700174,166.681646 243.511942,166.224535 C243.32371,165.767423 243.429934,165.241904 243.780928,164.893787 C244.131922,164.54567 244.658298,164.443775 245.113845,164.635762 C245.569391,164.82775 245.864052,165.275666 245.86,165.77 C245.865402,166.096105 245.73893,166.410581 245.50925,166.642143 C245.279571,166.873704 244.966138,167.00274 244.64,167 L244.64,166.98 Z M262.76,182.67 C262.76,183.338265 262.218265,183.88 261.55,183.88 C260.881735,183.88 260.34,183.338265 260.34,182.67 C260.34,182.001735 260.881735,181.46 261.55,181.46 C261.873568,181.462641 262.182832,181.593717 262.409753,181.824389 C262.636675,182.055061 262.762663,182.366433 262.76,182.69 L262.76,182.67 Z M284.76,181.67 C284.966204,181.519816 285.214902,181.439251 285.47,181.44 L285.66,181.44 C286.318551,181.557132 286.762783,182.179057 286.66,182.84 C286.5477,183.497117 285.928729,183.94242 285.27,183.84 C284.946658,183.795408 284.656643,183.617773 284.47,183.35 C284.282653,183.090067 284.207038,182.766005 284.26,182.45 C284.323708,182.150173 284.498833,181.885699 284.75,181.71 L284.76,181.67 Z M302,164.84 C302.208022,164.6946 302.456211,164.617697 302.71,164.62 L302.91,164.62 C303.227033,164.671517 303.510575,164.846969 303.69815,165.107698 C303.885724,165.368427 303.961939,165.693036 303.91,166.01 C303.874365,166.468863 303.583529,166.86862 303.157909,167.043757 C302.732289,167.218894 302.244331,167.139601 301.896066,166.838707 C301.5478,166.537814 301.398508,166.066537 301.51,165.62 C301.568087,165.307104 301.74333,165.028145 302,164.84 Z M302.39,140.93 L302.58,140.93 C303.237117,141.0423 303.68242,141.661271 303.58,142.32 C303.524302,142.636535 303.348821,142.919453 303.09,143.11 C302.827067,143.299426 302.500427,143.378393 302.18,143.33 C301.863465,143.274302 301.580547,143.098821 301.39,142.84 C301.123089,142.467052 301.087883,141.975921 301.29887,141.568715 C301.509858,141.161509 301.93139,140.90703 302.39,140.91 L302.39,140.93 Z M306.52,202.16 C306.519989,202.905118 306.070598,203.576673 305.381808,203.860874 C304.693019,204.145075 303.900824,203.985811 303.375383,203.457499 C302.849943,202.929188 302.694998,202.136136 302.982949,201.448906 C303.270899,200.761675 303.944893,200.31595 304.69,200.32 C305.696771,200.330988 306.505562,201.153184 306.5,202.16 L306.52,202.16 Z M306.52,256.83 C306.519989,257.575118 306.070598,258.246673 305.381808,258.530874 C304.693019,258.815075 303.900824,258.655811 303.375383,258.127499 C302.849943,257.599188 302.694998,256.806136 302.982949,256.118906 C303.270899,255.431675 303.944893,254.98595 304.69,254.99 C305.694469,255.006379 306.500134,255.825397 306.5,256.83 L306.52,256.83 Z M275.19,198.16 C275.19,198.904211 274.741698,199.575141 274.054138,199.859938 C273.366577,200.144735 272.57516,199.987313 272.048924,199.461076 C271.522687,198.93484 271.365265,198.143423 271.650062,197.455862 C271.934859,196.768302 272.605789,196.32 273.35,196.32 C274.358385,196.330961 275.17006,197.151556 275.17,198.16 L275.19,198.16 Z M262.19,229.49 C262.19405,230.235107 261.748325,230.909101 261.061094,231.197051 C260.373864,231.485002 259.580812,231.330057 259.052501,230.804617 C258.524189,230.279176 258.364925,229.486981 258.649126,228.798192 C258.933327,228.109402 259.604882,227.660011 260.35,227.66 C261.362311,227.659985 262.184498,228.477703 262.19,229.49 Z M275.19,260.83 C275.19,261.574211 274.741698,262.245141 274.054138,262.529938 C273.366577,262.814735 272.57516,262.657313 272.048924,262.131076 C271.522687,261.60484 271.365265,260.813423 271.650062,260.125862 C271.934859,259.438302 272.605789,258.99 273.35,258.99 C274.356112,259.006303 275.164693,259.82377 275.17,260.83 L275.19,260.83 Z M287.19,248.83 C287.194044,249.576015 286.747231,250.250638 286.058769,250.537997 C285.370307,250.825355 284.576471,250.66857 284.048951,250.141049 C283.52143,249.613529 283.364645,248.819693 283.652003,248.131231 C283.939362,247.442769 284.613985,246.995956 285.36,247 C286.358978,247.010904 287.1646,247.820977 287.17,248.82 L287.19,248.83 Z M279.19,229.5 C279.19405,230.245107 278.748325,230.919101 278.061094,231.207051 C277.373864,231.495002 276.580812,231.340057 276.052501,230.814617 C275.524189,230.289176 275.364925,229.496981 275.649126,228.808192 C275.933327,228.119402 276.604882,227.670011 277.35,227.67 C278.350643,227.680819 279.159181,228.489357 279.17,229.49 L279.19,229.5 Z M333.86,229.5 C333.86405,230.245107 333.418325,230.919101 332.731094,231.207051 C332.043864,231.495002 331.250812,231.340057 330.722501,230.814617 C330.194189,230.289176 330.034925,229.496981 330.319126,228.808192 C330.603327,228.119402 331.274882,227.670011 332.02,227.67 C333.020643,227.680819 333.829181,228.489357 333.84,229.49 L333.86,229.5 Z M287.19,210.17 C287.194044,210.916015 286.747231,211.590638 286.058769,211.877997 C285.370307,212.165355 284.576471,212.00857 284.048951,211.481049 C283.52143,210.953529 283.364645,210.159693 283.652003,209.471231 C283.939362,208.782769 284.613985,208.335956 285.36,208.34 C286.358978,208.350904 287.1646,209.160977 287.17,210.16 L287.19,210.17 Z M306.52,273.82 C306.519989,274.565118 306.070598,275.236673 305.381808,275.520874 C304.693019,275.805075 303.900824,275.645811 303.375383,275.117499 C302.849943,274.589188 302.694998,273.796136 302.982949,273.108906 C303.270899,272.421675 303.944893,271.97595 304.69,271.98 C305.69059,271.996302 306.494694,272.809292 306.5,273.81 L306.52,273.82 Z M337.86,260.82 C337.870985,261.836116 337.056186,262.668757 336.04007,262.679782 C335.023954,262.690807 334.191281,261.876041 334.180217,260.859925 C334.169152,259.84381 334.983885,259.011105 336,259 C337.012311,258.999985 337.834498,259.817703 337.84,260.83 L337.86,260.82 Z M325.86,248.82 C325.870985,249.836116 325.056186,250.668757 324.04007,250.679782 C323.023954,250.690807 322.191281,249.876041 322.180217,248.859925 C322.169152,247.84381 322.983885,247.011105 324,247 C325.006789,246.999985 325.824498,247.813226 325.83,248.82 L325.86,248.82 Z M350.86,229.49 C350.86405,230.235107 350.418325,230.909101 349.731094,231.197051 C349.043864,231.485002 348.250812,231.330057 347.722501,230.804617 C347.194189,230.279176 347.034925,229.486981 347.319126,228.798192 C347.603327,228.109402 348.274882,227.660011 349.02,227.66 C350.016674,227.681658 350.814817,228.493104 350.82,229.49 L350.86,229.49 Z M337.86,198.16 C337.86,199.176204 337.036204,200 336.02,200 C335.003796,200 334.18,199.176204 334.18,198.16 C334.18,197.143796 335.003796,196.32 336.02,196.32 C336.505348,196.322645 336.969767,196.517989 337.311085,196.863058 C337.652402,197.208126 337.842659,197.674652 337.84,198.16 L337.86,198.16 Z M325.86,210.16 C325.864044,210.906015 325.417231,211.580638 324.728769,211.867997 C324.040307,212.155355 323.246471,211.99857 322.718951,211.471049 C322.19143,210.943529 322.034645,210.149693 322.322003,209.461231 C322.609362,208.772769 323.283985,208.325956 324.03,208.33 C325.028946,208.346378 325.830134,209.16092 325.83,210.16 L325.86,210.16 Z M317.86,200.63 C317.864052,201.124334 317.569391,201.57225 317.113845,201.764238 C316.658298,201.956225 316.131922,201.85433 315.780928,201.506213 C315.429934,201.158096 315.32371,200.632577 315.511942,200.175465 C315.700174,199.718354 316.14565,199.420017 316.64,199.42 C317.302091,199.430834 317.834661,199.967842 317.84,200.63 L317.86,200.63 Z M293.95,200.63 C293.954052,201.124334 293.659391,201.57225 293.203845,201.764238 C292.748298,201.956225 292.221922,201.85433 291.870928,201.506213 C291.519934,201.158096 291.41371,200.632577 291.601942,200.175465 C291.790174,199.718354 292.23565,199.420017 292.73,199.42 C293.392091,199.430834 293.924661,199.967842 293.93,200.63 L293.95,200.63 Z M275.8,219 C275.133065,218.994488 274.596351,218.450336 274.600018,217.783388 C274.603685,217.116441 275.146351,216.578224 275.813306,216.580046 C276.480261,216.581868 277.019977,217.123042 277.02,217.79 C277.020011,218.112652 276.891157,218.421946 276.662071,218.649154 C276.432985,218.876363 276.122641,219.002667 275.8,219 Z M275.8,242.64 C275.171555,242.582928 274.69034,242.056032 274.69034,241.425 C274.69034,240.793968 275.171555,240.267072 275.8,240.21 C276.260395,240.168189 276.704874,240.390192 276.947998,240.783387 C277.191121,241.176582 277.191121,241.673418 276.947998,242.066613 C276.704874,242.459808 276.260395,242.681811 275.8,242.64 Z M293.93,258.34 C293.93,259.013787 293.383787,259.56 292.71,259.56 C292.036213,259.56 291.49,259.013787 291.49,258.34 C291.49,257.666213 292.036213,257.12 292.71,257.12 C293.037059,257.119956 293.350441,257.251233 293.579819,257.484372 C293.809197,257.71751 293.935362,258.032985 293.93,258.36 L293.93,258.34 Z M315.93,257.34 C316.137134,257.19165 316.385224,257.111283 316.64,257.11 L316.84,257.11 C317.376667,257.202616 317.785333,257.642346 317.838454,258.184349 C317.891576,258.726352 317.576061,259.237058 317.067588,259.432107 C316.559115,259.627156 315.982991,259.458482 315.66,259.02 C315.470574,258.757067 315.391607,258.430427 315.44,258.11 C315.502198,257.814684 315.669139,257.551841 315.91,257.37 L315.93,257.34 Z M333.16,240.48 C333.367134,240.33165 333.615224,240.251283 333.87,240.25 L334.07,240.25 C334.731655,240.362196 335.17846,240.987722 335.07,241.65 C334.977384,242.186667 334.537654,242.595333 333.995651,242.648454 C333.453648,242.701576 332.942942,242.386061 332.747893,241.877588 C332.552844,241.369115 332.721518,240.792991 333.16,240.47 L333.16,240.48 Z M333.55,216.57 L333.74,216.57 C334.057033,216.621517 334.340575,216.796969 334.52815,217.057698 C334.715724,217.318427 334.791939,217.643036 334.74,217.96 C334.688375,218.278074 334.51201,218.562418 334.25,218.75 C333.987843,218.932403 333.665811,219.007544 333.35,218.96 C333.032967,218.908483 332.749425,218.733031 332.56185,218.472302 C332.374276,218.211573 332.298061,217.886964 332.35,217.57 C332.467209,217.009966 332.957871,216.606626 333.53,216.6 L333.55,216.57 Z M305.35,32 C304.333796,32 303.51,32.8237961 303.51,33.84 C303.51,34.8562039 304.333796,35.68 305.35,35.68 C306.366204,35.68 307.19,34.8562039 307.19,33.84 C307.184534,32.8260688 306.363931,32.0054661 305.35,32 Z M307.19,50.82 C307.198109,51.565977 306.754985,52.2430216 306.068106,52.5341309 C305.381227,52.8252403 304.586552,52.6727928 304.056161,52.1481667 C303.52577,51.6235405 303.364647,50.8305794 303.648232,50.14056 C303.931818,49.4505405 304.603979,49.0000441 305.35,49 C306.360068,49.005401 307.179095,49.8199761 307.19,50.83 L307.19,50.82 Z M307.19,105.49 C307.19405,106.235107 306.748325,106.909101 306.061094,107.197051 C305.373864,107.485002 304.580812,107.330057 304.052501,106.804617 C303.524189,106.279176 303.364925,105.486981 303.649126,104.798192 C303.933327,104.109402 304.604882,103.660011 305.35,103.66 C305.837998,103.66 306.30601,103.853857 306.651076,104.198924 C306.996143,104.54399 307.19,105.012002 307.19,105.5 L307.19,105.49 Z M275.85,46.83 C275.855508,47.8461819 275.0362,48.6744278 274.020018,48.6799456 C273.003836,48.6854633 272.175582,47.8661634 272.170054,46.8499816 C272.164527,45.8337998 272.983818,45.0055377 274,45 C275.013967,44.9999407 275.839038,45.8160923 275.85,46.83 Z M262.85,78.17 C262.85,79.1862039 262.026204,80.01 261.01,80.01 C259.993796,80.01 259.17,79.1862039 259.17,78.17 C259.17,77.1537961 259.993796,76.33 261.01,76.33 C261.501454,76.3246578 261.97462,76.5161534 262.324025,76.8618011 C262.673429,77.2074487 262.870029,77.6785166 262.87,78.17 L262.85,78.17 Z M287.85,97.5 C287.85,98.5162039 287.026204,99.34 286.01,99.34 C284.993796,99.34 284.17,98.5162039 284.17,97.5 C284.17,96.4837961 284.993796,95.66 286.01,95.66 C286.499729,95.6573384 286.970313,95.8500193 287.317546,96.1953752 C287.664779,96.540731 287.860007,97.0102641 287.86,97.5 L287.85,97.5 Z M279.85,78.17 C279.85,79.1862039 279.026204,80.01 278.01,80.01 C276.993796,80.01 276.17,79.1862039 276.17,78.17 C276.17,77.1537961 276.993796,76.33 278.01,76.33 C278.498815,76.3273215 278.968384,76.5203178 279.314033,76.8659671 C279.659682,77.2116164 279.852678,77.6811855 279.85,78.17 Z M334.52,78.17 C334.519989,78.9151182 334.070598,79.5866729 333.381808,79.8708741 C332.693019,80.1550752 331.900824,79.9958111 331.375383,79.4674993 C330.849943,78.9391875 330.694998,78.1461362 330.982949,77.4589058 C331.270899,76.7716754 331.944893,76.3259504 332.69,76.33 C333.177084,76.3299927 333.644073,76.5241679 333.987554,76.8695253 C334.331034,77.2148827 334.522662,77.6829235 334.52,78.17 Z M287.86,58.84 C287.85994,59.8535872 287.040175,60.6762469 286.026594,60.6798795 C285.013014,60.683512 284.187373,59.8667493 284.180048,58.8531886 C284.172723,57.8396278 284.986473,57.0110173 286,57 C286.491454,56.9946578 286.96462,57.1861534 287.314025,57.5318011 C287.663429,57.8774487 287.860029,58.3485166 287.86,58.84 Z M307.19,122.48 C307.19405,123.225107 306.748325,123.899101 306.061094,124.187051 C305.373864,124.475002 304.580812,124.320057 304.052501,123.794617 C303.524189,123.269176 303.364925,122.476981 303.649126,121.788192 C303.933327,121.099402 304.604882,120.650011 305.35,120.65 C306.362311,120.649985 307.184498,121.467703 307.19,122.48 Z M338.52,109.48 C338.524044,110.226015 338.077231,110.900638 337.388769,111.187997 C336.700307,111.475355 335.906471,111.31857 335.378951,110.791049 C334.85143,110.263529 334.694645,109.469693 334.982003,108.781231 C335.269362,108.092769 335.943985,107.645956 336.69,107.65 C337.178831,107.649971 337.647356,107.845517 337.991128,108.193046 C338.3349,108.540576 338.525342,109.011198 338.52,109.5 L338.52,109.48 Z M326.52,97.48 C326.52,98.4962039 325.696204,99.32 324.68,99.32 C323.663796,99.32 322.84,98.4962039 322.84,97.48 C322.84,96.4637961 323.663796,95.64 324.68,95.64 C325.171483,95.639971 325.642551,95.8365706 325.988199,96.1859753 C326.333847,96.53538 326.525342,97.0085456 326.52,97.5 L326.52,97.48 Z M351.52,78.15 C351.519989,78.8951182 351.070598,79.5666729 350.381808,79.8508741 C349.693019,80.1350752 348.900824,79.9758111 348.375383,79.4474993 C347.849943,78.9191875 347.694998,78.1261362 347.982949,77.4389058 C348.270899,76.7516754 348.944893,76.3059504 349.69,76.31 C350.177112,76.315258 350.642025,76.514515 350.981761,76.8636359 C351.321497,77.2127569 351.508014,77.6829253 351.5,78.17 L351.52,78.15 Z M338.52,46.81 C338.532182,47.5577284 338.090601,48.2384519 337.402857,48.5321418 C336.715112,48.8258317 335.918027,48.6740602 335.386336,48.1481796 C334.854645,47.6222991 334.694123,46.8269303 334.980238,46.1360001 C335.266353,45.4450699 335.942183,44.996035 336.69,45 C337.698408,45.0054657 338.514534,45.8215916 338.52,46.83 L338.52,46.81 Z M326.52,58.81 C326.532178,59.55682 326.09168,60.2369031 325.405173,60.5311766 C324.718667,60.8254501 323.92238,60.675519 323.389905,60.1517259 C322.857431,59.6279329 322.694431,58.8342185 322.977381,58.1429675 C323.26033,57.4517164 323.933081,57.0000993 324.68,57 C325.696204,57 326.52,57.8237961 326.52,58.84 L326.52,58.81 Z M318.52,49.27 C318.561811,49.7303948 318.339808,50.1748737 317.946613,50.4179975 C317.553418,50.6611213 317.056582,50.6611213 316.663387,50.4179975 C316.270192,50.1748737 316.048189,49.7303948 316.09,49.27 C316.147072,48.6415547 316.673968,48.1603404 317.305,48.1603404 C317.936032,48.1603404 318.462928,48.6415547 318.52,49.27 Z M294.61,49.27 C294.651811,49.7303948 294.429808,50.1748737 294.036613,50.4179975 C293.643418,50.6611213 293.146582,50.6611213 292.753387,50.4179975 C292.360192,50.1748737 292.138189,49.7303948 292.18,49.27 C292.237072,48.6415547 292.763968,48.1603404 293.395,48.1603404 C294.026032,48.1603404 294.552928,48.6415547 294.61,49.27 Z M276.49,67.7 C275.995666,67.7040521 275.54775,67.4093915 275.355762,66.9538445 C275.163775,66.4982976 275.26567,65.9719221 275.613787,65.6209281 C275.961904,65.269934 276.487423,65.16371 276.944535,65.3519419 C277.401646,65.5401738 277.699983,65.9856496 277.7,66.48 C277.700023,67.1499014 277.159879,67.694509 276.49,67.7 Z M276.49,91.34 C275.995666,91.3440521 275.54775,91.0493915 275.355762,90.5938445 C275.163775,90.1382976 275.26567,89.6119221 275.613787,89.2609281 C275.961904,88.909934 276.487423,88.80371 276.944535,88.9919419 C277.401646,89.1801738 277.699983,89.6256496 277.7,90.12 C277.700023,90.7899014 277.159879,91.334509 276.49,91.34 Z M294.61,107 C294.614052,107.494334 294.319391,107.94225 293.863845,108.134238 C293.408298,108.326225 292.881922,108.22433 292.530928,107.876213 C292.179934,107.528096 292.07371,107.002577 292.261942,106.545465 C292.450174,106.088354 292.89565,105.790017 293.39,105.79 C294.059901,105.789977 294.604509,106.330121 294.61,107 Z M316.61,106 C316.818022,105.8546 317.066211,105.777697 317.32,105.78 L317.52,105.78 C318.068795,105.863509 318.492027,106.306976 318.549834,106.85907 C318.607641,107.411165 318.285448,107.932681 317.765853,108.128056 C317.246259,108.323431 316.660274,108.143403 316.34,107.69 C316.146723,107.428965 316.070654,107.099333 316.13,106.78 C316.175585,106.469903 316.340686,106.189949 316.59,106 L316.61,106 Z M333.85,89.14 C334.05344,88.9918228 334.298321,88.9113621 334.55,88.91 L334.75,88.91 C335.40998,89.0176955 335.857696,89.6400197 335.75,90.3 C335.642304,90.9599803 335.01998,91.4076955 334.36,91.3 C334.042967,91.2484833 333.759425,91.0730307 333.57185,90.8123019 C333.384276,90.551573 333.308061,90.2269639 333.36,89.91 C333.418201,89.6157789 333.586254,89.3547605 333.83,89.18 L333.85,89.14 Z M334.23,65.23 L334.43,65.23 C334.747033,65.2815167 335.030575,65.4569693 335.21815,65.7176981 C335.405724,65.978427 335.481939,66.3030361 335.43,66.62 C335.378483,66.9370328 335.203031,67.2205749 334.942302,67.4081496 C334.681573,67.5957243 334.356964,67.6719389 334.04,67.62 C333.720712,67.5716467 333.435191,67.3945515 333.25,67.13 C333.059141,66.8715478 332.979894,66.5473546 333.03,66.23 C333.154575,65.6759801 333.642222,65.2792503 334.21,65.27 L334.23,65.23 Z M198,138.84 C196.983796,138.84 196.16,139.663796 196.16,140.68 C196.16,141.696204 196.983796,142.52 198,142.52 C199.016204,142.52 199.84,141.696204 199.84,140.68 C199.834534,139.666069 199.013931,138.845466 198,138.84 Z M198,155.84 C196.983796,155.84 196.16,156.663796 196.16,157.68 C196.16,158.696204 196.983796,159.52 198,159.52 C199.016204,159.52 199.84,158.696204 199.84,157.68 C199.842659,157.189347 199.650295,156.717735 199.305227,156.368916 C198.960158,156.020096 198.490653,155.822645 198,155.82 L198,155.84 Z M198,210.51 C196.983796,210.51 196.16,211.333796 196.16,212.35 C196.16,213.366204 196.983796,214.19 198,214.19 C199.016204,214.19 199.84,213.366204 199.84,212.35 C199.842659,211.859347 199.650295,211.387735 199.305227,211.038916 C198.960158,210.690096 198.490653,210.492645 198,210.49 L198,210.51 Z M166.66,151.84 C165.643796,151.84 164.82,152.663796 164.82,153.68 C164.82,154.696204 165.643796,155.52 166.66,155.52 C167.676204,155.52 168.5,154.696204 168.5,153.68 C168.50533,153.190274 168.315202,152.71863 167.97172,152.369517 C167.628238,152.020405 167.159748,151.822633 166.67,151.82 L166.66,151.84 Z M153.66,183.18 C152.643796,183.18 151.82,184.003796 151.82,185.02 C151.82,186.036204 152.643796,186.86 153.66,186.86 C154.676204,186.86 155.5,186.036204 155.5,185.02 C155.508014,184.532925 155.321497,184.062757 154.981761,183.713636 C154.642025,183.364515 154.177112,183.165258 153.69,183.16 L153.66,183.18 Z M166.66,214.52 C165.914882,214.520011 165.243327,214.969402 164.959126,215.658192 C164.674925,216.346981 164.834189,217.139176 165.362501,217.664617 C165.890812,218.190057 166.683864,218.345002 167.371094,218.057051 C168.058325,217.769101 168.50405,217.095107 168.5,216.35 C168.505342,215.861198 168.3149,215.390576 167.971128,215.043046 C167.627356,214.695517 167.158831,214.499971 166.67,214.5 L166.66,214.52 Z M178.66,202.52 C177.643796,202.52 176.82,203.343796 176.82,204.36 C176.82,205.376204 177.643796,206.2 178.66,206.2 C179.676204,206.2 180.5,205.376204 180.5,204.36 C180.508014,203.870273 180.320443,203.397561 179.978832,203.046565 C179.63722,202.695569 179.169764,202.495258 178.68,202.49 L178.66,202.52 Z M170.66,183.19 C169.914893,183.18595 169.240899,183.631675 168.952949,184.318906 C168.664998,185.006136 168.819943,185.799188 169.345383,186.327499 C169.870824,186.855811 170.663019,187.015075 171.351808,186.730874 C172.040598,186.446673 172.489989,185.775118 172.49,185.03 C172.498022,184.541983 172.311817,184.070774 171.972362,183.720066 C171.632908,183.369359 171.168019,183.167892 170.68,183.16 L170.66,183.19 Z M225.33,183.19 C224.313796,183.19 223.49,184.013796 223.49,185.03 C223.49,186.046204 224.313796,186.87 225.33,186.87 C226.346204,186.87 227.17,186.046204 227.17,185.03 C227.178014,184.540273 226.990443,184.067561 226.648832,183.716565 C226.30722,183.365569 225.839764,183.165258 225.35,183.16 L225.33,183.19 Z M178.66,163.86 C177.643796,163.86 176.82,164.683796 176.82,165.7 C176.82,166.716204 177.643796,167.54 178.66,167.54 C179.676204,167.54 180.5,166.716204 180.5,165.7 C180.508014,165.210273 180.320443,164.737561 179.978832,164.386565 C179.63722,164.035569 179.169764,163.835258 178.68,163.83 L178.66,163.86 Z M198,227.48 C197.254882,227.480011 196.583327,227.929402 196.299126,228.618192 C196.014925,229.306981 196.174189,230.099176 196.702501,230.624617 C197.230812,231.150057 198.023864,231.305002 198.711094,231.017051 C199.398325,230.729101 199.84405,230.055107 199.84,229.31 C199.834498,228.297703 199.012311,227.479985 198,227.48 Z M229.34,214.48 C228.594882,214.480011 227.923327,214.929402 227.639126,215.618192 C227.354925,216.306981 227.514189,217.099176 228.042501,217.624617 C228.570812,218.150057 229.363864,218.305002 230.051094,218.017051 C230.738325,217.729101 231.18405,217.055107 231.18,216.31 C231.163698,215.30941 230.350708,214.505306 229.35,214.5 L229.34,214.48 Z M217.34,202.48 C216.323796,202.48 215.5,203.303796 215.5,204.32 C215.5,205.336204 216.323796,206.16 217.34,206.16 C218.356204,206.16 219.18,205.336204 219.18,204.32 C219.174498,203.307703 218.352311,202.489985 217.34,202.49 L217.34,202.48 Z M217.34,163.82 C216.323796,163.82 215.5,164.643796 215.5,165.66 C215.5,166.676204 216.323796,167.5 217.34,167.5 C218.356204,167.5 219.18,166.676204 219.18,165.66 C219.174498,164.647703 218.352311,163.829985 217.34,163.83 L217.34,163.82 Z M210,154.92 C209.504759,154.915957 209.056215,155.211708 208.864823,155.668489 C208.67343,156.125269 208.777171,156.65243 209.12737,157.00263 C209.47757,157.352829 210.004731,157.45657 210.461511,157.265177 C210.918292,157.073785 211.214043,156.625241 211.21,156.13 C211.204563,155.464001 210.665999,154.925437 210,154.92 Z M186.09,154.92 C185.594759,154.915957 185.146215,155.211708 184.954823,155.668489 C184.76343,156.125269 184.867171,156.65243 185.21737,157.00263 C185.56757,157.352829 186.094731,157.45657 186.551511,157.265177 C187.008292,157.073785 187.304043,156.625241 187.3,156.13 C187.297377,155.804678 187.164927,155.493878 186.932083,155.266667 C186.699238,155.039456 186.385289,154.914656 186.06,154.92 L186.09,154.92 Z M170.39,173.31 C170.332928,172.681555 169.806032,172.20034 169.175,172.20034 C168.543968,172.20034 168.017072,172.681555 167.96,173.31 C167.918189,173.770395 168.140192,174.214874 168.533387,174.457998 C168.926582,174.701121 169.423418,174.701121 169.816613,174.457998 C170.209808,174.214874 170.431811,173.770395 170.39,173.31 Z M170.39,196.95 C170.332928,196.321555 169.806032,195.84034 169.175,195.84034 C168.543968,195.84034 168.017072,196.321555 167.96,196.95 C167.918189,197.410395 168.140192,197.854874 168.533387,198.097998 C168.926582,198.341121 169.423418,198.341121 169.816613,198.097998 C170.209808,197.854874 170.431811,197.410395 170.39,196.95 Z M186.09,212.65 C185.421735,212.65 184.88,213.191735 184.88,213.86 C184.88,214.528265 185.421735,215.07 186.09,215.07 C186.758265,215.07 187.3,214.528265 187.3,213.86 C187.297377,213.534678 187.164927,213.223878 186.932083,212.996667 C186.699238,212.769456 186.385289,212.644656 186.06,212.65 L186.09,212.65 Z M208.8,213.65 C208.745138,213.968499 208.819971,214.295709 209.007821,214.558699 C209.195671,214.821689 209.480924,214.9986 209.8,215.05 C210.246537,215.161492 210.717814,215.0122 211.018707,214.663934 C211.319601,214.315669 211.398894,213.827711 211.223757,213.402091 C211.04862,212.976471 210.648863,212.685635 210.19,212.65 L210,212.65 C209.411874,212.646677 208.908013,213.070089 208.81,213.65 L208.8,213.65 Z M226,196.8 C225.948061,197.116964 226.024276,197.441573 226.21185,197.702302 C226.399425,197.963031 226.682967,198.138483 227,198.19 C227.65998,198.297696 228.282304,197.84998 228.39,197.19 C228.497696,196.53002 228.04998,195.907696 227.39,195.8 L227.2,195.8 C226.611065,195.8 226.106201,196.22072 226,196.8 Z M225.68,173.12 C225.622314,173.436137 225.698357,173.762039 225.89,174.02 C226.075191,174.284552 226.360712,174.461647 226.68,174.51 C226.996005,174.562962 227.320067,174.487347 227.58,174.3 C227.844552,174.114809 228.021647,173.829288 228.07,173.51 C228.121939,173.193036 228.045724,172.868427 227.85815,172.607698 C227.670575,172.346969 227.387033,172.171517 227.07,172.12 C227.003698,172.110142 226.936302,172.110142 226.87,172.12 C226.281874,172.116677 225.778013,172.540089 225.68,173.12 Z"></path>
            </g>
        </g>
    </g>
</svg>