<?xml version="1.0" encoding="UTF-8"?>
<svg width="84px" height="98px" viewBox="0 0 84 98" version="1.1" xmlns="http://www.w3.org/2000/svg" xmlns:xlink="http://www.w3.org/1999/xlink">
    <!-- Generator: Sketch 52.2 (67145) - http://www.bohemiancoding.com/sketch -->
    <title>Group 25</title>
    <desc>Created with Sketch.</desc>
    <g id="Page-1" stroke="none" stroke-width="1" fill="none" fill-rule="evenodd">
        <g id="Group-25">
            <path d="M20.919,98 L83.675,98 L83.675,31.752 L20.919,31.752 L20.919,98 Z M24.405,94.52 L80.189,94.52 L80.189,35.231 L24.405,35.231 L24.405,94.52 Z" id="Fill-1" fill="#003462"></path>
            <path d="M20.919,35.231 L83.675,35.231 L83.675,20.878 L20.919,20.878 L20.919,35.231 Z M24.405,31.751 L80.189,31.751 L80.189,24.357 L24.405,24.357 L24.405,31.751 Z" id="Fill-2" fill="#003462"></path>
            <polygon id="Fill-3" fill="#003462" points="42.422 29.794 45.909 29.794 45.909 26.315 42.422 26.315"></polygon>
            <polygon id="Fill-4" fill="#003462" points="35.446 29.794 38.932 29.794 38.932 26.315 35.446 26.315"></polygon>
            <polygon id="Fill-5" fill="#003462" points="28.474 29.794 31.96 29.794 31.96 26.315 28.474 26.315"></polygon>
            <polygon id="Fill-6" fill="#00A7E2" points="28.474 90.464 76.122 90.464 76.122 39.293 28.474 39.293"></polygon>
            <polygon id="Fill-7" fill="#242D3C" points="33.123 46.086 41.513 46.086 41.513 42.606 33.123 42.606"></polygon>
            <polygon id="Fill-8" fill="#242D3C" points="41.508 57.82 50.529 57.82 50.529 54.341 41.508 54.341"></polygon>
            <polygon id="Fill-9" fill="#242D3C" points="41.508 63.681 50.529 63.681 50.529 60.201 41.508 60.201"></polygon>
            <polygon id="Fill-10" fill="#242D3C" points="41.508 81.277 50.529 81.277 50.529 77.797 41.508 77.797"></polygon>
            <polygon id="Fill-11" fill="#242D3C" points="41.508 87.142 50.529 87.142 50.529 83.662 41.508 83.662"></polygon>
            <polygon id="Fill-12" fill="#242D3C" points="33.123 51.951 50.532 51.951 50.532 48.471 33.123 48.471"></polygon>
            <polygon id="Fill-13" fill="#242D3C" points="33.123 69.551 41.513 69.551 41.513 66.071 33.123 66.071"></polygon>
            <polygon id="Fill-14" fill="#242D3C" points="33.123 75.411 50.532 75.411 50.532 71.932 33.123 71.932"></polygon>
            <polygon id="Fill-15" fill="#242D3C" points="54.062 57.82 63.084 57.82 63.084 54.341 54.062 54.341"></polygon>
            <polygon id="Fill-16" fill="#242D3C" points="54.062 63.681 71.474 63.681 71.474 60.201 54.062 60.201"></polygon>
            <polygon id="Fill-17" fill="#242D3C" points="54.062 51.951 63.084 51.951 63.084 48.471 54.062 48.471"></polygon>
            <polygon id="Fill-18" fill="#242D3C" points="54.062 81.282 63.084 81.282 63.084 77.802 54.062 77.802"></polygon>
            <polygon id="Fill-19" fill="#242D3C" points="54.062 87.147 71.474 87.147 71.474 83.668 54.062 83.668"></polygon>
            <polygon id="Fill-20" fill="#242D3C" points="54.062 75.411 63.084 75.411 63.084 71.932 54.062 71.932"></polygon>
            <polygon id="Fill-21" fill="#003462" points="17.4323 87.5615 10.4593 87.5615 10.4593 10.4385 73.2153 10.4385 73.2153 17.3985 69.7293 17.3985 69.7293 13.9185 13.9463 13.9185 13.9463 84.0815 17.4323 84.0815"></polygon>
            <polygon id="Fill-22" fill="#003462" points="0 -0.0001 0 77.1219 6.973 77.1219 6.973 73.6429 3.487 73.6429 3.487 3.4799 59.27 3.4799 59.27 6.9599 62.756 6.9599 62.756 -0.0001"></polygon>
            <polygon id="Fill-23" fill="#003462" points="74.9583 -0.0001 74.9583 3.4799 80.1893 3.4799 80.1893 8.6989 83.6753 8.6989 83.6753 -0.0001"></polygon>
            <polygon id="Fill-24" fill="#003462" points="0 89.2997 0 97.9997 8.716 97.9997 8.716 94.5207 3.487 94.5207 3.487 89.2997"></polygon>
        </g>
    </g>
</svg>