<?xml version="1.0" encoding="UTF-8"?>
<svg width="84px" height="87px" viewBox="0 0 84 87" version="1.1" xmlns="http://www.w3.org/2000/svg" xmlns:xlink="http://www.w3.org/1999/xlink">
    <!-- Generator: Sketch 52.1 (67048) - http://www.bohemiancoding.com/sketch -->
    <title>icon-efficient copy</title>
    <desc>Created with Sketch.</desc>
    <g id="Sitemap" stroke="none" stroke-width="1" fill="none" fill-rule="evenodd">
        <g id="Page"></g>
        <g id="icon-efficient-copy">
            <g id="Group" fill="#242D3C">
                <polygon id="Path" points="64.2487773 87 0.0819595142 87 0.0819595142 10.0694004 64.2487773 10.0694004 64.2487773 13.2917988 3.30626721 13.2917988 3.30626721 83.7779414 64.2487773 83.7779414"></polygon>
                <polygon id="Path" points="64.2487773 13.2917988 0.0819595142 13.2917988 0.0819595142 0 64.2487773 0 64.2487773 3.22205859 3.30626721 3.22205859 3.30626721 10.0694004 64.2487773 10.0694004"></polygon>
            </g>
            <rect id="Rectangle" fill="#00A6E2" x="7.068583" y="17.052" width="57.1815547" height="62.96625"></rect>
            <g id="Group" transform="translate(6.971660, 4.927734)" fill="#242D3C">
                <rect id="Rectangle" x="12.9933036" y="0.106880859" width="3.22430769" height="3.22205859"></rect>
                <rect id="Rectangle" x="6.54604858" y="0.106880859" width="3.22430769" height="3.22205859"></rect>
                <rect id="Rectangle" x="0.0969230769" y="0.106880859" width="3.22464777" height="3.22205859"></rect>
            </g>
            <rect id="Rectangle" fill="#FFFFFF" x="14.3913765" y="24.368666" width="9.67241296" height="9.66566602"></rect>
            <g id="Group" transform="translate(17.514170, 24.298828)" fill="#242D3C">
                <rect id="Rectangle" x="0.10134413" y="3.29325586" width="3.22430769" height="3.22239844"></rect>
                <rect id="Rectangle" x="9.7725668" y="0.0698378906" width="29.6355061" height="3.22205859"></rect>
                <rect id="Rectangle" x="9.7725668" y="6.51344531" width="14.817668" height="3.22205859"></rect>
            </g>
            <rect id="Rectangle" fill="#FFFFFF" x="14.3913765" y="37.25775" width="9.67241296" height="9.66566602"></rect>
            <g id="Group" transform="translate(17.514170, 37.212891)" fill="#242D3C">
                <rect id="Rectangle" x="0.10134413" y="3.26827734" width="3.22430769" height="3.22205859"></rect>
                <rect id="Rectangle" x="9.7725668" y="0.044859375" width="29.6355061" height="3.22239844"></rect>
                <rect id="Rectangle" x="9.7725668" y="6.48727734" width="14.817668" height="3.22205859"></rect>
            </g>
            <rect id="Rectangle" fill="#FFFFFF" x="14.3913765" y="50.146834" width="9.67241296" height="9.66566602"></rect>
            <g id="Group" transform="translate(27.206478, 50.126953)" fill="#242D3C">
                <rect id="Rectangle" x="0.0802591093" y="0.0198808594" width="29.6355061" height="3.22239844"></rect>
                <rect id="Rectangle" x="0.0802591093" y="6.46212891" width="14.817668" height="3.22205859"></rect>
            </g>
            <rect id="Rectangle" fill="#FFFFFF" x="14.3913765" y="63.035918" width="9.67241296" height="9.66566602"></rect>
            <g id="Group" transform="translate(27.206478, 62.871094)" fill="#242D3C">
                <rect id="Rectangle" x="0.0802591093" y="0.164824219" width="29.6355061" height="3.22205859"></rect>
                <rect id="Rectangle" x="0.0802591093" y="6.60707227" width="14.817668" height="3.22205859"></rect>
            </g>
            <polygon id="Path" fill="#EDF0F0" points="82.3060567 73.602 76.5017247 67.801207 70.6979028 73.602 70.6979028 11.6805996 82.3060567 11.6805996"></polygon>
            <g id="Group" transform="translate(69.036437, 0.000000)" fill="#242D3C">
                <rect id="Rectangle" x="5.85517409" y="11.6805996" width="3.22430769" height="56.119418"></rect>
                <polygon id="Path" points="7.46528745 87 0.0494817814 74.0300332 0.0494817814 11.6805996 3.27378947 11.6805996 3.27378947 73.1739668 7.46528745 80.5050762 11.6572955 73.1739668 11.6572955 11.6805996 14.8816032 11.6805996 14.8816032 74.0300332"></polygon>
                <polygon id="Path" points="12.129498 74.7408164 7.46528745 70.0801992 2.801417 74.7408164 0.521684211 72.4626738 7.46528745 65.5223848 14.4092308 72.4626738"></polygon>
                <path d="M14.8816032,13.2917988 L0.0494817814,13.2917988 L0.0494817814,4.51176562 C0.0494817814,3.30718945 0.518283401,2.17449023 1.37103644,1.32199219 C2.2251498,0.468984375 3.35863968,0 4.56354656,0 L10.3683887,0 C11.5738057,0 12.7072955,0.468984375 13.5591984,1.32114258 C14.4128016,2.17466016 14.8816032,3.30735937 14.8816032,4.51193555 L14.8816032,13.2917988 Z M3.27378947,10.0694004 L11.6572955,10.0694004 L11.6572955,4.51176562 C11.6572955,4.16767383 11.5222834,3.8427832 11.2789555,3.59877539 C11.0356275,3.3564668 10.7125506,3.22256836 10.3682186,3.22256836 L4.56337652,3.22256836 C4.21853441,3.22256836 3.89511741,3.3564668 3.65059919,3.60013477 C3.40812146,3.84329297 3.27361943,4.16784375 3.27361943,4.51193555 L3.27361943,10.0694004 L3.27378947,10.0694004 Z" id="Shape" fill-rule="nonzero"></path>
            </g>
        </g>
    </g>
</svg>