<?xml version="1.0" encoding="UTF-8"?>
<svg width="32px" height="32px" viewBox="0 0 32 32" version="1.1" xmlns="http://www.w3.org/2000/svg" xmlns:xlink="http://www.w3.org/1999/xlink">
    <!-- Generator: Sketch 52.1 (67048) - http://www.bohemiancoding.com/sketch -->
    <title>018-check</title>
    <desc>Created with Sketch.</desc>
    <g id="Sitemap" stroke="none" stroke-width="1" fill="none" fill-rule="evenodd">
        <g id="Topaz-ContentMockup-Rough-Desktop-v1.1-Copy-3" transform="translate(-133.000000, -2773.000000)" fill="#041B15">
            <g id="018-check" transform="translate(133.000000, 2773.000000)">
                <path d="M16,0 C7.1770625,0 0,7.1770625 0,16 C0,24.8229375 7.1770625,32 16,32 C24.8229375,32 32,24.8216875 32,16 C32,7.1783125 24.8229375,0 16,0 Z M16,29.5213125 C8.5453125,29.5213125 2.4786875,23.4559375 2.4786875,16 C2.4786875,8.5440625 8.5453125,2.4786875 16,2.4786875 C23.4559375,2.4786875 29.5213125,8.5440625 29.5213125,16 C29.5213125,23.4559375 23.4546875,29.5213125 16,29.5213125 Z" id="Shape" fill-rule="nonzero"></path>
                <path d="M23.3406875,11.3807328 C22.83625,11.0000631 22.05175,11.0298961 21.59075,11.4506718 L14.0306875,18.3613544 L10.3783125,15.279004 C9.8961875,14.8736378 9.1129375,14.8674636 8.625875,15.2666557 C8.1375625,15.6648102 8.130125,16.3160526 8.611,16.7214188 L13.1829375,20.5795322 C13.4171875,20.7770529 13.7344375,20.8871498 14.0665625,20.8871498 C14.074,20.8871498 14.0826875,20.8871498 14.090125,20.8881875 C14.4321875,20.8820134 14.7544375,20.7606058 14.9836875,20.5507368 L23.424875,12.8345101 C23.88475,12.4126449 23.8475625,11.7624401 23.3406875,11.3807328 Z" id="Path"></path>
            </g>
        </g>
        <g id="Page"></g>
    </g>
</svg>