<?xml version="1.0" encoding="UTF-8"?>
<svg width="99px" height="87px" viewBox="0 0 99 87" version="1.1" xmlns="http://www.w3.org/2000/svg" xmlns:xlink="http://www.w3.org/1999/xlink">
    <!-- Generator: Sketch 52.2 (67145) - http://www.bohemiancoding.com/sketch -->
    <title>Group 50</title>
    <desc>Created with Sketch.</desc>
    <defs>
        <path d="M2.112,0.94 C1.462,0.94 0.934,1.464 0.934,2.112 L0.934,14.146 L96.066,14.146 L96.066,2.112 C96.066,1.464 95.54,0.94 94.887,0.94 L2.112,0.94 Z" id="path-1"></path>
        <path d="M0.934,0.147 L0.934,68.903 C0.934,69.55 1.461,70.076 2.112,70.076 L94.888,70.076 C95.539,70.076 96.066,69.55 96.066,68.903 L96.066,0.147 L0.934,0.147 Z" id="path-3"></path>
        <path d="M1.794,0.775 C1.67,0.801 1.549,0.837 1.433,0.885 C1.318,0.933 1.202,0.993 1.098,1.062 C0.992,1.131 0.894,1.211 0.804,1.3 C0.716,1.389 0.634,1.487 0.565,1.593 C0.495,1.697 0.436,1.809 0.386,1.926 C0.338,2.043 0.302,2.163 0.275,2.286 C0.251,2.408 0.238,2.537 0.238,2.661 C0.238,2.786 0.251,2.914 0.275,3.04 C0.302,3.16 0.338,3.281 0.386,3.4 C0.436,3.514 0.495,3.627 0.565,3.73 C0.634,3.835 0.716,3.934 0.804,4.023 C0.894,4.113 0.992,4.192 1.098,4.263 C1.202,4.332 1.318,4.391 1.433,4.44 C1.549,4.487 1.67,4.525 1.794,4.549 C1.918,4.574 2.047,4.586 2.172,4.586 C2.682,4.586 3.179,4.382 3.539,4.023 C3.627,3.934 3.708,3.836 3.779,3.73 C3.85,3.627 3.909,3.514 3.958,3.4 C4.006,3.281 4.044,3.16 4.068,3.04 C4.093,2.914 4.105,2.786 4.105,2.661 C4.105,2.537 4.093,2.409 4.068,2.286 C4.044,2.163 4.006,2.043 3.958,1.926 C3.909,1.809 3.85,1.697 3.779,1.593 C3.708,1.487 3.627,1.389 3.539,1.3 C3.177,0.942 2.675,0.738 2.166,0.738 C2.042,0.738 1.918,0.751 1.794,0.775 Z" id="path-5"></path>
        <path d="M1.929,0.775 C1.807,0.801 1.686,0.837 1.568,0.885 C1.452,0.933 1.338,0.993 1.235,1.062 C1.128,1.131 1.031,1.211 0.941,1.3 C0.852,1.389 0.771,1.487 0.7,1.593 C0.631,1.697 0.572,1.809 0.524,1.926 C0.475,2.043 0.437,2.163 0.413,2.286 C0.388,2.408 0.374,2.537 0.374,2.661 C0.374,2.786 0.388,2.914 0.413,3.04 C0.437,3.16 0.475,3.281 0.524,3.4 C0.572,3.514 0.631,3.627 0.7,3.73 C0.771,3.835 0.852,3.934 0.941,4.023 C1.031,4.113 1.128,4.192 1.235,4.263 C1.338,4.332 1.452,4.391 1.568,4.44 C1.686,4.487 1.807,4.525 1.929,4.549 C2.055,4.574 2.183,4.586 2.308,4.586 C2.434,4.586 2.562,4.574 2.685,4.549 C2.809,4.525 2.93,4.487 3.047,4.44 C3.164,4.391 3.277,4.332 3.381,4.263 C3.488,4.192 3.586,4.113 3.675,4.023 C3.764,3.934 3.845,3.836 3.914,3.73 C3.984,3.627 4.044,3.514 4.093,3.4 C4.141,3.281 4.177,3.16 4.204,3.04 C4.227,2.914 4.242,2.786 4.242,2.661 C4.242,2.537 4.227,2.409 4.204,2.286 C4.177,2.163 4.141,2.043 4.093,1.926 C4.044,1.809 3.984,1.697 3.914,1.593 C3.845,1.487 3.764,1.389 3.675,1.3 C3.586,1.211 3.488,1.131 3.381,1.062 C3.277,0.993 3.164,0.933 3.047,0.885 C2.93,0.837 2.809,0.801 2.685,0.775 C2.56,0.75 2.433,0.738 2.307,0.738 C2.18,0.738 2.053,0.75 1.929,0.775 Z" id="path-7"></path>
        <path d="M1.658,0.775 C1.535,0.801 1.414,0.837 1.295,0.885 C1.18,0.933 1.067,0.993 0.963,1.062 C0.857,1.131 0.758,1.211 0.669,1.3 C0.58,1.389 0.498,1.487 0.428,1.593 C0.357,1.697 0.299,1.809 0.249,1.926 C0.201,2.043 0.164,2.163 0.139,2.286 C0.115,2.408 0.102,2.537 0.102,2.661 C0.102,2.786 0.115,2.914 0.139,3.04 C0.164,3.16 0.201,3.281 0.249,3.4 C0.299,3.514 0.357,3.627 0.428,3.73 C0.498,3.835 0.58,3.934 0.669,4.023 C0.758,4.113 0.857,4.192 0.963,4.263 C1.067,4.332 1.18,4.391 1.295,4.44 C1.414,4.487 1.535,4.525 1.658,4.549 C1.783,4.574 1.91,4.586 2.036,4.586 C2.161,4.586 2.289,4.574 2.413,4.549 C2.538,4.525 2.658,4.487 2.774,4.44 C2.892,4.391 3.005,4.332 3.108,4.263 C3.215,4.192 3.314,4.113 3.402,4.023 C3.764,3.664 3.971,3.168 3.971,2.661 C3.971,2.537 3.956,2.409 3.932,2.286 C3.906,2.163 3.87,2.043 3.821,1.926 C3.773,1.809 3.712,1.697 3.642,1.593 C3.574,1.487 3.492,1.389 3.404,1.3 C3.314,1.211 3.215,1.131 3.109,1.062 C3.005,0.993 2.892,0.933 2.774,0.885 C2.658,0.837 2.538,0.801 2.413,0.775 C2.289,0.75 2.162,0.738 2.036,0.738 C1.909,0.738 1.782,0.75 1.658,0.775 Z" id="path-9"></path>
        <path d="M2.553,0.596 C2.429,0.622 2.307,0.657 2.191,0.706 C2.073,0.754 1.961,0.814 1.856,0.884 C1.75,0.952 1.652,1.032 1.562,1.122 C1.474,1.21 1.393,1.309 1.323,1.414 C1.253,1.519 1.193,1.632 1.145,1.747 C1.096,1.862 1.057,1.984 1.034,2.107 C1.009,2.231 0.995,2.356 0.995,2.483 C0.995,2.608 1.009,2.733 1.034,2.859 C1.057,2.982 1.096,3.103 1.145,3.22 C1.193,3.335 1.253,3.445 1.323,3.553 C1.393,3.655 1.474,3.757 1.562,3.845 C1.652,3.933 1.75,4.014 1.856,4.084 C1.961,4.152 2.073,4.213 2.191,4.26 C2.307,4.307 2.429,4.345 2.553,4.371 C2.676,4.395 2.804,4.406 2.929,4.406 C3.055,4.406 3.183,4.395 3.306,4.371 C3.43,4.345 3.553,4.307 3.669,4.26 C3.786,4.213 3.899,4.152 4.002,4.084 C4.11,4.014 4.207,3.933 4.296,3.845 C4.386,3.757 4.466,3.655 4.536,3.553 C4.605,3.445 4.665,3.335 4.714,3.22 C4.762,3.103 4.801,2.982 4.825,2.859 C4.85,2.733 4.863,2.608 4.863,2.483 C4.863,2.356 4.85,2.231 4.825,2.107 C4.801,1.984 4.762,1.862 4.714,1.747 C4.665,1.632 4.605,1.519 4.536,1.414 C4.466,1.309 4.386,1.211 4.296,1.122 C4.207,1.032 4.11,0.952 4.002,0.884 C3.899,0.814 3.786,0.754 3.669,0.706 C3.552,0.657 3.43,0.622 3.306,0.596 C3.182,0.571 3.056,0.559 2.93,0.559 C2.804,0.559 2.678,0.571 2.553,0.596 Z" id="path-11"></path>
        <path d="M2.07,0.558 C1.004,0.558 0.137,1.421 0.137,2.482 C0.137,3.547 1.004,4.407 2.07,4.407 L52.902,4.407 C53.969,4.407 54.836,3.547 54.836,2.482 C54.836,1.421 53.97,0.558 52.902,0.558 L2.07,0.558 Z" id="path-13"></path>
        <polygon id="path-15" points="0.625 0.851 0.625 30.126 55.734 30.126 42.646 0.851"></polygon>
        <path d="M18.447,1.201 C13.716,5.576 6.794,8.973 1.613,9.462 C0.819,9.537 0.212,10.201 0.212,10.995 L0.212,30.624 C0.212,35.77 2.762,40.574 7.032,43.473 L18.628,51.349 C18.891,51.529 19.195,51.617 19.5,51.617 C19.804,51.617 20.109,51.529 20.372,51.349 L31.968,43.473 C34.611,41.679 36.595,39.155 37.723,36.273 C38.417,34.496 38.786,32.585 38.786,30.624 L38.786,10.995 C38.786,10.201 38.181,9.536 37.387,9.462 C32.208,8.973 25.284,5.576 20.553,1.201 C20.256,0.926 19.878,0.788 19.5,0.788 C19.122,0.788 18.743,0.926 18.447,1.201 Z" id="path-17"></path>
        <path d="M19.395,1.072 C14.891,5.238 8.339,8.469 3.467,8.929 C1.88,9.079 0.666,10.407 0.666,11.995 L0.666,31.624 C0.666,37.28 3.467,42.557 8.161,45.745 L19.756,53.62 C20.282,53.979 20.891,54.158 21.5,54.158 C22.109,54.158 22.718,53.979 23.245,53.62 L34.84,45.745 C39.532,42.558 42.335,37.28 42.335,31.624 L42.335,11.995 C42.335,10.406 41.121,9.078 39.532,8.929 C34.66,8.469 28.11,5.238 23.605,1.072 C23.013,0.523 22.256,0.248 21.5,0.248 C20.744,0.248 19.988,0.523 19.395,1.072 Z M9.904,43.201 C6.057,40.589 3.759,36.261 3.759,31.624 L3.759,11.995 C9.772,11.427 16.949,7.536 21.5,3.328 C26.052,7.537 33.229,11.428 39.24,11.995 L39.24,31.624 C39.24,36.261 36.943,40.589 33.098,43.201 L21.5,51.077 L9.904,43.201 Z" id="path-19"></path>
        <path d="M3.112,0.016 C1.421,0.016 0.04,1.365 0,3.039 L0,83.977 C0.04,85.65 1.421,87 3.112,87 L95.888,87 C97.605,87 98.999,85.611 98.999,83.904 L98.999,3.112 C98.999,1.405 97.605,0.016 95.888,0.016 L3.112,0.016 Z M3.867,13.222 L95.133,13.222 L95.133,3.865 L3.867,3.865 L3.867,13.222 Z M3.867,83.151 L95.133,83.151 L95.133,17.07 L3.867,17.07 L3.867,83.151 Z" id="path-21"></path>
        <path d="M0.638,10.979 C0.638,16.614 5.054,21.181 10.5,21.181 C15.946,21.181 20.362,16.614 20.362,10.979 C20.362,5.345 15.946,0.778 10.5,0.778 C5.054,0.778 0.638,5.345 0.638,10.979 Z" id="path-23"></path>
        <polygon id="path-25" points="4.485 5.26 1.818 2.501 0.335 4.034 4.486 8.328 10.665 1.934 9.182 0.399"></polygon>
    </defs>
    <g id="Page-1" stroke="none" stroke-width="1" fill="none" fill-rule="evenodd">
        <g id="Group-50" transform="translate(0.000000, -1.000000)">
            <g id="Group-3" transform="translate(1.000000, 1.985000)">
                <mask id="mask-2" fill="white">
                    <use xlink:href="#path-1"></use>
                </mask>
                <g id="Clip-2"></g>
                <polygon id="Fill-1" fill="#2988B9" mask="url(#mask-2)" points="-4.067 19.146 101.066 19.146 101.066 -4.061 -4.067 -4.061"></polygon>
            </g>
            <g id="Group-6" transform="translate(1.000000, 15.985000)">
                <mask id="mask-4" fill="white">
                    <use xlink:href="#path-3"></use>
                </mask>
                <g id="Clip-5"></g>
                <polygon id="Fill-4" fill="#EAECF0" mask="url(#mask-4)" points="-4.066 75.076 101.067 75.076 101.067 -4.853 -4.066 -4.853"></polygon>
            </g>
            <path d="M79.1712,11.5714 C79.0462,11.5714 78.9182,11.5594 78.7942,11.5344 C78.6702,11.5094 78.5492,11.4724 78.4332,11.4254 C78.3172,11.3764 78.2022,11.3174 78.0982,11.2484 C77.9922,11.1764 77.8932,11.0974 77.8042,11.0074 C77.7162,10.9184 77.6342,10.8204 77.5652,10.7154 C77.4952,10.6114 77.4352,10.4994 77.3862,10.3844 C77.3382,10.2664 77.3022,10.1454 77.2752,10.0244 C77.2512,9.8984 77.2372,9.7714 77.2372,9.6464 C77.2372,9.5224 77.2512,9.3934 77.2752,9.2714 C77.3022,9.1484 77.3382,9.0274 77.3862,8.9114 C77.4352,8.7944 77.4952,8.6824 77.5652,8.5784 C77.6342,8.4724 77.7162,8.3744 77.8042,8.2854 C77.8932,8.1964 77.9922,8.1164 78.0982,8.0474 C78.2022,7.9784 78.3172,7.9184 78.4332,7.8704 C78.5492,7.8214 78.6702,7.7854 78.7942,7.7604 C79.4232,7.6334 80.0892,7.8394 80.5382,8.2854 C80.6272,8.3744 80.7082,8.4724 80.7792,8.5784 C80.8502,8.6824 80.9092,8.7944 80.9582,8.9114 C81.0062,9.0274 81.0432,9.1484 81.0682,9.2714 C81.0932,9.3944 81.1052,9.5224 81.1052,9.6464 C81.1052,9.7714 81.0932,9.8984 81.0682,10.0244 C81.0432,10.1454 81.0062,10.2664 80.9582,10.3844 C80.9092,10.4994 80.8502,10.6114 80.7792,10.7154 C80.7082,10.8214 80.6272,10.9184 80.5382,11.0074 C80.1792,11.3664 79.6822,11.5714 79.1712,11.5714" id="Fill-7" fill="#003462"></path>
            <g id="Group-11" transform="translate(77.000000, 6.985000)">
                <mask id="mask-6" fill="white">
                    <use xlink:href="#path-5"></use>
                </mask>
                <g id="Clip-10"></g>
                <polygon id="Fill-9" fill="#003462" mask="url(#mask-6)" points="-4.763 9.586 9.105 9.586 9.105 -4.262 -4.763 -4.262"></polygon>
            </g>
            <path d="M86.3079,11.5714 C86.1829,11.5714 86.0549,11.5594 85.9289,11.5344 C85.8069,11.5094 85.6859,11.4724 85.5679,11.4254 C85.4519,11.3764 85.3389,11.3174 85.2349,11.2484 C85.1279,11.1764 85.0309,11.0974 84.9409,11.0074 C84.8519,10.9184 84.7709,10.8204 84.6999,10.7154 C84.6309,10.6114 84.5719,10.4994 84.5239,10.3844 C84.4749,10.2664 84.4369,10.1454 84.4129,10.0244 C84.3879,9.8984 84.3739,9.7714 84.3739,9.6464 C84.3739,9.5224 84.3879,9.3934 84.4129,9.2714 C84.4369,9.1484 84.4749,9.0274 84.5239,8.9114 C84.5719,8.7944 84.6309,8.6824 84.6999,8.5784 C84.7709,8.4724 84.8519,8.3744 84.9409,8.2854 C85.0309,8.1964 85.1279,8.1164 85.2349,8.0474 C85.3389,7.9784 85.4519,7.9184 85.5679,7.8704 C85.6859,7.8214 85.8069,7.7854 85.9289,7.7604 C86.1779,7.7104 86.4359,7.7104 86.6849,7.7604 C86.8089,7.7854 86.9309,7.8214 87.0469,7.8704 C87.1639,7.9184 87.2769,7.9784 87.3809,8.0474 C87.4879,8.1164 87.5859,8.1964 87.6749,8.2854 C87.7639,8.3744 87.8449,8.4724 87.9139,8.5784 C87.9839,8.6824 88.0439,8.7944 88.0929,8.9114 C88.1409,9.0274 88.1769,9.1484 88.2039,9.2714 C88.2279,9.3944 88.2419,9.5224 88.2419,9.6464 C88.2419,9.7714 88.2279,9.8984 88.2039,10.0244 C88.1769,10.1454 88.1409,10.2664 88.0929,10.3844 C88.0439,10.4994 87.9839,10.6114 87.9139,10.7154 C87.8449,10.8214 87.7639,10.9184 87.6749,11.0074 C87.5859,11.0974 87.4879,11.1764 87.3809,11.2484 C87.2769,11.3174 87.1639,11.3764 87.0469,11.4254 C86.9309,11.4724 86.8089,11.5094 86.6849,11.5344 C86.5619,11.5594 86.4339,11.5714 86.3079,11.5714" id="Fill-12" fill="#003462"></path>
            <g id="Group-16" transform="translate(84.000000, 6.985000)">
                <mask id="mask-8" fill="white">
                    <use xlink:href="#path-7"></use>
                </mask>
                <g id="Clip-15"></g>
                <polygon id="Fill-14" fill="#003462" mask="url(#mask-8)" points="-4.626 9.587 9.242 9.587 9.242 -4.262 -4.626 -4.262"></polygon>
            </g>
            <path d="M72.0364,11.5714 C71.9104,11.5714 71.7824,11.5594 71.6574,11.5344 C71.5354,11.5094 71.4134,11.4724 71.2954,11.4254 C71.1804,11.3764 71.0674,11.3174 70.9634,11.2484 C70.8564,11.1764 70.7584,11.0974 70.6694,11.0074 C70.5804,10.9184 70.4984,10.8204 70.4284,10.7154 C70.3574,10.6114 70.2984,10.4994 70.2494,10.3844 C70.2014,10.2664 70.1644,10.1454 70.1394,10.0244 C70.1144,9.8984 70.1024,9.7714 70.1024,9.6464 C70.1024,9.5224 70.1144,9.3934 70.1394,9.2714 C70.1644,9.1484 70.2014,9.0274 70.2494,8.9114 C70.2984,8.7944 70.3574,8.6824 70.4284,8.5784 C70.4984,8.4724 70.5804,8.3744 70.6694,8.2854 C70.7584,8.1964 70.8564,8.1164 70.9634,8.0474 C71.0674,7.9784 71.1804,7.9184 71.2954,7.8704 C71.4134,7.8214 71.5354,7.7854 71.6574,7.7604 C71.9064,7.7104 72.1644,7.7104 72.4134,7.7604 C72.5374,7.7854 72.6584,7.8214 72.7744,7.8704 C72.8924,7.9184 73.0054,7.9784 73.1094,8.0474 C73.2154,8.1164 73.3144,8.1964 73.4034,8.2854 C73.4914,8.3744 73.5734,8.4724 73.6424,8.5784 C73.7124,8.6824 73.7724,8.7944 73.8214,8.9114 C73.8694,9.0274 73.9054,9.1484 73.9314,9.2714 C73.9564,9.3944 73.9704,9.5224 73.9704,9.6464 C73.9704,10.1524 73.7634,10.6494 73.4024,11.0074 C73.3144,11.0974 73.2154,11.1764 73.1084,11.2484 C73.0054,11.3174 72.8924,11.3764 72.7744,11.4254 C72.6584,11.4724 72.5374,11.5094 72.4134,11.5344 C72.2894,11.5594 72.1614,11.5714 72.0364,11.5714" id="Fill-17" fill="#003462"></path>
            <g id="Group-21" transform="translate(70.000000, 6.985000)">
                <mask id="mask-10" fill="white">
                    <use xlink:href="#path-9"></use>
                </mask>
                <g id="Clip-20"></g>
                <polygon id="Fill-19" fill="#003462" mask="url(#mask-10)" points="-4.898 9.587 8.97 9.587 8.97 -4.262 -4.898 -4.262"></polygon>
            </g>
            <path d="M78.929,80.3912 C78.804,80.3912 78.676,80.3792 78.553,80.3562 C78.429,80.3292 78.307,80.2922 78.191,80.2452 C78.073,80.1982 77.961,80.1372 77.856,80.0692 C77.75,79.9982 77.652,79.9172 77.563,79.8292 C77.474,79.7422 77.393,79.6402 77.323,79.5372 C77.253,79.4302 77.193,79.3202 77.145,79.2042 C77.096,79.0882 77.058,78.9662 77.034,78.8442 C77.009,78.7182 76.995,78.5932 76.995,78.4682 C76.995,78.3412 77.009,78.2162 77.034,78.0912 C77.058,77.9682 77.096,77.8472 77.145,77.7322 C77.193,77.6172 77.253,77.5042 77.323,77.3992 C77.393,77.2942 77.474,77.1952 77.563,77.1072 C77.652,77.0172 77.75,76.9372 77.856,76.8692 C77.961,76.7982 78.073,76.7392 78.191,76.6912 C78.307,76.6422 78.429,76.6072 78.553,76.5802 C78.802,76.5322 79.059,76.5322 79.306,76.5802 C79.43,76.6072 79.552,76.6422 79.67,76.6912 C79.786,76.7392 79.899,76.7982 80.003,76.8692 C80.11,76.9372 80.207,77.0172 80.296,77.1072 C80.386,77.1962 80.466,77.2942 80.536,77.3992 C80.606,77.5042 80.665,77.6172 80.714,77.7322 C80.762,77.8472 80.801,77.9682 80.825,78.0912 C80.85,78.2162 80.863,78.3412 80.863,78.4682 C80.863,78.5932 80.85,78.7182 80.825,78.8442 C80.801,78.9662 80.762,79.0882 80.714,79.2042 C80.665,79.3202 80.606,79.4302 80.536,79.5372 C80.466,79.6402 80.386,79.7422 80.296,79.8292 C80.207,79.9172 80.11,79.9982 80.003,80.0692 C79.899,80.1372 79.786,80.1982 79.67,80.2452 C79.553,80.2922 79.43,80.3292 79.306,80.3562 C79.183,80.3792 79.056,80.3912 78.929,80.3912" id="Fill-22" fill="#003462"></path>
            <g id="Group-26" transform="translate(76.000000, 75.985000)">
                <mask id="mask-12" fill="white">
                    <use xlink:href="#path-11"></use>
                </mask>
                <g id="Clip-25"></g>
                <polygon id="Fill-24" fill="#003462" mask="url(#mask-12)" points="-4.005 9.407 9.863 9.407 9.863 -4.441 -4.005 -4.441"></polygon>
            </g>
            <path d="M70.9016,80.3922 L20.0706,80.3922 C19.0036,80.3922 18.1376,79.5322 18.1376,78.4672 C18.1376,77.4062 19.0036,76.5422 20.0706,76.5422 L70.9016,76.5422 C71.9696,76.5422 72.8356,77.4062 72.8356,78.4672 C72.8356,79.5322 71.9686,80.3922 70.9016,80.3922" id="Fill-27" fill="#003462"></path>
            <g id="Group-31" transform="translate(18.000000, 75.985000)">
                <mask id="mask-14" fill="white">
                    <use xlink:href="#path-13"></use>
                </mask>
                <g id="Clip-30"></g>
                <polygon id="Fill-29" fill="#003462" mask="url(#mask-14)" points="-4.863 9.408 59.835 9.408 59.835 -4.442 -4.863 -4.442"></polygon>
            </g>
            <g id="Group-34" transform="translate(13.000000, 37.985000)">
                <mask id="mask-16" fill="white">
                    <use xlink:href="#path-15"></use>
                </mask>
                <g id="Clip-33"></g>
                <polygon id="Fill-32" fill="#EAECF0" mask="url(#mask-16)" points="-4.375 35.126 60.735 35.126 60.735 -4.149 -4.375 -4.149"></polygon>
            </g>
            <g id="Group-37" transform="translate(30.000000, 20.985000)">
                <mask id="mask-18" fill="white">
                    <use xlink:href="#path-17"></use>
                </mask>
                <g id="Clip-36"></g>
                <polygon id="Fill-35" fill="#00A6E2" mask="url(#mask-18)" points="-4.788 56.617 43.787 56.617 43.787 -4.212 -4.788 -4.212"></polygon>
            </g>
            <g id="Group-40" transform="translate(28.000000, 19.985000)">
                <mask id="mask-20" fill="white">
                    <use xlink:href="#path-19"></use>
                </mask>
                <g id="Clip-39"></g>
                <polygon id="Fill-38" fill="#003462" mask="url(#mask-20)" points="-4.334 59.157 47.334 59.157 47.334 -4.752 -4.334 -4.752"></polygon>
            </g>
            <g id="Group-43" transform="translate(0.000000, 0.985000)">
                <mask id="mask-22" fill="white">
                    <use xlink:href="#path-21"></use>
                </mask>
                <g id="Clip-42"></g>
                <polygon id="Fill-41" fill="#003462" mask="url(#mask-22)" points="-5 92 104 92 104 -4.985 -5 -4.985"></polygon>
            </g>
            <g id="Group-46" transform="translate(39.000000, 36.985000)">
                <mask id="mask-24" fill="white">
                    <use xlink:href="#path-23"></use>
                </mask>
                <g id="Clip-45"></g>
                <polygon id="Fill-44" fill="#003462" mask="url(#mask-24)" points="-4.362 26.181 25.361 26.181 25.361 -4.222 -4.362 -4.222"></polygon>
            </g>
            <g id="Group-49" transform="translate(44.000000, 43.985000)">
                <mask id="mask-26" fill="white">
                    <use xlink:href="#path-25"></use>
                </mask>
                <g id="Clip-48"></g>
                <polygon id="Fill-47" fill="#FFFFFF" mask="url(#mask-26)" points="-4.665 13.328 15.665 13.328 15.665 -4.601 -4.665 -4.601"></polygon>
            </g>
        </g>
    </g>
</svg>