<?xml version="1.0" encoding="UTF-8"?>
<svg width="99px" height="87px" viewBox="0 0 99 87" version="1.1" xmlns="http://www.w3.org/2000/svg" xmlns:xlink="http://www.w3.org/1999/xlink">
    <!-- Generator: Sketch 52.2 (67145) - http://www.bohemiancoding.com/sketch -->
    <title>Group 25</title>
    <desc>Created with Sketch.</desc>
    <defs>
        <polygon id="path-1" points="0 86.9849867 99 86.9849867 99 0 0 0"></polygon>
    </defs>
    <g id="Sitemap" stroke="none" stroke-width="1" fill="none" fill-rule="evenodd">
        <g id="Page"></g>
        <g id="Group-25">
            <path d="M97.0664062,15.1313403 L97.0664062,3.09762345 C97.0664062,2.44955044 96.5391152,1.92485575 95.8880742,1.92485575 L3.11192578,1.92485575 C2.46088477,1.92485575 1.93359375,2.44955044 1.93359375,3.09762345 L1.93359375,15.1313403 L97.0664062,15.1313403 Z" id="Fill-1" fill="#2988B9"></path>
            <path d="M1.93359375,83.8872863 C1.93359375,84.5353593 2.46088477,85.0602465 3.11192578,85.0602465 L95.8880742,85.0602465 C96.5391152,85.0602465 97.0664062,84.5353593 97.0664062,83.8872863 L97.0664062,15.1313018 L1.93359375,15.1313018 L1.93359375,83.8872863 Z" id="Fill-3" fill="#EAECF0"></path>
            <path d="M79.1708414,10.5712699 C79.0455445,10.5712699 78.917734,10.5593363 78.793984,10.5345066 C78.6700406,10.509677 78.5484176,10.4727212 78.4322086,10.4246018 C78.3165797,10.3764823 78.2024977,10.3171991 78.0975035,10.2479071 C77.9917359,10.1764978 77.8929293,10.0975819 77.8037906,10.0073097 C77.7154254,9.91857743 77.6338277,9.82022124 77.5642184,9.71493584 C77.4948023,9.61119027 77.4344742,9.49916814 77.3861344,9.38406637 C77.3377945,9.26607743 77.301443,9.14500885 77.2757262,9.02394027 C77.2507828,8.89844469 77.2372477,8.77121681 77.2372477,8.64649115 C77.2372477,8.52176549 77.2507828,8.3937677 77.2757262,8.27135177 C77.301443,8.14797345 77.3377945,8.02690487 77.3861344,7.91122566 C77.4344742,7.79381416 77.4948023,7.68256195 77.5642184,7.57804646 C77.6338277,7.47199115 77.7154254,7.37440487 77.8037906,7.28567257 C77.8929293,7.19694027 77.9917359,7.11648451 78.0975035,7.04719248 C78.2024977,6.97809292 78.3165797,6.91803982 78.4322086,6.86992035 C78.5484176,6.82180088 78.6700406,6.78561504 78.793984,6.76001549 C79.422402,6.63375 80.0892984,6.83893142 80.5378922,7.28567257 C80.6270309,7.37440487 80.7078551,7.47199115 80.7795914,7.57804646 C80.8492008,7.68256195 80.9095289,7.79381416 80.9578688,7.91122566 C81.0062086,8.02690487 81.0425602,8.14797345 81.068277,8.27135177 C81.093027,8.39453761 81.1044352,8.52176549 81.1044352,8.64649115 C81.1044352,8.77121681 81.093027,8.89844469 81.068277,9.02394027 C81.0425602,9.14500885 81.0062086,9.26607743 80.9578688,9.38406637 C80.9095289,9.49916814 80.8492008,9.61119027 80.7795914,9.71493584 C80.7078551,9.82099115 80.6270309,9.91857743 80.5378922,10.0073097 C80.1784371,10.3668584 79.6815035,10.5712699 79.1708414,10.5712699" id="Fill-5" fill="#242D3C"></path>
            <path d="M86.3077746,10.5712699 C86.1824777,10.5712699 86.0546672,10.5593363 85.9285969,10.5345066 C85.8069738,10.509677 85.6853508,10.4727212 85.5675949,10.4246018 C85.4511926,10.3764823 85.3386574,10.3171991 85.2344367,10.2479071 C85.1278957,10.1764978 85.0298625,10.0975819 84.9407238,10.0073097 C84.8515852,9.91857743 84.7707609,9.82022124 84.6990246,9.71493584 C84.6309621,9.61119027 84.5714074,9.49916814 84.5230676,9.38406637 C84.4747277,9.26607743 84.4360559,9.14500885 84.4126594,9.02394027 C84.387716,8.89844469 84.3741809,8.77121681 84.3741809,8.64649115 C84.3741809,8.52176549 84.387716,8.3937677 84.4126594,8.27135177 C84.4360559,8.14797345 84.4747277,8.02690487 84.5230676,7.91122566 C84.5714074,7.79381416 84.6309621,7.68256195 84.6990246,7.57804646 C84.7707609,7.47199115 84.8515852,7.37440487 84.9407238,7.28567257 C85.0298625,7.19694027 85.1278957,7.11648451 85.2344367,7.04719248 C85.3386574,6.97809292 85.4511926,6.91803982 85.5675949,6.86992035 C85.6853508,6.82180088 85.8069738,6.78561504 85.9285969,6.76001549 C86.1778371,6.71035619 86.4353918,6.71035619 86.684632,6.76001549 C86.8085754,6.78561504 86.9301984,6.82180088 87.0464074,6.86992035 C87.1643566,6.91803982 87.2761184,6.97809292 87.3811125,7.04719248 C87.4876535,7.11648451 87.5856867,7.19694027 87.6748254,7.28567257 C87.7639641,7.37440487 87.8447883,7.47199115 87.9143977,7.57804646 C87.9838137,7.68256195 88.0441418,7.79381416 88.0924816,7.91122566 C88.1408215,8.02690487 88.177173,8.14797345 88.2028898,8.27135177 C88.2278332,8.39453761 88.2413684,8.52176549 88.2413684,8.64649115 C88.2413684,8.77121681 88.2278332,8.89844469 88.2028898,9.02394027 C88.177173,9.14500885 88.1408215,9.26607743 88.0924816,9.38406637 C88.0441418,9.49916814 87.9838137,9.61119027 87.9143977,9.71493584 C87.8447883,9.82099115 87.7639641,9.91857743 87.6748254,10.0073097 C87.5856867,10.0975819 87.4876535,10.1764978 87.3811125,10.2479071 C87.2761184,10.3171991 87.1643566,10.3764823 87.0464074,10.4246018 C86.9301984,10.4727212 86.8085754,10.509677 86.684632,10.5345066 C86.5614621,10.5593363 86.4338449,10.5712699 86.3077746,10.5712699" id="Fill-7" fill="#242D3C"></path>
            <path d="M72.0361898,10.5712699 C71.9101195,10.5712699 71.7825023,10.5593363 71.6570121,10.5345066 C71.5353891,10.509677 71.4129926,10.4727212 71.2952367,10.4246018 C71.1796078,10.3764823 71.0670727,10.3171991 70.962852,10.2479071 C70.8563109,10.1764978 70.7582777,10.0975819 70.6691391,10.0073097 C70.5800004,9.91857743 70.4984027,9.82022124 70.4274398,9.71493584 C70.3578305,9.61119027 70.2975023,9.49916814 70.2491625,9.38406637 C70.2008227,9.26607743 70.1636977,9.14500885 70.1387543,9.02394027 C70.1140043,8.89844469 70.1025961,8.77121681 70.1025961,8.64649115 C70.1025961,8.52176549 70.1140043,8.3937677 70.1387543,8.27135177 C70.1644711,8.14797345 70.2008227,8.02690487 70.2491625,7.91122566 C70.2975023,7.79381416 70.357057,7.68256195 70.4274398,7.57804646 C70.4984027,7.47199115 70.5800004,7.37440487 70.6691391,7.28567257 C70.7575043,7.19694027 70.8563109,7.11648451 70.962852,7.04719248 C71.0670727,6.97809292 71.1796078,6.91803982 71.2952367,6.86992035 C71.4129926,6.82180088 71.5353891,6.78561504 71.6570121,6.76001549 C71.9062523,6.71035619 72.163807,6.71035619 72.4130473,6.76001549 C72.5369906,6.78561504 72.6586137,6.82180088 72.7748227,6.86992035 C72.8927719,6.91803982 73.0045336,6.97809292 73.1095277,7.04719248 C73.2152953,7.11648451 73.314102,7.19694027 73.4032406,7.28567257 C73.4916059,7.37440487 73.5732035,7.47199115 73.6428129,7.57804646 C73.7122289,7.68256195 73.772557,7.79381416 73.8208969,7.91122566 C73.8692367,8.02690487 73.9055883,8.14797345 73.9305316,8.27135177 C73.9562484,8.39453761 73.9697836,8.52176549 73.9697836,8.64649115 C73.9697836,9.15251549 73.7628891,9.64949336 73.4024672,10.0073097 C73.314102,10.0975819 73.2152953,10.1764978 73.1087543,10.2479071 C73.0045336,10.3171991 72.8927719,10.3764823 72.7740492,10.4246018 C72.6586137,10.4727212 72.5369906,10.509677 72.4130473,10.5345066 C72.2892973,10.5593363 72.1614867,10.5712699 72.0361898,10.5712699" id="Fill-9" fill="#242D3C"></path>
            <path d="M78.9291422,79.3918885 C78.8038453,79.3918885 78.6760348,79.3799549 78.5522848,79.3551252 C78.4283414,79.3302956 78.3067184,79.2933398 78.1905094,79.2452204 C78.0725602,79.1971009 77.9607984,79.1378177 77.8558043,79.0685257 C77.7500367,78.9994261 77.6512301,78.9182004 77.5620914,78.8294681 C77.4737262,78.7415058 77.3921285,78.6408398 77.3225191,78.5370942 C77.2531031,78.4310389 77.192775,78.3197867 77.1444352,78.203915 C77.0960953,78.0888133 77.0574234,77.9671673 77.034027,77.8445588 C77.0090836,77.7190633 76.9955484,77.5941451 76.9955484,77.4686496 C76.9955484,77.3416142 77.0090836,77.216696 77.034027,77.0919704 C77.0574234,76.968592 77.0960953,76.8475235 77.1444352,76.7318442 C77.192775,76.6159726 77.2531031,76.5047204 77.3225191,76.398665 C77.3921285,76.2949195 77.4737262,76.1942535 77.5620914,76.1062912 C77.6512301,76.0175588 77.7500367,75.9371031 77.8558043,75.8678111 C77.9607984,75.7987115 78.0725602,75.7386584 78.1905094,75.6905389 C78.3067184,75.6424195 78.4283414,75.6062336 78.5522848,75.5806341 C78.801525,75.5309748 79.0590797,75.5309748 79.3059996,75.5806341 C79.429943,75.6062336 79.551566,75.6424195 79.6700953,75.6905389 C79.7857242,75.7386584 79.8982594,75.7987115 80.0024801,75.8678111 C80.1090211,75.9371031 80.2070543,76.0175588 80.296193,76.1062912 C80.3853316,76.1950235 80.4661559,76.2949195 80.5365387,76.398665 C80.6059547,76.5047204 80.6655094,76.6159726 80.7138492,76.7318442 C80.7621891,76.8475235 80.8008609,76.968592 80.8242574,77.0919704 C80.8492008,77.216696 80.8627359,77.3416142 80.8627359,77.4686496 C80.8627359,77.5941451 80.8492008,77.7190633 80.8242574,77.8445588 C80.8008609,77.9671673 80.7621891,78.0888133 80.7138492,78.203915 C80.6655094,78.3197867 80.6059547,78.4310389 80.5365387,78.5370942 C80.4661559,78.6408398 80.3853316,78.7415058 80.296193,78.8294681 C80.2070543,78.9182004 80.1090211,78.9994261 80.0024801,79.0685257 C79.8982594,79.1378177 79.7857242,79.1971009 79.6700953,79.2452204 C79.5523395,79.2933398 79.429943,79.3302956 79.3059996,79.3551252 C79.1828297,79.3799549 79.0552125,79.3918885 78.9291422,79.3918885" id="Fill-11" fill="#242D3C"></path>
            <path d="M70.9017117,79.3926392 L20.0708191,79.3926392 C19.0028953,79.3926392 18.1372254,78.5309157 18.1372254,77.4678604 C18.1372254,76.4048051 19.0028953,75.5430816 20.0708191,75.5430816 L70.9017117,75.5430816 C71.9696355,75.5430816 72.8353055,76.4048051 72.8353055,77.4678604 C72.8353055,78.5309157 71.9690555,79.3926392 70.9017117,79.3926392" id="Fill-13" fill="#242D3C"></path>
            <polyline id="Fill-15" fill="#EAECF0" points="55.6467205 37.8354531 13.6243143 37.8354531 13.6243143 67.1101832 68.7340564 67.1101832"></polyline>
            <path d="M48.6281426,71.33386 L37.0318008,63.4578577 C32.7618457,60.5581785 30.2124023,55.7548931 30.2124023,50.6093821 L30.2124023,30.9797184 C30.2124023,30.1857471 30.8189707,29.5218909 31.6130977,29.4468246 C36.7933887,28.9573533 43.7156543,25.5599263 48.4471582,21.1849042 C48.7439648,20.9106232 49.1219824,20.7733865 49.5,20.7733865 C49.8780176,20.7733865 50.2560352,20.9106232 50.5528418,21.1850967 C55.2841523,25.5608887 62.2066113,28.9581232 67.386709,29.4468246 C68.1808359,29.5216985 68.7875977,30.1855546 68.7875977,30.9797184 L68.7875977,50.6093821 C68.7875977,52.5703866 68.4174154,54.4815878 67.7228938,56.2566061 C66.5947763,59.1397835 64.6109288,61.6636592 61.9678125,63.4580502 L50.3718574,71.33386 C50.1088887,71.5124794 49.8043477,71.6017892 49.5,71.6017892 C49.195459,71.6017892 48.8911113,71.5124794 48.6281426,71.33386 Z" id="Fill-17" fill="#00A6E2"></path>
            <path d="M49.5,19.233525 C48.7439648,19.233525 47.988123,19.507806 47.3945098,20.0567529 C42.8894297,24.2225515 36.3395742,27.4534852 31.466918,27.9138923 C29.8786641,28.0638325 28.6655273,29.3915449 28.6655273,30.9796799 L28.6655273,50.6093436 C28.6655273,56.2643436 31.4673047,61.5428569 36.1601367,64.7299055 L47.7562852,72.6059077 C48.2822227,72.9629542 48.8911113,73.1415737 49.5,73.1415737 C50.1088887,73.1415737 50.7177773,72.9629542 51.2437148,72.6059077 L62.8398633,64.7299055 C67.5326953,61.5438192 70.3344727,56.2651135 70.3344727,50.6093436 L70.3344727,30.9796799 C70.3344727,29.3913524 69.1211426,28.06364 67.5326953,27.9138923 C62.6600391,27.4540626 56.1105703,24.2233215 51.605877,20.0569454 C51.0122637,19.5079985 50.2560352,19.233525 49.5,19.233525 M49.5,22.313171 C54.0514863,26.5226622 61.228793,30.41264 67.2407227,30.9796799 L67.2407227,50.6093436 C67.2407227,55.2459431 64.9438066,59.5738082 61.0963418,62.1859254 L49.5,70.0619277 L37.9036582,62.1859254 C34.0571602,59.5738082 31.7592773,55.2459431 31.7592773,50.6093436 L31.7592773,30.9796799 C37.771207,30.4116777 44.9485137,26.5216998 49.5,22.313171" id="Fill-19" fill="#242D3C"></path>
            <mask id="mask-2" fill="white">
                <use xlink:href="#path-1"></use>
            </mask>
            <g id="Clip-22"></g>
            <path d="M3.8671875,83.1354292 L95.1328125,83.1354292 L95.1328125,17.056042 L3.8671875,17.056042 L3.8671875,83.1354292 Z M3.8671875,13.2064845 L95.1328125,13.2064845 L95.1328125,3.84955752 L3.8671875,3.84955752 L3.8671875,13.2064845 Z M3.11192578,0 C1.39586133,0 0,1.38949779 0,3.09773894 L0,83.8872478 C0,85.5954889 1.39586133,86.9849867 3.11192578,86.9849867 L95.8880742,86.9849867 C97.6041387,86.9849867 99,85.5954889 99,83.8872478 L99,3.09773894 C99,1.38949779 97.6041387,0 95.8880742,0 L3.11192578,0 Z" id="Fill-21" fill="#242D3C" mask="url(#mask-2)"></path>
            <path d="M59.3615215,46.9648135 C59.3615215,52.5988334 54.9463535,57.1663334 49.5,57.1663334 C44.0536465,57.1663334 39.6384785,52.5988334 39.6384785,46.9648135 C39.6384785,41.3306011 44.0536465,36.7632936 49.5,36.7632936 C54.9463535,36.7632936 59.3615215,41.3306011 59.3615215,46.9648135 Z" id="Fill-23" fill="#242D3C" mask="url(#mask-2)"></path>
            <polygon id="Fill-24" fill="#FFFFFF" mask="url(#mask-2)" points="48.4856174 51.3132352 44.3345783 47.0200162 45.8176447 45.4855825 48.4846506 48.2441754 53.1817365 43.3841091 54.6651896 44.9187352"></polygon>
        </g>
    </g>
</svg>