<?xml version="1.0" encoding="UTF-8"?>
<svg width="32px" height="26px" viewBox="0 0 32 26" version="1.1" xmlns="http://www.w3.org/2000/svg" xmlns:xlink="http://www.w3.org/1999/xlink">
    <!-- Generator: Sketch 52.1 (67048) - http://www.bohemiancoding.com/sketch -->
    <title>Fill 1</title>
    <desc>Created with Sketch.</desc>
    <g id="Sitemap" stroke="none" stroke-width="1" fill="none" fill-rule="evenodd">
        <g id="Topaz-ContentMockup-Rough-Desktop-v1.1-Copy-2" transform="translate(-1348.000000, -72.000000)" fill="#FFFFFF">
            <g id="Socials" transform="translate(1288.000000, 69.000000)">
                <path d="M92,6.078 C90.823,6.6 89.557,6.953 88.229,7.112 C89.585,6.299 90.626,5.013 91.116,3.48 C89.848,4.232 88.442,4.778 86.947,5.073 C85.749,3.797 84.043,3 82.155,3 C78.529,3 75.59,5.939 75.59,9.565 C75.59,10.079 75.648,10.58 75.76,11.061 C70.303,10.787 65.466,8.173 62.228,4.201 C61.663,5.171 61.339,6.299 61.339,7.502 C61.339,9.779 62.498,11.789 64.259,12.966 C63.183,12.932 62.171,12.637 61.286,12.145 C61.285,12.173 61.285,12.2 61.285,12.228 C61.285,15.409 63.548,18.062 66.552,18.665 C66.001,18.815 65.421,18.895 64.822,18.895 C64.399,18.895 63.988,18.854 63.587,18.778 C64.422,21.386 66.847,23.284 69.72,23.337 C67.473,25.098 64.642,26.147 61.566,26.147 C61.036,26.147 60.514,26.116 60,26.056 C62.905,27.918 66.356,29.005 70.064,29.005 C82.14,29.005 88.743,19.001 88.743,10.326 C88.743,10.041 88.737,9.758 88.724,9.476 C90.007,8.551 91.12,7.395 92,6.078" id="Fill-1"></path>
            </g>
        </g>
        <g id="Page"></g>
    </g>
</svg>