<?xml version="1.0" encoding="UTF-8"?>
<svg width="88px" height="88px" viewBox="0 0 88 88" version="1.1" xmlns="http://www.w3.org/2000/svg" xmlns:xlink="http://www.w3.org/1999/xlink">
    <!-- Generator: Sketch 52.1 (67048) - http://www.bohemiancoding.com/sketch -->
    <title>Group 45</title>
    <desc>Created with Sketch.</desc>
    <g id="Sitemap" stroke="none" stroke-width="1" fill="none" fill-rule="evenodd">
        <g id="Topaz-ContentMockup-Rough-Desktop-v1.1" transform="translate(-969.000000, -967.000000)" fill="#048CBF">
            <g id="Group-45" transform="translate(969.000000, 967.000000)">
                <polygon id="Fill-1" points="28 20.2298851 39 15.9826587 32.1963883 15.1724138"></polygon>
                <polygon id="Fill-2" points="15 31.5549674 15.961245 38.4367816 21 27.3103448"></polygon>
                <polygon id="Fill-3" points="76.921178 16.183908 75 30.5748534 87 39.4482759"></polygon>
                <polygon id="Fill-4" points="21 59.6781609 15.9609518 48.5517241 15 55.4331416"></polygon>
                <polygon id="Fill-5" points="72 11.2058842 48 1.01149425 57.154005 13.1494253"></polygon>
                <polygon id="Fill-6" points="67 27.3103448 72.038755 38.4367816 73 31.5549674"></polygon>
                <polygon id="Fill-7" points="49 15.9813622 60 20.2298851 55.8036117 15.1724138"></polygon>
                <g id="Group-44">
                    <path d="M73.7851981,41.2948292 C73.6726887,42.1748674 73.6206321,43.0616234 73.6155943,43.9467 C73.6206321,44.0105195 73.6206321,44.0709802 73.6155943,44.1331203 C73.6206321,45.0198763 73.6726887,45.9066323 73.7851981,46.7883499 L74.7356509,54.2317262 L87.9059717,44.0407499 L74.7356509,33.851453 L73.7851981,41.2948292 Z" id="Fill-8"></path>
                    <path d="M63.1423094,21.0494168 C63.6695925,21.7312784 64.2422151,22.3745124 64.8467434,22.9841572 C64.905517,23.0345411 64.9575736,23.0866044 65.0079509,23.147065 C65.6191962,23.7499919 66.2623472,24.3226885 66.9424415,24.8500396 L72.9239132,29.4769579 L75.0330453,12.9577681 L58.5159887,15.0654931 L63.1423094,21.0494168 Z" id="Fill-10"></path>
                    <polygon id="Fill-12" points="70.7481151 44.040414 62.9010019 25.0910425 43.9540774 17.2429158 25.0071528 25.0910425 17.1583604 44.040414 25.0071528 62.9897855 43.9540774 70.8395916 62.9010019 62.9897855"></polygon>
                    <polygon id="Fill-14" points="60.068283 67.1649284 48.9080189 71.7884877 55.809717 72.6702053"></polygon>
                    <polygon id="Fill-16" points="39.0006396 71.7884877 27.8386962 67.1649284 32.0972623 72.6702053"></polygon>
                    <polygon id="Fill-18" points="71.6967208 48.9951632 67.0737585 60.1585482 72.5783245 55.8994321"></polygon>
                    <path d="M24.8098415,67.0937192 C24.2624075,66.3849862 23.6679547,65.7148808 23.039917,65.0800441 C22.9945774,65.0414164 22.9559547,65.0027888 22.9173321,64.9591228 C22.2825774,64.3293245 21.6125585,63.7347949 20.903917,63.1872902 L14.9828981,58.6057175 L12.873766,75.1249072 L29.3908226,73.0155028 L24.8098415,67.0937192 Z" id="Fill-20"></path>
                    <path d="M46.6596774,73.8721964 C45.7965453,73.7613519 44.925017,73.7092886 44.0551679,73.7059296 C44.0199038,73.7092886 43.9879981,73.7260832 43.9544132,73.7260832 C43.9208283,73.7260832 43.8872434,73.7092886 43.8536585,73.7059296 C42.9838094,73.710968 42.1122811,73.7613519 41.2457906,73.8721964 L33.7647528,74.8278104 L43.9544132,87.9998321 L54.1423943,74.8278104 L46.6596774,73.8721964 Z" id="Fill-22"></path>
                    <polygon id="Fill-24" points="16.4718849 77.0359672 40.0585642 86.8053986 31.0594887 75.1734437"></polygon>
                    <polygon id="Fill-26" points="47.8494226 86.8060704 71.4344226 77.036639 56.8468189 75.172436"></polygon>
                    <polygon id="Fill-28" points="76.942683 71.5268275 86.7125321 47.9371021 75.0804 56.9356603"></polygon>
                    <path d="M66.9582264,63.2213833 C66.2697358,63.7537728 65.6198679,64.3315078 65.0019057,64.942832 C64.9548868,64.9965748 64.9078679,65.0452792 64.8541321,65.0906247 C64.2412075,65.7086668 63.6635472,66.3602981 63.1312264,67.0471981 L58.5149811,73.0160066 L75.033717,75.1254111 L72.9245849,58.6045418 L66.9582264,63.2213833 Z" id="Fill-30"></path>
                    <path d="M20.9495925,24.8611241 C21.638083,24.3287346 22.2879509,23.7509996 22.9059132,23.1396754 C22.9512528,23.0842531 22.9999509,23.0372282 23.0536868,22.9902033 C23.6666113,22.3721612 24.2425925,21.7222093 24.7749132,21.0353093 L29.3911585,15.0665008 L12.8724226,12.9570963 L14.983234,29.4779656 L20.9495925,24.8611241 Z" id="Fill-32"></path>
                    <polygon id="Fill-34" points="40.0583962 1.27643704 16.471717 11.0458684 31.061 12.9100714"></polygon>
                    <path d="M41.2595604,14.2119905 C42.1159755,14.3211555 42.9807868,14.3732188 43.8455981,14.3782572 C43.9178057,14.3715394 43.988334,14.3715394 44.0622208,14.3765777 C44.9253528,14.3732188 45.7884849,14.3211555 46.6465792,14.2119905 L54.1393717,13.254697 L43.9530698,0.0843548037 L33.7667679,13.254697 L41.2595604,14.2119905 Z" id="Fill-36"></path>
                    <polygon id="Fill-38" points="10.9634566 71.5268275 12.8257396 56.9356603 1.19360755 47.9371021"></polygon>
                    <path d="M14.1194302,46.80061 C14.2319396,45.9155335 14.2856755,45.0237391 14.289034,44.1319447 C14.2856755,44.0698046 14.2856755,44.0110234 14.289034,43.9488833 C14.2856755,43.0570889 14.2319396,42.1669739 14.1194302,41.2818974 L13.1706566,33.8519568 L0.000335849058,44.0395742 L13.1706566,54.2305506 L14.1194302,46.80061 Z" id="Fill-40"></path>
                    <polygon id="Fill-42" points="10.9634566 16.5556799 1.19360755 40.1437259 12.8257396 31.1468471"></polygon>
                </g>
            </g>
        </g>
        <g id="Page"></g>
    </g>
</svg>