<?xml version="1.0" encoding="UTF-8"?>
<svg width="32px" height="32px" viewBox="0 0 32 32" version="1.1" xmlns="http://www.w3.org/2000/svg" xmlns:xlink="http://www.w3.org/1999/xlink">
    <!-- Generator: Sketch 52.1 (67048) - http://www.bohemiancoding.com/sketch -->
    <title>Shape</title>
    <desc>Created with Sketch.</desc>
    <g id="Sitemap" stroke="none" stroke-width="1" fill="none" fill-rule="evenodd">
        <g id="Topaz-ContentMockup-Rough-Desktop-v1.1-Copy-3" transform="translate(-152.000000, -2246.000000)" fill="#EDF0F0" fill-rule="nonzero">
            <g id="016-layers-1" transform="translate(152.000000, 2246.000000)">
                <path d="M32,8.50146487 C32.0007324,8.14648438 31.8005371,7.82153319 31.4831543,7.66210938 L16.4206543,0.099609375 C16.1560059,-0.033203125 15.8439941,-0.033203125 15.5793457,0.099609375 L0.516845687,7.66210938 C0.199462875,7.82153319 -0.00048828125,8.14648438 -1.11022302e-16,8.50146487 C0.00048828125,8.85668944 0.201660125,9.18090819 0.51953125,9.3393555 L6.37231444,12.253418 L0.520263687,15.1604004 C0.201904312,15.3186035 0.000244140625,15.6437988 -1.11022302e-16,15.9995117 C-1.11022302e-16,16.3554688 0.201171875,16.6806641 0.519775375,16.8391113 L6.37231444,19.753418 L0.520507812,22.6604004 C0.202148437,22.8183594 0.000732425,23.1428222 -1.11022302e-16,23.4980469 L-1.11022302e-16,23.5 C-1.11022302e-16,23.8544922 0.199951187,24.1787109 0.516845687,24.3378906 L15.5793457,31.9003906 C15.7116699,31.9667969 15.855957,32 16,32 C16.144043,32 16.2883301,31.9667969 16.4206543,31.9003906 L31.4831543,24.3378906 C31.8000488,24.1787109 32,23.8544922 32,23.5 C32,23.4992676 32,23.4987793 32,23.4980469 C31.9992676,23.1428222 31.7978516,22.8183594 31.4794922,22.6604004 L25.6276856,19.753418 L31.4802246,16.8391113 C31.7988281,16.6806641 32,16.3554687 32,15.9995117 C31.9997559,15.6437988 31.7980957,15.3186035 31.4794922,15.1604004 L25.6276856,12.253418 L31.4802246,9.33911131 C31.7983399,9.18090819 31.9995117,8.85668944 32,8.50146487 Z M28.9643555,23.5043945 L16,30.0134277 L3.03588869,23.5043945 L8.47705075,20.8012695 L15.5822754,24.3391113 C15.7138672,24.4047851 15.8569336,24.4375 16,24.4375 C16.1433106,24.4375 16.2863769,24.4047851 16.4179688,24.3391113 L23.5229492,20.8012695 L28.9643555,23.5043945 Z M28.9572754,16.0009766 L23.5219726,18.7072754 L21.8208007,17.8623047 C21.3571777,17.6318359 20.7944336,17.8210449 20.564209,18.284668 C20.3327637,18.7502441 20.5246582,19.3120118 20.9865722,19.5415039 L21.4172363,19.7553711 L16,22.4526368 L10.5827637,19.7553711 L11.0134277,19.5415039 C11.4758301,19.3117676 11.6669922,18.7497559 11.4360351,18.284668 C11.2058106,17.8210449 10.6430664,17.6318359 10.1791992,17.8623047 L8.47802737,18.7072754 L3.04272462,16.0009766 L8.47705075,13.3015137 L13.9001465,16.001709 L13.7058106,16.0991211 C13.2426757,16.3305664 13.0549316,16.8937988 13.2866211,17.3569336 C13.5180664,17.8198243 14.0812988,18.0075684 14.5444336,17.7761231 L16,17.0480957 L17.4558106,17.7761231 C17.9194336,18.0080566 18.4824219,17.8193359 18.7136231,17.3569336 C18.9450684,16.8937988 18.7573242,16.3305664 18.2944336,16.0991211 L18.0998535,16.001709 L23.5229492,13.3015137 L28.9572754,16.0009766 Z M23.5219726,11.2072754 L21.8208007,10.3623047 C21.3571777,10.1318359 20.7944336,10.3210449 20.564209,10.784668 C20.3327637,11.2502441 20.5246582,11.8120117 20.9865722,12.0415039 L21.4172363,12.2553711 L16,14.9526367 L10.5827637,12.2553711 L11.0134277,12.0415039 C11.4758301,11.8117676 11.6669922,11.2497559 11.4360351,10.784668 C11.2058106,10.3210449 10.6430664,10.1318359 10.1791992,10.3623047 L8.47802737,11.2072754 L3.03393556,8.496582 L16,1.98657225 L28.9663086,8.496582 L23.5219726,11.2072754 Z" id="Shape"></path>
            </g>
        </g>
        <g id="Page"></g>
    </g>
</svg>