<?xml version="1.0" encoding="UTF-8"?>
<svg width="84px" height="98px" viewBox="0 0 84 98" version="1.1" xmlns="http://www.w3.org/2000/svg" xmlns:xlink="http://www.w3.org/1999/xlink">
    <!-- Generator: Sketch 52.2 (67145) - http://www.bohemiancoding.com/sketch -->
    <title>Group 18</title>
    <desc>Created with Sketch.</desc>
    <defs>
        <polygon id="path-1" points="0.5585 0.0964 57.647 0.0964 57.647 49 0.5585 49"></polygon>
    </defs>
    <g id="Page-1" stroke="none" stroke-width="1" fill="none" fill-rule="evenodd">
        <g id="Group-18">
            <path d="M42.9963,1.9234 C42.8053,1.7324 42.5113,1.6644 42.2463,1.7744 C41.9823,1.8834 41.8223,2.1394 41.8223,2.4094 L41.8223,8.7754 C19.6723,8.7754 1.7183,26.7414 1.7183,48.9054 L11.3423,48.9054 C11.3423,32.0594 24.9883,18.4074 41.8223,18.4074 L41.8223,24.7714 C41.8223,25.0414 41.9823,25.2984 42.2463,25.4074 C42.5113,25.5174 42.8053,25.4494 42.9963,25.2584 L54.6553,13.5904 L42.9963,1.9234 Z" id="Fill-1" fill="#EDF0F0"></path>
            <path d="M13.0612,48.9053 L9.6232,48.9053 C9.6232,31.1403 24.0682,16.6863 41.8222,16.6863 L43.5412,16.6863 L43.5412,22.2793 L52.2252,13.5903 L43.5412,4.9003 L43.5412,10.4953 L41.8222,10.4953 C20.6572,10.4953 3.4372,27.7263 3.4372,48.9053 L0.0002,48.9053 C0.0002,26.4063 17.8372,7.9963 40.1042,7.0913 L40.1042,2.4093 C40.1042,1.4333 40.6862,0.5613 41.5862,0.1863 C42.4942,-0.1907 43.5212,0.0163 44.2122,0.7073 L57.0872,13.5903 L44.2122,26.4733 C43.5212,27.1633 42.4922,27.3693 41.5902,26.9963 C40.6872,26.6223 40.1042,25.7483 40.1042,24.7713 L40.1042,20.1773 C25.0412,21.0703 13.0612,33.6133 13.0612,48.9053" id="Fill-3" fill="#003462"></path>
            <path d="M72.3009,48.9053 C72.3009,65.7493 58.6549,79.4053 41.8219,79.4053 L41.8219,73.0393 C41.8219,72.7683 41.6619,72.5123 41.3979,72.4033 C41.1329,72.2943 40.8399,72.3613 40.6489,72.5523 L28.9889,84.2193 L40.6489,95.8863 C40.8399,96.0783 41.1339,96.1453 41.3979,96.0363 C41.6629,95.9263 41.8219,95.6703 41.8219,95.4003 L41.8219,89.0343 C63.9739,89.0343 81.9279,71.0683 81.9279,48.9043 L72.3009,48.9043 L72.3009,48.9053 Z" id="Fill-5" fill="#EDF0F0"></path>
            <g id="Group-9" transform="translate(26.000000, 48.809200)">
                <mask id="mask-2" fill="white">
                    <use xlink:href="#path-1"></use>
                </mask>
                <g id="Clip-8"></g>
                <path d="M15.1315,49.0004 C14.5065,49.0004 13.8945,48.7554 13.4335,48.2944 L0.5585,35.4104 L13.4335,22.5274 C14.1235,21.8374 15.1525,21.6314 16.0545,22.0054 C16.9585,22.3794 17.5425,23.2524 17.5425,24.2294 L17.5425,28.8254 C32.6025,27.9334 44.5825,15.3884 44.5825,0.0964 L48.0205,0.0964 C48.0205,17.8624 33.5765,32.3154 15.8225,32.3154 L14.1035,32.3154 L14.1035,26.7214 L5.4195,35.4114 L14.1035,44.1024 L14.1035,38.5074 L15.8225,38.5074 C36.9895,38.5074 54.2095,21.2764 54.2095,0.0974 L57.6475,0.0974 C57.6475,22.5964 39.8095,41.0064 17.5415,41.9114 L17.5415,46.5924 C17.5415,47.5674 16.9595,48.4404 16.0585,48.8154 C15.7575,48.9384 15.4435,49.0004 15.1315,49.0004" id="Fill-7" fill="#003462" mask="url(#mask-2)"></path>
            </g>
            <path d="M41.8234,32.7369 C50.7464,32.7369 57.9804,39.9759 57.9804,48.9049 C57.9804,57.8339 50.7464,65.0719 41.8234,65.0719 C32.8994,65.0719 25.6654,57.8339 25.6654,48.9049 C25.6654,39.9759 32.8994,32.7369 41.8234,32.7369" id="Fill-10" fill="#00A7E2"></path>
            <polygon id="Fill-12" fill="#FFFFFF" points="40.1613 55.7959 33.3603 48.9919 35.7893 46.5599 40.1603 50.9329 47.8553 43.2299 50.2863 45.6619"></polygon>
            <path d="M5.9172,57.918 C5.6242,56.746 5.3872,55.546 5.2112,54.352 L8.6112,53.851 C8.7712,54.934 8.9862,56.022 9.2522,57.084 L5.9172,57.918 Z M8.3642,64.753 C7.8462,63.661 7.3782,62.531 6.9722,61.397 L10.2082,60.237 C10.5762,61.266 11.0002,62.289 11.4702,63.279 L8.3642,64.753 Z M12.1002,70.975 C11.3802,70.005 10.7002,68.988 10.0792,67.956 L13.0252,66.184 C13.5892,67.121 14.2062,68.043 14.8602,68.923 L12.1002,70.975 Z M16.9732,76.35 C16.0802,75.538 15.2162,74.674 14.4052,73.781 L16.9512,71.469 C17.6872,72.28 18.4712,73.065 19.2822,73.802 L16.9732,76.35 Z M22.7982,80.677 C21.7652,80.056 20.7492,79.377 19.7802,78.656 L21.8292,75.894 C22.7092,76.547 23.6302,77.165 24.5682,77.729 L22.7982,80.677 Z" id="Fill-14" fill="#003462"></path>
            <path d="M61.8146,21.9165 C60.9356,21.2635 60.0136,20.6455 59.0756,20.0825 L60.8446,17.1335 C61.8796,17.7555 62.8946,18.4355 63.8636,19.1555 L61.8146,21.9165 Z M66.6926,26.3395 C65.9606,25.5305 65.1756,24.7475 64.3626,24.0095 L66.6706,21.4605 C67.5676,22.2735 68.4316,23.1375 69.2396,24.0295 L66.6926,26.3395 Z M70.6206,31.6275 C70.0556,30.6885 69.4396,29.7665 68.7866,28.8875 L71.5456,26.8355 C72.2636,27.8035 72.9436,28.8205 73.5656,29.8545 L70.6206,31.6275 Z M73.4376,37.5725 C73.0676,36.5415 72.6436,35.5185 72.1756,34.5315 L75.2816,33.0575 C75.7976,34.1455 76.2656,35.2745 76.6736,36.4125 L73.4376,37.5725 Z M75.0356,43.9595 C74.8756,42.8745 74.6596,41.7885 74.3946,40.7275 L77.7276,39.8915 C78.0216,41.0625 78.2586,42.2615 78.4356,43.4585 L75.0356,43.9595 Z" id="Fill-16" fill="#003462"></path>
        </g>
    </g>
</svg>