<?xml version="1.0" encoding="UTF-8"?>
<svg width="84px" height="98px" viewBox="0 0 84 98" version="1.1" xmlns="http://www.w3.org/2000/svg" xmlns:xlink="http://www.w3.org/1999/xlink">
    <!-- Generator: Sketch 52.1 (67048) - http://www.bohemiancoding.com/sketch -->
    <title>icon-integrate copy</title>
    <desc>Created with Sketch.</desc>
    <g id="Sitemap" stroke="none" stroke-width="1" fill="none" fill-rule="evenodd">
        <g id="Page"></g>
        <g id="icon-integrate-copy">
            <path d="M43.1727545,1.9231306 C42.9816545,1.73247953 42.6878455,1.66447173 42.4230545,1.77393372 C42.1586455,1.88396881 41.9988545,2.13918908 41.9988545,2.40911891 L41.9988545,8.77548928 C19.8488182,8.77548928 1.89439091,26.7415828 1.89439091,48.9054386 L11.5188818,48.9054386 C11.5188818,32.0597544 25.1646818,18.4071891 41.9988545,18.4071891 L41.9988545,24.7716491 C41.9988545,25.0411969 42.1586455,25.2979454 42.4230545,25.4074074 C42.6880364,25.5168694 42.9816545,25.4490526 43.1727545,25.2582105 L54.8317636,13.5906706 L43.1727545,1.9231306 Z" id="Path" fill="#EDF0F0"></path>
            <path d="M13.2378273,48.9050565 L9.80012727,48.9050565 C9.80012727,31.1399298 24.2445,16.6867446 41.9988545,16.6867446 L43.7178,16.6867446 L43.7178,22.2790487 L52.4014909,13.5897154 L43.7181818,4.90038207 L43.7181818,10.4955517 L41.9992364,10.4955517 C20.8335273,10.4955517 3.61352727,27.7259766 3.61352727,48.9056296 L0.176590909,48.9056296 C0.176590909,26.4061287 18.0136091,7.99607407 40.2810545,7.09076803 L40.2810545,2.40911891 C40.2810545,1.43351267 40.8631364,0.561064327 41.7632727,0.185875244 C42.6702818,-0.191033138 43.6987091,0.0162378168 44.3886545,0.706822612 L57.2631818,13.5897154 L44.3886545,26.4731813 C43.6985182,27.163193 42.6687545,27.3691267 41.7667091,26.996039 C40.8644727,26.6219961 40.2810545,25.7484016 40.2810545,24.770885 L40.2810545,20.1773021 C25.2183273,21.070191 13.2378273,33.6136179 13.2378273,48.9050565 Z" id="Path" fill="#242D3C"></path>
            <path d="M72.4773,48.9050565 C72.4773,65.7488304 58.8324545,79.4048343 41.9988545,79.4048343 L41.9988545,73.038846 C41.9988545,72.7689162 41.8390636,72.5131228 41.5746545,72.4036608 C41.3096727,72.2936257 41.0160545,72.3616335 40.8255273,72.5528577 L29.1655636,84.2194425 L40.8255273,95.8869825 C41.0160545,96.0776335 41.3098636,96.1452593 41.5746545,96.0361793 C41.8396364,95.9255712 41.9988545,95.6699688 41.9988545,95.4004211 L41.9988545,89.0340507 C64.1504182,89.0340507 82.1042727,71.0679571 82.1042727,48.9044834 L72.4773,48.9044834 L72.4773,48.9050565 Z" id="Path" fill="#EDF0F0"></path>
            <path d="M41.3083364,97.8091579 C40.6827273,97.809731 40.0708636,97.5646355 39.6105818,97.1038635 L26.7351,84.2200156 L39.6105818,71.3371228 C40.3001455,70.646538 41.3289545,70.4407953 42.2311909,70.8142651 C43.1347636,71.1888811 43.7183727,72.0619025 43.7183727,73.0394191 L43.7183727,77.6345302 C58.7793818,76.7425965 70.7591182,64.1974503 70.7591182,48.9056296 L74.1968182,48.9056296 C74.1968182,66.6717115 59.7530182,81.1248967 41.9994273,81.1248967 L40.2804818,81.1248967 L40.2804818,75.5306823 L31.5958364,84.2205887 L40.2804818,92.9108772 L40.2804818,87.3162807 L41.9994273,87.3162807 C63.1657091,87.3162807 80.3860909,70.0856647 80.3860909,48.9062027 L83.8237909,48.9062027 C83.8237909,71.4057037 65.9862,89.8157583 43.7178,90.7204912 L43.7178,95.4015673 C43.7178,96.3771735 43.1357182,97.2496218 42.2355818,97.6248109 C41.9339455,97.7484094 41.6200909,97.8091579 41.3083364,97.8091579 Z" id="Path" fill="#242D3C"></path>
            <ellipse id="Oval" fill="#00A6E2" cx="41.9998091" cy="48.9046745" rx="16.1574" ry="16.1678986"></ellipse>
            <polygon id="Path" fill="#FFFFFF" points="40.3377545 55.7961949 33.5366182 48.9921676 35.9665091 46.5601248 40.3362273 50.9323002 48.0321545 43.2298441 50.4626182 45.6618869"></polygon>
            <g id="Group" transform="translate(5.345455, 17.001949)" fill="#242D3C" fill-rule="nonzero">
                <path d="M17.6296909,63.6749747 C16.5964909,63.0539259 15.5804727,62.3746121 14.6112273,61.6542261 L16.6600636,58.892078 C17.5397727,59.5454113 18.4614818,60.1630214 19.3994182,60.7265692 L17.6296909,63.6749747 Z M11.8044818,59.3473099 C10.9110273,58.5365653 10.0469727,57.6723314 9.23675455,56.7788694 L11.7825273,54.4671774 C12.5181,55.2784951 13.3025455,56.0634503 14.1137182,56.799501 L11.8044818,59.3473099 Z M6.93152727,53.9724016 C6.21160909,53.0030994 5.5314,51.9868031 4.91056364,50.954078 L7.85667273,49.1818635 C8.42023636,50.1194542 9.03687273,51.040807 9.69092727,51.9210877 L6.93152727,53.9724016 Z M3.19505455,47.7512164 C2.67692727,46.6586979 2.2092,45.529501 1.80313636,44.3953372 L5.03942727,43.235384 C5.4075,44.2633333 5.8317,45.2868889 6.30133636,46.2772047 L3.19505455,47.7512164 Z M0.748172727,40.9162417 C0.455509091,39.7440624 0.217827273,38.5438012 0.042,37.3500351 L3.44247273,36.8487641 C3.60226364,37.93154 3.8178,39.0190916 4.08316364,40.081809 L0.748172727,40.9162417 Z" id="Shape"></path>
                <path d="M69.8662364,26.9574503 C69.7064455,25.8731462 69.4903364,24.7861676 69.2255455,23.7253606 L72.5592,22.8895906 C72.8530091,24.0598596 73.0905,25.2599298 73.2669,26.4561793 L69.8662364,26.9574503 Z M68.2690909,20.5710214 C67.8991091,19.5390604 67.4749091,18.516078 67.0071818,17.5292008 L70.1125091,16.0551891 C70.6291091,17.1438869 71.0972182,18.2725107 71.5053818,19.4104951 L68.2690909,20.5710214 Z M65.4510818,14.625306 C64.8865636,13.6863782 64.2703091,12.7644522 63.6174,11.8856998 L66.3768,9.83419493 C67.0951909,10.8019688 67.7750182,11.8182651 68.3971909,12.8530916 L65.4510818,14.625306 Z M61.5237,9.33769981 C60.7911818,8.5288655 60.0067364,7.74582066 59.1934636,7.00785965 L61.5021273,4.45890448 C62.3984455,5.27175049 63.2630727,6.13579337 64.0708091,7.02791813 L61.5237,9.33769981 Z M56.6457818,4.91470955 C55.7666455,4.26175828 54.8447455,3.64414815 53.9064273,3.08079142 L55.6761545,0.131430799 C56.7108818,0.753434698 57.7259455,1.43332164 58.695,2.1531345 L56.6457818,4.91470955 Z" id="Shape"></path>
            </g>
        </g>
    </g>
</svg>