<?xml version="1.0" encoding="UTF-8"?>
<svg width="26px" height="26px" viewBox="0 0 26 26" version="1.1" xmlns="http://www.w3.org/2000/svg" xmlns:xlink="http://www.w3.org/1999/xlink">
    <!-- Generator: Sketch 52.1 (67048) - http://www.bohemiancoding.com/sketch -->
    <title>Fill 1</title>
    <desc>Created with Sketch.</desc>
    <g id="Sitemap" stroke="none" stroke-width="1" fill="none" fill-rule="evenodd">
        <g id="Topaz-ContentMockup-Rough-Desktop-v1.1-Copy-2" transform="translate(-1288.000000, -69.000000)" fill="#FFFFFF">
            <g id="Socials" transform="translate(1288.000000, 69.000000)">
                <path d="M21.6001371,6.16007539 L20.2056888,7.49705278 C20.085401,7.58882796 20.026148,7.73941056 20.0506511,7.8882111 L20.0506511,17.7117204 C20.026148,17.8609664 20.085401,18.011549 20.2056888,18.1028787 L21.5676148,19.4398561 L21.5676148,19.7334476 L14.717889,19.7334476 L14.717889,19.4398561 L16.1283756,18.0703564 C16.2669294,17.9318026 16.2669294,17.8912611 16.2669294,17.6787526 L16.2669294,9.73886223 L12.3450994,19.7009253 L11.8149417,19.7009253 L7.24845785,9.73886223 L7.24845785,16.41573 C7.21014393,16.6959561 7.30325565,16.9788554 7.50150788,17.1815627 L9.33612063,19.4073338 L9.33612063,19.7009253 L4.13344757,19.7009253 L4.13344757,19.4073338 L5.96806032,17.1815627 C6.1645305,16.9784099 6.25185058,16.6941741 6.20418095,16.41573 L6.20418095,8.69547635 C6.22645648,8.48074023 6.14448252,8.26912269 5.9840987,8.12477724 L4.35352981,6.16007539 L4.35352981,5.86648389 L9.41720356,5.86648389 L13.3314599,14.4505826 L16.772584,5.86648389 L21.6001371,5.86648389 L21.6001371,6.16007539 Z M0,26 L26,26 L26,0 L0,0 L0,26 Z" id="Fill-1"></path>
            </g>
        </g>
        <g id="Page"></g>
    </g>
</svg>