<?xml version="1.0" encoding="UTF-8"?>
<svg width="234px" height="60px" viewBox="0 0 234 60" version="1.1" xmlns="http://www.w3.org/2000/svg" xmlns:xlink="http://www.w3.org/1999/xlink">
    <!-- Generator: Sketch 52.1 (67048) - http://www.bohemiancoding.com/sketch -->
    <title>Group 14</title>
    <desc>Created with Sketch.</desc>
    <defs>
        <polygon id="path-1" points="0.3045 0.0256 22.0155 0.0256 22.0155 40 0.3045 40"></polygon>
    </defs>
    <g id="Sitemap" stroke="none" stroke-width="1" fill="none" fill-rule="evenodd">
        <g id="Page"></g>
        <g id="Group-14">
            <path d="M83.946,47.3616 C84.407,46.8456 84.642,46.1106 84.642,45.1756 L84.642,10.9856 L95.918,10.9856 C97.561,10.9856 98.382,10.2236 98.423,8.6596 L70.761,8.6596 C69.117,8.6596 68.296,9.4206 68.255,10.9856 L82.038,10.9856 L82.038,48.1296 C82.867,48.1066 83.509,47.8486 83.946,47.3616" id="Fill-1" fill="#FFFFFF"></path>
            <path d="M127.2433,39.0691 C127.2433,41.0781 126.4263,42.7611 124.8153,44.0691 L124.8153,44.0701 C123.2103,45.3711 121.0633,46.0301 118.4323,46.0301 C115.8003,46.0301 113.6533,45.3711 112.0513,44.0691 C110.4383,42.7621 109.6213,41.0801 109.6213,39.0691 L109.6213,28.5361 C109.6213,26.4891 110.4383,24.7781 112.0503,23.4521 C113.6533,22.1321 115.8003,21.4621 118.4323,21.4621 C121.0633,21.4621 123.2103,22.1321 124.8163,23.4521 C126.4263,24.7791 127.2433,26.4901 127.2433,28.5361 L127.2433,39.0691 Z M124.1763,20.6091 C122.5023,19.7811 120.5693,19.3611 118.4323,19.3611 C116.2943,19.3611 114.3623,19.7811 112.6893,20.6091 C111.0173,21.4361 109.6963,22.5621 108.7613,23.9561 C107.8273,25.3471 107.3533,26.8881 107.3533,28.5361 L107.3533,39.0131 C107.3533,40.6611 107.8273,42.2021 108.7613,43.5931 C109.6953,44.9871 111.0163,46.1041 112.6883,46.9121 C114.3633,47.7211 116.2953,48.1321 118.4323,48.1321 C120.5683,48.1321 122.5013,47.7211 124.1773,46.9121 C125.8493,46.1031 127.1703,44.9861 128.1053,43.5931 C129.0383,42.2021 129.5113,40.6611 129.5113,39.0131 L129.5113,28.5361 C129.5113,26.8891 129.0383,25.3481 128.1053,23.9561 C127.1693,22.5621 125.8483,21.4361 124.1763,20.6091 Z" id="Fill-3" fill="#FFFFFF"></path>
            <g id="Group-7" transform="translate(142.000000, 19.335500)">
                <mask id="mask-2" fill="white">
                    <use xlink:href="#path-1"></use>
                </mask>
                <g id="Clip-6"></g>
                <path d="M2.6305,8.9206 C2.6305,7.7046 3.0255,6.5566 3.8025,5.5116 C4.5785,4.4716 5.6315,3.6386 6.9335,3.0356 C8.2345,2.4326 9.6555,2.1266 11.1605,2.1266 C13.8295,2.1266 15.9485,2.7586 17.4605,4.0046 C18.9775,5.2576 19.7465,7.0056 19.7465,9.2006 L19.7465,19.6776 C19.7465,21.7996 18.9675,23.5196 17.4315,24.7896 C15.9035,26.0546 13.8315,26.6946 11.2725,26.6946 C8.7145,26.6946 6.6145,26.0646 5.0305,24.8186 C3.4385,23.5676 2.6305,21.9316 2.6305,19.9576 L2.6305,8.9206 Z M3.9385,26.2686 C4.6365,26.7116 5.5045,27.2606 6.2325,27.6336 C7.7365,28.4046 9.4335,28.7956 11.2725,28.7956 C14.5505,28.7956 17.1895,27.9586 19.1185,26.3056 C21.0405,24.6576 22.0155,22.4086 22.0155,19.6216 L22.0155,9.2566 C22.0155,6.4326 21.0225,4.1646 19.0625,2.5176 C17.0975,0.8646 14.4015,0.0256 11.0485,0.0256 C9.3235,0.0256 7.6655,0.4366 6.1205,1.2446 C4.5765,2.0526 2.9015,3.2406 2.8855,3.2526 L2.6865,3.3936 L2.6865,0.0276 C1.7935,0.0486 1.1725,0.2936 0.8415,0.7566 C0.4855,1.2576 0.3045,2.0056 0.3045,2.9816 L0.3045,40.0006 C1.8695,39.9576 2.6305,39.0996 2.6305,37.3816 L2.6305,25.8216 C2.5805,25.7316 2.6055,25.6716 2.6395,25.6356 C2.7435,25.5216 2.8185,25.5596 3.9385,26.2686 Z" id="Fill-5" fill="#FFFFFF" mask="url(#mask-2)"></path>
            </g>
            <path d="M193.9606,44.0154 C192.3406,45.2784 190.1276,45.9184 187.3836,45.9184 C184.8616,45.9184 182.8546,45.2964 181.4186,44.0674 C179.9766,42.8354 179.2466,41.0974 179.2466,38.9014 C179.2466,36.7054 179.9966,34.9674 181.4756,33.7344 C182.9506,32.5064 184.9946,31.8834 187.5526,31.8834 C190.2956,31.8834 192.4806,32.5154 194.0446,33.7604 C195.6196,35.0114 196.4186,36.7414 196.4186,38.9014 C196.4186,41.0224 195.5916,42.7444 193.9606,44.0154 Z M196.2506,48.1294 C196.9726,48.1054 197.5396,47.8754 197.9356,47.4434 C198.3606,46.9854 198.5756,46.3164 198.5756,45.4564 L198.5756,28.7604 C198.5756,25.8974 197.6466,23.5914 195.8156,21.9054 C193.9796,20.2174 191.4626,19.3614 188.3376,19.3614 C186.7506,19.3614 185.1526,19.6424 183.5886,20.1944 C182.0256,20.7454 180.7296,21.4634 179.7346,22.3284 C178.7596,23.1784 178.2646,24.0414 178.2646,24.8944 C178.2646,25.2474 178.3646,25.6354 178.5616,26.0434 C178.7346,26.4074 178.9746,26.7404 179.2746,27.0354 C180.9496,23.4114 184.0156,21.5744 188.3926,21.5744 C190.9146,21.5744 192.8846,22.1984 194.2476,23.4274 C195.6126,24.6604 196.3056,26.4354 196.3056,28.7034 L196.3056,32.4134 L196.3426,32.4594 L196.2886,32.5654 C196.2056,32.6654 196.1796,32.6514 195.5446,32.3024 C194.2076,31.5674 190.6516,29.6144 187.6646,29.6144 C184.3126,29.6144 181.6346,30.4624 179.7076,32.1334 C177.7846,33.8004 176.8096,36.0774 176.8096,38.9014 C176.8096,41.6884 177.8026,43.9464 179.7626,45.6124 C181.7276,47.2844 184.3666,48.1314 187.6086,48.1314 C189.4476,48.1314 191.2186,47.7214 192.8756,46.9114 C193.7186,46.4994 194.7096,45.8674 195.3636,45.4484 C196.2146,44.9044 196.2526,44.8784 196.3456,44.9974 C196.4206,45.0924 196.3466,45.1854 196.2506,45.2844 L196.2506,48.1294 Z" id="Fill-8" fill="#FFFFFF"></path>
            <path d="M212.5866,47.6272 L233.5256,47.6272 C233.5026,46.9732 233.2956,46.4762 232.8966,46.1092 C232.4736,45.7222 231.8606,45.5262 231.0756,45.5262 L214.6256,45.5262 L214.7846,45.3232 L232.9946,21.8472 C233.1976,21.5402 233.3036,21.2442 233.3036,20.9722 C233.3036,20.6702 233.1886,20.4172 232.9516,20.1962 C232.7146,19.9772 232.4046,19.8652 232.0296,19.8652 L211.8756,19.8652 C211.8996,20.5132 212.1106,21.0232 212.5046,21.3832 C212.9266,21.7702 213.5396,21.9662 214.3236,21.9662 L230.1016,21.9662 L229.9436,22.1702 L211.6226,45.7022 C211.4576,45.9682 211.3696,46.2292 211.3696,46.4652 C211.3696,46.7702 211.4856,47.0342 211.7236,47.2722 C211.9616,47.5112 212.2446,47.6272 212.5866,47.6272" id="Fill-10" fill="#FFFFFF"></path>
            <path d="M47.7892,44.509 L46.6802,35.822 L53.6072,30.463 L47.7892,44.509 Z M2.6802,30.463 L9.6072,35.822 L8.4972,44.509 L2.6802,30.463 Z M8.4972,11.778 L9.6072,20.465 L2.6802,25.823 L8.4972,11.778 Z M53.6072,25.823 L46.6802,20.465 L47.7892,11.778 L53.6072,25.823 Z M45.9092,29.779 C45.8422,29.255 45.8102,28.727 45.8082,28.199 C45.8102,28.161 45.8102,28.125 45.8082,28.088 C45.8102,27.56 45.8422,27.032 45.9092,26.508 L46.4752,22.076 L54.3182,28.143 L46.4752,34.211 L45.9092,29.779 Z M41.9122,37.74 L44.6652,31.093 L45.1902,35.205 L41.9122,37.74 Z M35.8222,46.68 L44.5092,47.789 L30.4642,53.607 L35.8222,46.68 Z M20.4652,46.68 L25.8242,53.607 L11.7782,47.789 L20.4652,46.68 Z M11.6222,31.093 L14.3752,37.74 L11.0972,35.204 L11.6222,31.093 Z M10.3772,26.5 C10.4452,27.027 10.4762,27.558 10.4782,28.089 C10.4762,28.126 10.4762,28.16 10.4782,28.197 C10.4762,28.728 10.4452,29.259 10.3772,29.786 L9.8122,34.211 L1.9692,28.143 L9.8122,22.076 L10.3772,26.5 Z M14.3742,18.548 L11.6222,25.194 L11.0972,21.083 L14.3742,18.548 Z M20.4662,9.607 L11.7782,8.498 L25.8242,2.68 L20.4662,9.607 Z M35.8222,9.607 L30.4642,2.68 L44.5092,8.498 L35.8222,9.607 Z M25.1942,11.622 L18.5482,14.374 L21.0832,11.097 L25.1942,11.622 Z M35.2042,11.097 L37.7382,14.373 L31.0942,11.622 L35.2042,11.097 Z M29.7472,10.382 C29.2372,10.448 28.7232,10.478 28.2082,10.481 C28.1642,10.477 28.1232,10.477 28.0792,10.481 C27.5642,10.478 27.0502,10.448 26.5392,10.382 L22.0772,9.813 L28.1442,1.97 L34.2102,9.813 L29.7472,10.382 Z M39.4272,39.426 L28.1442,44.1 L16.8612,39.426 L12.1872,28.143 L16.8612,16.86 L28.1442,12.187 L39.4272,16.86 L44.1002,28.143 L39.4272,39.426 Z M31.0932,44.665 L37.7402,41.912 L35.2052,45.19 L31.0932,44.665 Z M21.0832,45.19 L18.5472,41.911 L25.1942,44.665 L21.0832,45.19 Z M26.5322,45.905 C27.0472,45.84 27.5662,45.809 28.0842,45.807 C28.1042,45.808 28.1232,45.819 28.1442,45.819 C28.1642,45.819 28.1842,45.808 28.2042,45.807 C28.7232,45.809 29.2412,45.84 29.7552,45.905 L34.2112,46.474 L28.1442,54.318 L22.0772,46.474 L26.5322,45.905 Z M44.6652,25.193 L41.9132,18.548 L45.1902,21.083 L44.6652,25.193 Z M45.3952,19.472 L41.8332,16.716 C41.4282,16.403 41.0452,16.062 40.6812,15.702 C40.6512,15.667 40.6212,15.636 40.5852,15.606 C40.2262,15.242 39.8842,14.859 39.5712,14.453 L36.8152,10.891 L46.6522,9.635 L45.3952,19.472 Z M9.6352,9.635 L19.4722,10.891 L16.7232,14.445 C16.4062,14.854 16.0622,15.241 15.6982,15.609 C15.6662,15.636 15.6372,15.665 15.6092,15.698 C15.2422,16.062 14.8542,16.406 14.4452,16.723 L10.8912,19.472 L9.6352,9.635 Z M10.8912,36.816 L14.4172,39.543 C14.8392,39.869 15.2382,40.223 15.6162,40.598 C15.6392,40.624 15.6632,40.648 15.6892,40.671 C16.0642,41.049 16.4172,41.447 16.7442,41.869 L19.4722,45.396 L9.6352,46.652 L10.8912,36.816 Z M46.6522,46.652 L36.8152,45.396 L39.5642,41.842 C39.8812,41.432 40.2252,41.045 40.5892,40.677 C40.6222,40.65 40.6502,40.621 40.6782,40.589 C41.0462,40.225 41.4332,39.881 41.8432,39.564 L45.3962,36.816 L46.6522,46.652 Z M56.2242,27.827 L48.2232,8.511 C48.1392,8.308 47.9792,8.148 47.7762,8.064 L28.4592,0.063 C28.2582,-0.021 28.0302,-0.021 27.8292,0.063 L8.5112,8.064 C8.3082,8.148 8.1482,8.308 8.0642,8.511 L0.0632,27.827 C-0.0208,28.03 -0.0208,28.256 0.0632,28.458 L8.0642,47.776 C8.1482,47.979 8.3082,48.139 8.5112,48.223 L27.8292,56.224 C27.9292,56.266 28.0372,56.286 28.1442,56.286 C28.2512,56.286 28.3592,56.266 28.4592,56.224 L47.7762,48.223 C47.9792,48.139 48.1392,47.979 48.2232,47.776 L56.2242,28.458 C56.3082,28.256 56.3082,28.03 56.2242,27.827 Z" id="Fill-12" fill="#FFFFFF"></path>
        </g>
    </g>
</svg>