<?xml version="1.0" encoding="UTF-8"?>
<svg width="222px" height="60px" viewBox="0 0 222 60" version="1.1" xmlns="http://www.w3.org/2000/svg" xmlns:xlink="http://www.w3.org/1999/xlink">
    <!-- Generator: Sketch 52.2 (67145) - http://www.bohemiancoding.com/sketch -->
    <title>Primary Logomark</title>
    <desc>Created with Sketch.</desc>
    <g id="Page-1" stroke="none" stroke-width="1" fill="none" fill-rule="evenodd">
        <g id="Primary-Logomark" fill="#FFFFFF">
            <path d="M84.68,47.69 C85.176778,47.0759193 85.4264085,46.2984984 85.38,45.51 L85.38,11.32 L96.65,11.32 C98.3,11.32 99.12,10.56 99.16,8.99 L71.5,8.99 C69.85,8.99 69.03,9.75 68.99,11.32 L82.77,11.32 L82.77,48.46 C83.4874977,48.4883544 84.182783,48.2080561 84.68,47.69 Z" id="Path"></path>
            <path d="M118,20.94 C114.354925,19.2727968 110.165075,19.2727968 106.52,20.94 C104.934591,21.6860554 103.577671,22.8427173 102.59,24.29 C101.663051,25.6367259 101.170968,27.2351225 101.18,28.87 L101.18,39.35 C101.176049,40.9841234 101.667676,42.5810401 102.59,43.93 C103.572933,45.3678504 104.927786,46.5118714 106.51,47.24 C110.167371,48.8662448 114.342629,48.8662448 118,47.24 C119.586691,46.5146793 120.945465,45.3702669 121.93,43.93 C122.852324,42.5810401 123.343951,40.9841234 123.34,39.35 L123.34,28.87 C123.349032,27.2351225 122.856949,25.6367259 121.93,24.29 C120.939795,22.8449962 119.58356,21.6889187 118,20.94 Z M121.07,39.4 C121.09447,41.3567621 120.193688,43.2102223 118.64,44.4 C114.78841,47.014383 109.73159,47.014383 105.88,44.4 C104.326312,43.2102223 103.42553,41.3567621 103.45,39.4 L103.45,28.87 C103.419133,26.8866149 104.318335,25.0030997 105.88,23.78 C109.719329,21.1260238 114.800671,21.1260238 118.64,23.78 C120.201665,25.0030997 121.100867,26.8866149 121.07,28.87 L121.07,39.4 Z" id="Shape" fill-rule="nonzero"></path>
            <path d="M145.09,48.46 C147.915144,48.6175679 150.701313,47.743336 152.93,46 C154.869098,44.3352754 155.937883,41.8733842 155.83,39.32 L155.83,28.92 C155.927401,26.3328952 154.819252,23.8469475 152.83,22.19 C150.547156,20.428612 147.70957,19.5418664 144.83,19.69 C141.669605,19.7500811 138.662481,21.0630001 136.47,23.34 L136.47,19.7 C135.777327,19.6355887 135.095002,19.9025856 134.63,20.42 C134.226941,21.0909296 134.038528,21.8690047 134.09,22.65 L134.09,59.65 C135.65,59.6 136.41,58.75 136.41,57.03 C136.41,57.03 136.41,44.91 136.41,44.94 C136.87,45.38 138.87,48.46 145.09,48.46 Z M136.44,28.59 C136.44632,27.354273 136.861201,26.1553382 137.62,25.18 C138.440011,24.1050692 139.516045,23.2524927 140.75,22.7 C142.076695,22.0916085 143.520487,21.7810056 144.98,21.79 C147.231547,21.6656992 149.455951,22.3305449 151.27,23.67 C152.801825,24.9518675 153.648544,26.8745468 153.56,28.87 L153.56,39.35 C153.627672,41.3200998 152.773663,43.2092706 151.25,44.46 C149.483615,45.7972911 147.302775,46.4699529 145.09,46.36 C142.858213,46.4616034 140.658079,45.8022683 138.85,44.49 C137.308026,43.3550349 136.410162,41.5444027 136.44,39.63 L136.44,28.59 Z" id="Shape" fill-rule="nonzero"></path>
            <path d="M186.06,48.46 C186.693347,48.4780017 187.305622,48.2316424 187.75,47.78 C188.21285,47.2205835 188.442093,46.5041982 188.39,45.78 L188.39,29.09 C188.506801,26.5144776 187.499753,24.0151008 185.63,22.24 C183.554946,20.4639555 180.877809,19.5512952 178.15,19.69 C176.530135,19.694677 174.923225,19.9788463 173.4,20.53 C171.994951,20.9934331 170.689113,21.7158842 169.55,22.66 C168.707062,23.2598572 168.169711,24.1993086 168.08,25.23 C168.091988,25.6310532 168.194547,26.0241986 168.38,26.38 C168.556683,26.7521029 168.796955,27.0905137 169.09,27.38 C170.76,23.75 173.83,21.92 178.21,21.92 C180.322676,21.7838998 182.409727,22.4439076 184.06,23.77 C185.473283,25.131661 186.225058,27.0402926 186.12,29 L186.12,33.5 C186.12,33.58 183.67,29.95 177.48,29.95 C174.13,29.95 171.48,30.79 169.48,32.47 C167.541508,34.1693548 166.475515,36.6542203 166.58,39.23 C166.494942,41.8089939 167.601356,44.2836746 169.58,45.94 C171.800721,47.7039677 174.587391,48.599683 177.42,48.46 C183.42,48.46 186.06,45.15 186.06,45.15 L186.06,48.46 Z M183.78,44.35 C181.860671,45.7009594 179.544043,46.3698946 177.2,46.25 C175.042108,46.3790333 172.91055,45.721803 171.2,44.4 C169.727506,43.0967536 168.928773,41.1937831 169.03,39.23 C168.933183,37.2572962 169.756911,35.3512714 171.26,34.07 C173.004176,32.7538418 175.158343,32.0983798 177.34,32.22 C179.652471,32.0922212 181.940057,32.751356 183.83,34.09 C185.394995,35.326943 186.275531,37.2366278 186.2,39.23 C186.268769,41.2275922 185.367174,43.1350999 183.78,44.35 Z" id="Shape" fill-rule="nonzero"></path>
            <path d="M200.4,48 L221.34,48 C221.351467,47.4275892 221.12304,46.8764639 220.71,46.48 C220.199883,46.0609335 219.548529,45.8533591 218.89,45.9 L202.44,45.9 L202.6,45.7 L220.81,22.22 C220.995842,21.9625991 221.10348,21.6570484 221.12,21.34 C221.122965,21.0441994 220.994813,20.7622652 220.77,20.57 C220.514322,20.3439033 220.181005,20.2256297 219.84,20.24 L199.18,20.24 C199.175657,20.8110439 199.402962,21.3594623 199.81,21.76 C200.323469,22.1728635 200.972326,22.379642 201.63,22.34 L217.92,22.34 L217.76,22.54 L199.44,46 C199.282695,46.227133 199.192584,46.4939999 199.18,46.77 C199.181413,47.0755891 199.312222,47.366275 199.54,47.57 C199.75097,47.8309858 200.064629,47.9878152 200.4,48 Z" id="Path"></path>
            <path d="M57,28.16 L49,8.84 C48.9184547,8.63664111 48.7551398,8.47695548 48.55,8.4 L29.2,0.4 C28.9996086,0.310160129 28.7703914,0.310160129 28.57,0.4 L9.25,8.4 C9.04864732,8.48280791 8.88731121,8.64055877 8.8,8.84 L0.8,28.16 C0.720312454,28.3624404 0.720312454,28.5875596 0.8,28.79 L8.8,48.11 C8.89019169,48.3097972 9.05020282,48.4698083 9.25,48.56 L28.57,56.56 C28.6683969,56.600142 28.7737312,56.6205293 28.88,56.62 C28.9894919,56.6203147 29.0980593,56.5999583 29.2,56.56 L48.51,48.56 C48.7138318,48.4757478 48.8757478,48.3138318 48.96,48.11 L56.96,28.79 C57.0627587,28.5953678 57.0773176,28.3660657 57,28.16 Z M47.39,47 L37.55,45.75 L40.3,42.19 C40.6094265,41.7833515 40.9433805,41.3959648 41.3,41.03 L41.39,40.94 C41.7535649,40.5807716 42.1411247,40.2466684 42.55,39.94 L46.1,37.19 L47.39,47 Z M11.63,37.15 L15.15,39.88 C15.5731919,40.1844754 15.9742027,40.518651 16.35,40.88 L16.43,40.95 C16.8010278,41.3311012 17.1515229,41.731667 17.48,42.15 L20.21,45.68 L10.37,47 L11.63,37.15 Z M10.37,10 L20.21,11.25 L17.46,14.81 C17.1479281,15.2144977 16.8141025,15.6017355 16.46,15.97 C16.4251534,15.9947267 16.3947267,16.0251534 16.37,16.06 C15.9981568,16.414009 15.607596,16.7478217 15.2,17.06 L11.63,19.8 L10.37,10 Z M46.13,19.8 L42.57,17.05 C42.1664138,16.740698 41.7823471,16.4067269 41.42,16.05 L41.32,15.96 C40.965465,15.5956304 40.6316092,15.2116963 40.32,14.81 L37.56,11.24 L47.39,10 L46.13,19.8 Z M45.4,25.53 L42.65,18.88 L45.93,21.41 L45.4,25.53 Z M27.27,46.24 C27.7837985,46.1715289 28.3016626,46.1381183 28.82,46.14 L28.94,46.14 C29.4583374,46.1381183 29.9762015,46.1715289 30.49,46.24 L34.95,46.81 L28.88,54.65 L22.81,46.81 L27.27,46.24 Z M21.82,45.52 L19.28,42.24 L25.93,45 L21.82,45.52 Z M31.82,45 L38.47,42.24 L35.93,45.52 L31.82,45 Z M40.15,39.76 L28.88,44.43 L17.6,39.76 L12.92,28.48 L17.6,17.19 L28.88,12.52 L40.16,17.19 L44.84,28.48 L40.15,39.76 Z M30.47,10.76 C29.9628738,10.828151 29.4516826,10.8615621 28.94,10.86 L28.81,10.86 C28.2949848,10.8618934 27.7804454,10.8284818 27.27,10.76 L22.8,10.19 L28.88,2.3 L35,10.14 L30.47,10.76 Z M35.93,11.48 L38.47,14.76 L31.83,12 L35.93,11.48 Z M25.93,12 L19.29,14.76 L21.82,11.48 L25.93,12 Z M36.56,10 L31.2,3 L45.2,8.82 L36.56,10 Z M21.2,10 L12.52,8.89 L26.56,3 L21.2,10 Z M15.11,18.94 L12.36,25.59 L11.83,21.48 L15.11,18.94 Z M11.11,26.94 C11.1764887,27.4675145 11.2132135,27.9983552 11.22,28.53 C11.2102262,28.5660154 11.2102262,28.6039846 11.22,28.64 C11.2132135,29.1716448 11.1764887,29.7024855 11.11,30.23 L10.55,34.65 L2.71,28.48 L10.55,22.41 L11.11,26.94 Z M12.36,31.54 L15.11,38.18 L11.83,35.65 L12.36,31.54 Z M21.2,47 L26.56,53.93 L12.56,48.11 L21.2,47 Z M36.56,47 L45.25,48.11 L31.25,53.93 L36.56,47 Z M42.65,38.06 L45.4,31.42 L45.93,35.53 L42.65,38.06 Z M46.65,30.06 C46.5815426,29.5361456 46.548135,29.0083052 46.55,28.48 L46.55,28.37 C46.548135,27.8416948 46.5815426,27.3138544 46.65,26.79 L47.21,22.36 L55.06,28.43 L47.21,34.49 L46.65,30.06 Z M54.34,26.11 L47.42,20.8 L48.53,12.11 L54.34,26.11 Z M9.23,12.11 L10.34,20.8 L3.42,26.16 L9.23,12.11 Z M3.42,30.8 L10.34,36.15 L9.23,44.84 L3.42,30.8 Z M48.53,44.8 L47.42,36.11 L54.34,30.76 L48.53,44.8 Z" id="Shape" fill-rule="nonzero"></path>
        </g>
    </g>
</svg>