<?xml version="1.0" encoding="UTF-8"?>
<svg width="250px" height="107px" viewBox="0 0 250 107" version="1.1" xmlns="http://www.w3.org/2000/svg" xmlns:xlink="http://www.w3.org/1999/xlink">
    <!-- Generator: Sketch 52.1 (67048) - http://www.bohemiancoding.com/sketch -->
    <title>Artboard</title>
    <desc>Created with Sketch.</desc>
    <defs>
        <polygon id="path-1" points="0 0.435369565 3.69262357 0.435369565 3.69262357 4.13015217 0 4.13015217"></polygon>
        <polygon id="path-3" points="0.108288973 0.435369565 3.80228137 0.435369565 3.80228137 4.13015217 0.108288973 4.13015217"></polygon>
        <polygon id="path-5" points="0.211536497 0.018705482 15.2941929 0.018705482 15.2941929 29.2273157 0.211536497 29.2273157"></polygon>
    </defs>
    <g id="Artboard" stroke="none" stroke-width="1" fill="none" fill-rule="evenodd">
        <g id="logo-topaz-bgnodes" transform="translate(2.000000, 2.000000)">
            <g id="Group-51" opacity="0.342959449">
                <path d="M52.8524937,0 C51.8036965,0 50.9505703,0.853589776 50.9505703,1.9013908 C50.9505703,2.95075805 51.8036965,3.80434783 52.8524937,3.80434783 C53.8997256,3.80434783 54.7528517,2.95075805 54.7528517,1.9013908 C54.7528517,0.853589776 53.8997256,0 52.8524937,0" id="Fill-1" fill="#FFFFFF"></path>
                <path d="M52.8524937,19.7826087 C51.8036965,19.7826087 50.9505703,20.6349832 50.9505703,21.6847826 C50.9505703,22.734582 51.8036965,23.5869565 52.8524937,23.5869565 C53.8997256,23.5869565 54.7528517,22.734582 54.7528517,21.6847826 C54.7528517,20.6349832 53.8997256,19.7826087 52.8524937,19.7826087" id="Fill-3" fill="#FFFFFF"></path>
                <path d="M52.8524937,81.4130435 C51.8036965,81.4130435 50.9505703,82.2669848 50.9505703,83.3152174 C50.9505703,84.3650168 51.8036965,85.2173913 52.8524937,85.2173913 C53.8997256,85.2173913 54.7528517,84.3650168 54.7528517,83.3152174 C54.7528517,82.2669848 53.8997256,81.4130435 52.8524937,81.4130435" id="Fill-5" fill="#FFFFFF"></path>
                <path d="M16.3498099,14.4565217 C15.3005807,14.4565217 14.4486692,15.3101115 14.4486692,16.3579125 C14.4486692,17.4072798 15.3005807,18.2608696 16.3498099,18.2608696 C17.3974731,18.2608696 18.2509506,17.4072798 18.2509506,16.3579125 C18.2509506,15.3101115 17.3974731,14.4565217 16.3498099,14.4565217" id="Fill-7" fill="#FFFFFF"></path>
                <g id="Group-11" transform="translate(0.000000, 49.456522)">
                    <g id="Fill-9-Clipped">
                        <mask id="mask-2" fill="white">
                            <use xlink:href="#path-1"></use>
                        </mask>
                        <g id="path-1"></g>
                        <path d="M1.84623574,0.435369565 C0.828745247,0.435369565 -0.000152091255,1.26319565 -0.000152091255,2.28276087 C-0.000152091255,3.30232609 0.828745247,4.13015217 1.84623574,4.13015217 C2.86524715,4.13015217 3.69262357,3.30232609 3.69262357,2.28276087 C3.69262357,1.26319565 2.86524715,0.435369565 1.84623574,0.435369565" id="Fill-9" fill="#FFFFFF" mask="url(#mask-2)"></path>
                    </g>
                </g>
                <path d="M16.3498099,86.7391304 C15.3005807,86.7391304 14.4486692,87.5915049 14.4486692,88.6413043 C14.4486692,89.6895369 15.3005807,90.5434783 16.3498099,90.5434783 C17.3974731,90.5434783 18.2509506,89.6895369 18.2509506,88.6413043 C18.2509506,87.5915049 17.3974731,86.7391304 16.3498099,86.7391304" id="Fill-12" fill="#FFFFFF"></path>
                <path d="M30.0380228,73.0434783 C28.9887936,73.0434783 28.1368821,73.8958527 28.1368821,74.9456522 C28.1368821,75.9938848 28.9887936,76.8478261 30.0380228,76.8478261 C31.085686,76.8478261 31.9391635,75.9938848 31.9391635,74.9456522 C31.9391635,73.8958527 31.085686,73.0434783 30.0380228,73.0434783" id="Fill-14" fill="#FFFFFF"></path>
                <path d="M21.6737865,50.2173913 C20.6249892,50.2173913 19.7718631,51.0697658 19.7718631,52.1195652 C19.7718631,53.1693647 20.6249892,54.0217391 21.6737865,54.0217391 C22.7225837,54.0217391 23.5741445,53.1693647 23.5741445,52.1195652 C23.5741445,51.0697658 22.7225837,50.2173913 21.6737865,50.2173913" id="Fill-16" fill="#FFFFFF"></path>
                <path d="M83.2707447,50.2173913 C82.2219474,50.2173913 81.3688213,51.0697658 81.3688213,52.1195652 C81.3688213,53.1693647 82.2219474,54.0217391 83.2707447,54.0217391 C84.3179765,54.0217391 85.1711027,53.1693647 85.1711027,52.1195652 C85.1711027,51.0697658 84.3179765,50.2173913 83.2707447,50.2173913" id="Fill-18" fill="#FFFFFF"></path>
                <path d="M30.0380228,28.1521739 C28.9887936,28.1521739 28.1368821,29.0057637 28.1368821,30.0551309 C28.1368821,31.102932 28.9887936,31.9565217 30.0380228,31.9565217 C31.085686,31.9565217 31.9391635,31.102932 31.9391635,30.0551309 C31.9391635,29.0057637 31.085686,28.1521739 30.0380228,28.1521739" id="Fill-20" fill="#FFFFFF"></path>
                <path d="M52.8524937,101.195652 C51.8036965,101.195652 50.9505703,102.049594 50.9505703,103.097826 C50.9505703,104.146059 51.8036965,105 52.8524937,105 C53.8997256,105 54.7528517,104.146059 54.7528517,103.097826 C54.7528517,102.049594 53.8997256,101.195652 52.8524937,101.195652" id="Fill-22" fill="#FFFFFF"></path>
                <path d="M88.5939386,86.7391304 C87.5451413,86.7391304 86.6920152,87.5915049 86.6920152,88.6413043 C86.6920152,89.6895369 87.5451413,90.5434783 88.5939386,90.5434783 C89.6427358,90.5434783 90.4942966,89.6895369 90.4942966,88.6413043 C90.4942966,87.5915049 89.6427358,86.7391304 88.5939386,86.7391304" id="Fill-24" fill="#FFFFFF"></path>
                <path d="M74.904943,73.0434783 C73.8557138,73.0434783 73.0038023,73.8958527 73.0038023,74.9456522 C73.0038023,75.9938848 73.8557138,76.8478261 74.904943,76.8478261 C75.9526062,76.8478261 76.8060837,75.9938848 76.8060837,74.9456522 C76.8060837,73.8958527 75.9526062,73.0434783 74.904943,73.0434783" id="Fill-26" fill="#FFFFFF"></path>
                <g id="Group-30" transform="translate(101.140684, 49.456522)">
                    <g id="Fill-28-Clipped">
                        <mask id="mask-4" fill="white">
                            <use xlink:href="#path-3"></use>
                        </mask>
                        <g id="path-3"></g>
                        <path d="M1.95467681,0.435369565 C0.937186312,0.435369565 0.108288973,1.26319565 0.108288973,2.28276087 C0.108288973,3.30232609 0.937186312,4.13015217 1.95467681,4.13015217 C2.97368821,4.13015217 3.80258555,3.30232609 3.80258555,2.28276087 C3.80258555,1.26319565 2.97368821,0.435369565 1.95467681,0.435369565" id="Fill-28" fill="#FFFFFF" mask="url(#mask-4)"></path>
                    </g>
                </g>
                <path d="M88.5939386,14.4565217 C87.5451413,14.4565217 86.6920152,15.3101115 86.6920152,16.3579125 C86.6920152,17.4072798 87.5451413,18.2608696 88.5939386,18.2608696 C89.6427358,18.2608696 90.4942966,17.4072798 90.4942966,16.3579125 C90.4942966,15.3101115 89.6427358,14.4565217 88.5939386,14.4565217" id="Fill-31" fill="#FFFFFF"></path>
                <path d="M74.904943,28.1521739 C73.8557138,28.1521739 73.0038023,29.0057637 73.0038023,30.0551309 C73.0038023,31.102932 73.8557138,31.9565217 74.904943,31.9565217 C75.9526062,31.9565217 76.8060837,31.102932 76.8060837,30.0551309 C76.8060837,29.0057637 75.9526062,28.1521739 74.904943,28.1521739" id="Fill-33" fill="#FFFFFF"></path>
                <path d="M65.4001872,18.2608696 C64.5625007,18.2608696 63.878327,18.9439445 63.878327,19.7826087 C63.878327,20.6212729 64.5625007,21.3043478 65.4001872,21.3043478 C66.2359783,21.3043478 66.9201521,20.6212729 66.9201521,19.7826087 C66.9201521,18.9439445 66.2359783,18.2608696 65.4001872,18.2608696" id="Fill-35" fill="#FFFFFF"></path>
                <path d="M39.5437262,18.2608696 C38.7055176,18.2608696 38.0228137,18.9439445 38.0228137,19.7826087 C38.0228137,20.6212729 38.7055176,21.3043478 39.5437262,21.3043478 C40.3819349,21.3043478 41.0646388,20.6212729 41.0646388,19.7826087 C41.0646388,18.9439445 40.3819349,18.2608696 39.5437262,18.2608696" id="Fill-37" fill="#FFFFFF"></path>
                <path d="M21.2927757,39.5652174 C21.2927757,38.7265532 20.6119682,38.0434783 19.7718631,38.0434783 C18.9336545,38.0434783 18.2509506,38.7265532 18.2509506,39.5652174 C18.2509506,40.4038816 18.9336545,41.0869565 19.7718631,41.0869565 C20.6119682,41.0869565 21.2927757,40.4038816 21.2927757,39.5652174" id="Fill-39" fill="#FFFFFF"></path>
                <path d="M21.2927757,65.4347826 C21.2927757,64.5961184 20.6119682,63.9130435 19.7718631,63.9130435 C18.9336545,63.9130435 18.2509506,64.5961184 18.2509506,65.4347826 C18.2509506,66.2734468 18.9336545,66.9565217 19.7718631,66.9565217 C20.6119682,66.9565217 21.2927757,66.2734468 21.2927757,65.4347826" id="Fill-41" fill="#FFFFFF"></path>
                <path d="M39.5437262,83.6956522 C38.7055176,83.6956522 38.0228137,84.3783015 38.0228137,85.2164432 C38.0228137,86.0564811 38.7055176,86.7391304 39.5437262,86.7391304 C40.3819349,86.7391304 41.0646388,86.0564811 41.0646388,85.2164432 C41.0646388,84.3783015 40.3819349,83.6956522 39.5437262,83.6956522" id="Fill-43" fill="#FFFFFF"></path>
                <path d="M63.8980371,84.9726374 C63.8335833,85.3748972 63.9283683,85.777157 64.165331,86.1073136 C64.4022937,86.4374703 64.7529984,86.6537798 65.1548871,86.7201906 C65.9795171,86.8511148 66.7662331,86.289469 66.9008279,85.46218 C67.033527,84.6329935 66.468608,83.8493458 65.6420823,83.7146267 C65.5586714,83.7013445 65.4771563,83.6956522 65.3937454,83.6956522 C65.079059,83.6956522 64.7719554,83.7943197 64.5084529,83.9821674 C64.1786009,84.2212464 63.962491,84.572275 63.8980371,84.9726374" id="Fill-45" fill="#FFFFFF"></path>
                <path d="M84.4304775,66.7134538 C84.2958881,67.5425032 84.8607845,68.3260213 85.6872771,68.458821 C86.5080829,68.5916206 87.2985587,68.0300677 87.4331481,67.2010183 C87.5658419,66.373866 87.0009455,65.5903479 86.1744529,65.4556511 C86.0910453,65.4423712 86.0095334,65.4347826 85.9280216,65.4347826 C85.6114521,65.4347826 85.3043608,65.5334338 85.0408689,65.7231476 C84.7110301,65.9602899 84.4949288,66.3112605 84.4304775,66.7134538" id="Fill-47" fill="#FFFFFF"></path>
                <path d="M83.6698999,39.3223385 C83.6054471,39.7226939 83.7002306,40.1249466 83.9371894,40.4550975 C84.1760439,40.7852484 84.5267429,41.0034515 84.9267294,41.0679637 C85.3229245,41.1305786 85.7304937,41.037605 86.0603403,40.8004277 C86.390187,40.5632504 86.6081891,40.2122279 86.6726419,39.8099751 C86.8053388,38.9808031 86.2423247,38.1990666 85.4139167,38.0624524 C85.3324029,38.0510679 85.2508891,38.0434783 85.1712709,38.0434783 C84.4376464,38.0434783 83.7893272,38.5747555 83.6698999,39.3223385" id="Fill-49" fill="#FFFFFF"></path>
            </g>
            <g id="Group-14" transform="translate(32.699620, 32.717391)">
                <path d="M60.1179584,34.3338609 C60.4482969,33.9640914 60.6166907,33.4373849 60.6166907,32.7673569 L60.6166907,8.26654555 L68.696727,8.26654555 C69.8740504,8.26654555 70.4623539,7.72049062 70.4917332,6.59971645 L50.6699912,6.59971645 C49.4919512,6.59971645 48.9036477,7.14505477 48.8742684,8.26654555 L58.7507441,8.26654555 L58.7507441,34.8842155 C59.3447801,34.8677335 59.8048176,34.6828488 60.1179584,34.3338609" id="Fill-1" fill="#FFFFFF"></path>
                <path d="M91.4136339,28.3503989 C91.4136339,29.7987535 90.8244954,31.0120839 89.6628039,31.9550644 L89.6628039,31.9557853 C88.5054389,32.8937192 86.957238,33.3688141 85.0600248,33.3688141 C83.1620905,33.3688141 81.6138895,32.8937192 80.4586879,31.9550644 C79.2955541,31.0128048 78.7064157,29.8001953 78.7064157,28.3503989 L78.7064157,20.7568106 C78.7064157,19.2810606 79.2955541,18.0475441 80.4579668,17.0915868 C81.6138895,16.1399551 83.1620905,15.65693 85.0600248,15.65693 C86.957238,15.65693 88.5054389,16.1399551 89.663525,17.0915868 C90.8244954,18.048265 91.4136339,19.2817815 91.4136339,20.7568106 L91.4136339,28.3503989 Z M89.2020212,15.041974 C87.9949004,14.4450414 86.6010147,14.1422495 85.0600248,14.1422495 C83.5183137,14.1422495 82.1251492,14.4450414 80.9187494,15.041974 C79.7130708,15.6381857 78.7604982,16.4499564 78.08627,17.4549371 C77.4127629,18.457755 77.0709617,19.5687129 77.0709617,20.7568106 L77.0709617,28.3100266 C77.0709617,29.4981244 77.4127629,30.6090823 78.08627,31.6119002 C78.7597771,32.6168809 79.7123497,33.4221632 80.9180283,34.0046771 C82.1258703,34.587912 83.5190348,34.8842155 85.0600248,34.8842155 C86.6002936,34.8842155 87.9941793,34.587912 89.2027423,34.0046771 C90.4084209,33.4214423 91.3609936,32.61616 92.0352218,31.6119002 C92.7080077,30.6090823 93.0490879,29.4981244 93.0490879,28.3100266 L93.0490879,20.7568106 C93.0490879,19.5694338 92.7080077,18.4584759 92.0352218,17.4549371 C91.3602725,16.4499564 90.4076998,15.6381857 89.2020212,15.041974 Z" id="Fill-3" fill="#FFFFFF" fill-rule="nonzero"></path>
                <g id="Group-7" transform="translate(101.508096, 14.142250)">
                    <g id="Fill-5-Clipped">
                        <mask id="mask-6" fill="white">
                            <use xlink:href="#path-5"></use>
                        </mask>
                        <g id="path-5"></g>
                        <path d="M1.82741135,6.51812981 C1.82741135,5.62961941 2.1018183,4.79079545 2.64160108,4.02723183 C3.18068917,3.26732162 3.91220947,2.65866277 4.81671035,2.21806099 C5.72051653,1.7774592 6.70768685,1.55387024 7.75321206,1.55387024 C9.6073694,1.55387024 11.0794411,2.01566183 12.1298292,2.92609271 C13.1836909,3.84163837 13.717916,5.11887207 13.717916,6.72272102 L13.717916,14.3780857 C13.717916,15.9285948 13.1767439,17.1853694 12.1096829,18.1133366 C11.0481796,19.0376505 9.60875881,19.5052875 7.83101859,19.5052875 C6.05397308,19.5052875 4.59510069,19.0449573 3.49469408,18.1345264 C2.38872987,17.2204421 1.82741135,16.0250449 1.82741135,14.5826769 L1.82741135,6.51812981 Z M2.73608044,19.1940166 C3.22098183,19.5177091 3.82398242,19.9188541 4.32972485,20.1913988 C5.37455536,20.7547553 6.5534632,21.0404523 7.83101859,21.0404523 C10.1082489,21.0404523 11.9415652,20.4288707 13.2816437,19.2210519 C14.6168593,18.0168865 15.2941929,16.3735807 15.2941929,14.3371674 L15.2941929,6.76363926 C15.2941929,4.70019077 14.6043547,3.04300197 13.2427405,1.83956725 C11.8776527,0.631748429 10.0047385,0.018705482 7.67540554,0.018705482 C6.47704607,0.018705482 5.32523158,0.319016151 4.25191832,0.909407928 C3.17929976,1.4997997 2.01567536,2.36785098 2.00456014,2.37661918 L1.86631461,2.47964546 L1.86631461,0.0201668478 C1.24594649,0.0355111886 0.814537086,0.214528497 0.584591009,0.552834676 C0.337277403,0.918906805 0.211536497,1.46545761 0.211536497,2.17860411 L0.211536497,29.2277541 C1.29874378,29.1963347 1.82741135,28.5694088 1.82741135,27.3140956 L1.82741135,18.8674014 C1.79267629,18.8016399 1.81004382,18.7577989 1.83366366,18.7314944 C1.90591258,18.6481965 1.95801516,18.6759625 2.73608044,19.1940166 Z" id="Fill-5" fill="#FFFFFF" fill-rule="nonzero" mask="url(#mask-6)"></path>
                    </g>
                </g>
                <path d="M138.535547,31.9167518 C137.346327,32.8273219 135.721794,33.2887351 133.70746,33.2887351 C131.856094,33.2887351 130.382783,32.8402991 129.328635,31.9542416 C128.270082,31.0660211 127.734199,29.8129959 127.734199,28.2297718 C127.734199,26.6465477 128.284764,25.3935224 129.370478,24.504581 C130.453255,23.6192444 131.953728,23.1700875 133.831521,23.1700875 C135.84512,23.1700875 137.449099,23.625733 138.59721,24.5233259 C139.753397,25.4252446 140.339932,26.6725022 140.339932,28.2297718 C140.339932,29.758924 139.732842,31.0004139 138.535547,31.9167518 Z M140.216605,34.8827736 C140.746616,34.8654706 141.162843,34.6996502 141.453541,34.3881963 C141.765528,34.0579975 141.923356,33.5756765 141.923356,32.9556524 L141.923356,20.9185352 C141.923356,18.854432 141.24139,17.1919025 139.897278,15.9763671 C138.549495,14.7593897 136.701799,14.1422495 134.407779,14.1422495 C133.242784,14.1422495 132.069714,14.3448388 130.921602,14.7428077 C129.774225,15.1400556 128.822849,15.6577036 128.092433,16.2813324 C127.376699,16.8941468 127.013326,17.5163337 127.013326,18.131311 C127.013326,18.3858092 127.086735,18.665541 127.23135,18.9596919 C127.358347,19.2221207 127.534527,19.4621997 127.754753,19.6748824 C128.984348,17.06213 131.235057,15.7377299 134.448154,15.7377299 C136.29952,15.7377299 137.74567,16.1876078 138.74623,17.0736654 C139.748258,17.9626068 140.25698,19.2423075 140.25698,20.8774406 L140.25698,23.5521953 L140.284141,23.5853594 L140.2445,23.6617809 C140.183571,23.7338768 140.164485,23.7237833 139.69834,23.4721689 C138.716867,22.9422647 136.106455,21.5342334 133.913739,21.5342334 C131.453081,21.5342334 129.487197,22.1456059 128.072613,23.350327 C126.660964,24.5521643 125.94523,26.193786 125.94523,28.2297718 C125.94523,30.2390821 126.674178,31.8670056 128.112987,33.0681219 C129.555467,34.2735639 131.492722,34.8842155 133.87263,34.8842155 C135.222615,34.8842155 136.522682,34.5886227 137.739063,34.0046466 C138.357898,33.7076118 139.085378,33.2519662 139.565471,32.9498848 C140.190178,32.5576836 140.218073,32.5389386 140.286343,32.6247327 C140.3414,32.6932237 140.287078,32.7602728 140.216605,32.8316476 L140.216605,34.8827736 Z" id="Fill-8" fill="#FFFFFF" fill-rule="nonzero"></path>
                <path d="M152.199912,33.9413989 L167.30038,33.9413989 C167.283793,33.4749828 167.134512,33.1205351 166.846768,32.8588 C166.541715,32.5828015 166.099641,32.4430193 165.533527,32.4430193 L153.670366,32.4430193 L153.785032,32.2982449 L166.917442,15.5557613 C167.063838,15.3368167 167.140282,15.1257171 167.140282,14.9317337 C167.140282,14.716355 167.057348,14.5359218 166.886432,14.3783103 C166.715516,14.2221251 166.491955,14.1422495 166.221518,14.1422495 L151.687163,14.1422495 C151.704471,14.6043866 151.856637,14.9681056 152.140776,15.2248484 C152.445108,15.5008469 152.887182,15.6406291 153.452575,15.6406291 L164.831112,15.6406291 L164.717168,15.7861167 L151.504709,32.568538 C151.385717,32.7582424 151.322254,32.944381 151.322254,33.1126901 C151.322254,33.3302084 151.405909,33.5184864 151.577546,33.6882219 C151.749184,33.8586706 151.953273,33.9413989 152.199912,33.9413989" id="Fill-10" fill="#FFFFFF"></path>
                <path d="M34.3135161,32.0584959 L33.5172305,25.8015107 L38.4909635,21.941584 L34.3135161,32.0584959 Z M1.92429687,21.941584 L6.89802986,25.8015107 L6.1010263,32.0584959 L1.92429687,21.941584 Z M6.1010263,8.48333966 L6.89802986,14.7403249 L1.92429687,18.5995313 L6.1010263,8.48333966 Z M38.4909635,18.5995313 L33.5172305,14.7403249 L34.3135161,8.48333966 L38.4909635,18.5995313 Z M32.9636362,21.4489193 C32.9155288,21.0714979 32.8925521,20.6911953 32.891116,20.3108928 C32.8925521,20.2835225 32.8925521,20.2575928 32.891116,20.2309428 C32.8925521,19.8506403 32.9155288,19.4703377 32.9636362,19.0929163 L33.3700362,15.9006798 L39.0014766,20.2705577 L33.3700362,24.6411558 L32.9636362,21.4489193 Z M30.0937054,27.1829885 L32.0704178,22.3953541 L32.4473789,25.3571042 L30.0937054,27.1829885 Z M25.7209561,33.622202 L31.9584065,34.4209814 L21.8737984,38.6115121 L25.7209561,33.622202 Z M14.6943043,33.622202 L18.54218,38.6115121 L8.45685393,34.4209814 L14.6943043,33.622202 Z M8.34484262,22.3953541 L10.321555,27.1829885 L7.96788147,25.3563839 L8.34484262,22.3953541 Z M7.4509062,19.0871541 C7.49973164,19.4667364 7.5219903,19.8491997 7.52342634,20.2316631 C7.5219903,20.2583131 7.5219903,20.2828022 7.52342634,20.3094522 C7.5219903,20.6919156 7.49973164,21.0743789 7.4509062,21.4539612 L7.04522421,24.6411558 L1.41378378,20.2705577 L7.04522421,15.9006798 L7.4509062,19.0871541 Z M10.320837,13.3595673 L8.34484262,18.1464815 L7.96788147,15.1854517 L10.320837,13.3595673 Z M14.6950223,6.91963356 L8.45685393,6.12085417 L18.54218,1.93032351 L14.6950223,6.91963356 Z M25.7209561,6.91963356 L21.8737984,1.93032351 L31.9584065,6.12085417 L25.7209561,6.91963356 Z M18.0898266,8.37097755 L13.3178576,10.3531605 L15.1380414,7.99283581 L18.0898266,8.37097755 Z M25.277219,7.99283581 L27.0966848,10.3524402 L22.3261518,8.37097755 L25.277219,7.99283581 Z M21.3589772,7.47784279 C20.9927864,7.52538061 20.6237235,7.5469887 20.2539426,7.54914951 C20.2223496,7.54626843 20.1929108,7.54626843 20.1613178,7.54914951 C19.7915369,7.5469887 19.422474,7.52538061 19.0555651,7.47784279 L15.8517545,7.06800918 L20.2079892,1.41893183 L24.5635059,7.06800918 L21.3589772,7.47784279 Z M28.3094226,28.3973637 L20.2079892,31.7639055 L12.1065558,28.3973637 L8.7505246,20.2705577 L12.1065558,12.1437516 L20.2079892,8.77793008 L28.3094226,12.1437516 L31.6647358,20.2705577 L28.3094226,28.3973637 Z M22.3254338,32.170858 L27.0981208,30.1879548 L25.277937,32.5489998 L22.3254338,32.170858 Z M15.1380414,32.5489998 L13.3171396,30.1872345 L18.0898266,32.170858 L15.1380414,32.5489998 Z M19.050539,33.0639928 C19.4203199,33.0171752 19.7929729,32.9948469 20.1649079,32.9934063 C20.1792684,32.9941266 20.1929108,33.0020496 20.2079892,33.0020496 C20.2223496,33.0020496 20.2367101,32.9941266 20.2510705,32.9934063 C20.6237235,32.9948469 20.9956585,33.0171752 21.3647214,33.0639928 L24.5642239,33.4738264 L20.2079892,39.123624 L15.8517545,33.4738264 L19.050539,33.0639928 Z M32.0704178,18.1457613 L30.0944234,13.3595673 L32.4473789,15.1854517 L32.0704178,18.1457613 Z M32.5945733,14.0250968 L30.0369817,12.0400328 C29.7461831,11.8145883 29.471181,11.5689762 29.2098212,11.309679 C29.1882806,11.2844696 29.16674,11.2621412 29.1408912,11.2405331 C28.8831216,10.9783548 28.6375583,10.7024914 28.4128177,10.4100618 L26.4339512,7.8444602 L33.4971259,6.93980112 L32.5945733,14.0250968 Z M6.91813445,6.93980112 L13.9813092,7.8444602 L12.0074689,10.4042997 C11.7798561,10.6988901 11.5328568,10.9776346 11.2714971,11.2426939 C11.2485204,11.2621412 11.2276978,11.283029 11.2075932,11.3067979 C10.9440794,11.5689762 10.6654872,11.8167491 10.3718165,12.0450746 L7.8199691,14.0250968 L6.91813445,6.93980112 Z M7.8199691,26.5174591 L10.3517119,28.4816353 C10.6547169,28.7164433 10.9412073,28.9714188 11.2126194,29.2415201 C11.2291339,29.2602471 11.2463664,29.2775336 11.2650349,29.2940998 C11.5342929,29.5663618 11.7877544,29.8530293 12.0225473,30.1569832 L13.9813092,32.6973754 L6.91813445,33.6020345 L7.8199691,26.5174591 Z M33.4971259,33.6020345 L26.4339512,32.6973754 L28.4077915,30.1375359 C28.6354043,29.8422252 28.8824036,29.5634808 29.1437633,29.2984214 C29.167458,29.2789741 29.1875626,29.2580863 29.2076672,29.2350377 C29.471899,28.9728594 29.7497732,28.7250865 30.0441619,28.4967609 L32.5952913,26.5174591 L33.4971259,33.6020345 Z M40.3700251,20.0429523 L34.6251373,6.13021768 C34.5648235,5.98400288 34.4499401,5.86875968 34.3041818,5.80825701 L20.4341659,0.0453770079 C20.2898436,-0.0151256693 20.1261348,-0.0151256693 19.9818125,0.0453770079 L6.1110786,5.80825701 C5.96532029,5.86875968 5.8504369,5.98400288 5.79012312,6.13021768 L0.0452353368,20.0429523 C-0.0150784456,20.1891671 -0.0150784456,20.3519482 0.0452353368,20.4974427 L5.79012312,34.4116179 C5.8504369,34.5578327 5.96532029,34.6730759 6.1110786,34.7335786 L19.9818125,40.4964586 C20.0536146,40.5267099 20.1311609,40.5411153 20.2079892,40.5411153 C20.2848175,40.5411153 20.3623638,40.5267099 20.4341659,40.4964586 L34.3041818,34.7335786 C34.4499401,34.6730759 34.5648235,34.5578327 34.6251373,34.4116179 L40.3700251,20.4974427 C40.4303388,20.3519482 40.4303388,20.1891671 40.3700251,20.0429523 Z" id="Fill-12" fill="#FFFFFF" fill-rule="nonzero"></path>
            </g>
        </g>
    </g>
</svg>